<svg width="446" height="287" viewBox="0 0 446 287" fill="none" xmlns="http://www.w3.org/2000/svg">
<path d="M276.48 286.012C273.694 286.012 271.677 285.484 270.428 284.427C269.179 283.467 268.555 281.593 268.555 278.807V277.654L268.699 276.358C268.987 273.379 270.62 268.336 273.598 261.227C276.576 254.022 279.987 246.336 283.829 238.171C288.152 228.852 292.139 220.35 295.79 212.665C299.536 204.979 302.515 198.879 304.724 194.364L350.26 101.418C351.317 99.1128 353.43 96.9513 356.601 94.9339C359.867 92.8204 363.277 91.7637 366.832 91.7637C371.155 91.7637 374.133 92.5802 375.766 94.2134C377.495 95.8465 378.36 97.8159 378.36 100.122C378.36 102.235 377.832 104.445 376.775 106.75C375.814 109.056 374.661 111.217 373.316 113.235C364.958 128.029 356.985 143.928 349.396 160.932C341.806 177.84 333.737 193.739 325.187 208.63C330.086 203.634 335.322 198.783 340.894 194.076C346.465 189.272 352.422 185.333 358.762 182.259C365.199 179.185 371.971 177.648 379.08 177.648C383.5 177.648 387.871 178.321 392.194 179.666C396.517 181.01 400.119 183.172 403.001 186.15C405.883 189.128 407.324 193.115 407.324 198.11C407.324 206.276 404.923 213.433 400.119 219.582C395.412 225.73 389.456 231.014 382.251 235.433C375.142 239.852 367.985 243.502 360.78 246.384C358.186 247.441 355.976 249.122 354.151 251.428C352.326 253.638 351.413 255.511 351.413 257.048C351.413 259.834 353.046 261.227 356.312 261.227C362.941 261.227 372.26 258.297 384.268 252.437C390.224 249.555 397.045 245.856 404.73 241.341C412.512 236.826 421.446 231.494 431.533 225.346C433.07 224.385 434.607 223.905 436.145 223.905C440.083 223.905 442.053 226.354 442.053 231.254C442.053 233.944 441.044 237.018 439.027 240.476C437.105 243.839 433.839 247.057 429.228 250.131C420.678 255.319 411.839 260.698 402.713 266.27C393.587 271.842 384.124 276.55 374.325 280.392C364.526 284.139 354.343 286.012 343.776 286.012C330.134 286.012 323.313 280.104 323.313 268.288C323.313 262.043 324.61 256.568 327.204 251.86C329.894 247.057 333.16 242.878 337.003 239.323C340.942 235.577 344.832 232.551 348.675 230.245C352.518 227.939 356.12 225.634 359.483 223.328C364.286 220.542 368.321 217.468 371.587 214.106C374.853 210.743 376.487 207.429 376.487 204.163C376.487 201.377 375.19 199.984 372.596 199.984C362.989 199.984 349.54 209.254 332.247 227.795C324.178 236.441 317.597 244.367 312.506 251.572C307.51 258.681 302.178 265.934 296.51 273.331C289.017 281.785 282.34 286.012 276.48 286.012Z" fill="white"/>
<path d="M228.923 286.013C221.045 286.013 215.618 284.044 212.639 280.105C209.757 276.166 208.316 271.363 208.316 265.695C208.316 260.987 208.989 256.184 210.334 251.285C211.775 246.289 213.456 241.726 215.377 237.595C218.74 230.102 222.15 222.656 225.609 215.259C229.067 207.862 232.237 201.089 235.119 194.941L278.782 101.996C280.992 97.1922 284.306 94.07 288.725 92.629C293.144 91.188 297.179 91.3321 300.829 93.0613C304.576 94.6944 306.449 97.7206 306.449 102.14C306.449 103.869 306.017 105.694 305.153 107.616C304.384 109.537 303.375 111.602 302.126 113.812C298.668 120.344 294.249 128.943 288.869 139.606C283.585 150.27 277.725 162.278 271.289 175.631C264.276 190.33 258.368 202.674 253.564 212.665C248.857 222.56 244.438 231.927 240.307 240.765C239.25 242.975 238.193 245.569 237.137 248.547C236.176 251.429 235.696 254.023 235.696 256.328C235.696 259.498 237.089 261.083 239.875 261.083C242.949 261.083 247.032 259.835 252.123 257.337C257.311 254.743 262.691 251.525 268.263 247.682C273.931 243.935 279.406 240.045 284.69 236.01C289.974 231.879 294.873 227.892 299.388 224.049C300.926 222.801 302.751 222.176 304.864 222.176C309.283 222.176 311.493 224.626 311.493 229.525C311.493 231.543 310.821 233.8 309.476 236.298C308.131 238.796 305.777 241.246 302.415 243.647C296.266 249.315 290.07 254.695 283.826 259.787C277.677 264.782 271.481 269.249 265.236 273.188C259.088 277.031 252.94 280.105 246.791 282.41C240.643 284.812 234.687 286.013 228.923 286.013Z" fill="white"/>
<path d="M102.684 286.013C99.4177 286.013 95.5269 285.1 91.0118 283.275C86.4966 281.449 82.5098 278.423 79.0514 274.196C75.689 269.969 74.0078 264.301 74.0078 257.192C74.0078 251.236 75.3528 243.791 78.0426 234.857C80.7325 225.922 84.9595 217.132 90.7236 208.486C96.4876 199.648 103.837 192.299 112.771 186.439C121.801 180.578 132.225 177.648 144.041 177.648C148.268 177.648 151.967 178.177 155.137 179.234C158.307 180.29 160.997 181.443 163.207 182.692C164.455 183.461 165.608 184.277 166.665 185.142C167.818 185.91 168.875 186.775 169.835 187.736L174.879 185.286C176.32 184.613 177.809 184.037 179.346 183.557C180.979 182.98 182.372 182.692 183.525 182.692C187.175 182.692 190.154 183.701 192.459 185.718C194.765 187.736 195.918 189.945 195.918 192.347C195.918 193.115 195.87 193.644 195.773 193.932C195.101 196.622 193.852 200.32 192.027 205.028C190.298 209.735 188.424 214.971 186.407 220.735C184.389 226.307 182.66 231.686 181.219 236.874C179.874 242.062 179.202 246.337 179.202 249.699C179.202 252.581 179.682 254.983 180.643 256.904C181.603 258.729 183.237 259.642 185.542 259.642C188.328 259.642 192.075 258.057 196.782 254.887C201.489 251.62 206.341 247.778 211.336 243.359C214.026 240.957 216.812 238.411 219.694 235.721C222.576 232.935 225.506 230.005 228.484 226.931C230.022 225.682 231.511 225.058 232.952 225.058C234.873 225.058 236.458 226.018 237.707 227.94C239.052 229.765 239.724 231.831 239.724 234.136C239.724 236.826 238.812 239.084 236.986 240.909C233.144 244.463 229.205 248.258 225.17 252.293C221.135 256.328 215.563 261.275 208.454 267.135C202.114 272.323 195.581 276.79 188.857 280.537C182.132 284.187 176.08 286.013 170.7 286.013C163.975 286.013 159.076 283.419 156.001 278.231C152.927 272.947 151.39 267.328 151.39 261.371C151.39 257.048 152.015 253.206 153.264 249.843C149.325 255.127 144.666 260.603 139.286 266.271C133.906 271.843 128.094 276.55 121.849 280.393C115.605 284.139 109.217 286.013 102.684 286.013ZM114.212 260.651C117.286 260.651 121.129 258.681 125.74 254.743C130.448 250.804 134.963 246.193 139.286 240.909C144.089 235.145 147.884 229.909 150.67 225.202C153.456 220.495 154.849 217.324 154.849 215.691C154.849 212.041 152.735 209.159 148.508 207.045C144.281 204.836 140.487 203.731 137.124 203.731C131.168 203.731 125.5 205.652 120.12 209.495C114.837 213.338 110.513 218.285 107.151 224.337C103.789 230.293 102.108 236.49 102.108 242.926C102.108 246.673 102.78 250.564 104.125 254.599C105.566 258.633 108.928 260.651 114.212 260.651Z" fill="white"/>
<path d="M21.5488 286.012C13.9594 286.012 8.67571 284.139 5.69761 280.392C2.71952 276.646 1.23047 272.035 1.23047 266.559C1.23047 261.755 2.04704 256.76 3.68019 251.572C5.31334 246.384 7.13862 241.725 9.15604 237.594L26.0159 203.01H19.8195C14.4398 203.01 10.7412 202.145 8.72374 200.416C6.70632 198.687 5.69761 196.718 5.69761 194.508C5.69761 192.298 6.94649 189.801 9.44425 187.015C11.942 184.133 15.3524 182.692 19.6754 182.692H35.2384L65.6438 122.313C67.5651 118.663 69.9188 116.069 72.7047 114.532C75.5868 112.899 78.5649 112.082 81.639 112.082C84.5211 112.082 87.1629 112.851 89.5646 114.388C91.9663 115.925 93.1671 118.471 93.1671 122.025C93.1671 123.85 92.7348 125.724 91.8702 127.645C91.1017 129.47 90.0449 131.632 88.7 134.13C87.1629 137.012 85.0975 140.902 82.5036 145.802C79.9098 150.605 76.6915 156.417 72.8488 163.238L62.4735 182.692H109.451C114.062 182.692 117.808 183.316 120.69 184.565C123.669 185.718 125.158 188.36 125.158 192.491C125.158 194.604 124.389 196.67 122.852 198.687C121.315 200.704 118.001 201.905 112.909 202.289H52.9629L42.8758 222.464L33.9415 240.765C32.7887 243.07 31.6359 245.76 30.483 248.834C29.4263 251.812 28.8979 254.454 28.8979 256.76C28.8979 259.642 30.2429 261.083 32.9328 261.083C36.0069 261.083 40.1378 259.786 45.3255 257.192C50.5131 254.598 55.989 251.428 61.753 247.681C67.6132 243.935 73.2331 240.044 78.6129 236.009C83.9927 231.878 88.9402 227.891 93.4553 224.049C95.0885 222.992 96.5295 222.464 97.7784 222.464C99.8919 222.464 101.477 223.616 102.534 225.922C103.59 228.228 103.687 231.014 102.822 234.28C102.053 237.546 99.7958 240.668 96.0492 243.647C89.8048 249.315 83.4643 254.694 77.0278 259.786C70.6873 264.781 64.3949 269.249 58.1505 273.187C51.81 277.03 45.5657 280.104 39.4173 282.41C33.269 284.812 27.3128 286.012 21.5488 286.012Z" fill="white"/>
</svg>
