<svg width="446" height="287" viewBox="0 0 446 287" fill="none" xmlns="http://www.w3.org/2000/svg">
<path d="M358.994 285.539C357.657 285.539 356.578 285.334 355.756 284.923C355.036 284.512 354.574 283.946 354.368 283.227L336.637 213.382H322.298V176.377H336.637L354.368 118.559C354.574 117.736 355.036 117.171 355.756 116.863C356.578 116.451 357.657 116.246 358.994 116.246H398.002C400.572 116.246 401.857 117.531 401.857 120.1V136.444C401.857 137.883 401.754 139.014 401.548 139.836C401.343 140.658 401.034 141.532 400.623 142.457L377.804 195.034V200.276L401.857 259.328C402.371 260.459 402.731 261.487 402.936 262.412C403.142 263.234 403.244 264.159 403.244 265.187V281.685C403.244 284.255 401.96 285.539 399.39 285.539H358.994ZM277.276 285.539C274.707 285.539 273.422 284.255 273.422 281.685V83.8673C273.422 81.2976 274.707 80.0127 277.276 80.0127H318.443C321.013 80.0127 322.298 81.2976 322.298 83.8673V281.685C322.298 284.255 321.013 285.539 318.443 285.539H277.276Z" fill="white"/>
<path d="M219.089 285.539C216.519 285.539 215.234 284.255 215.234 281.685V83.8673C215.234 81.2976 216.519 80.0127 219.089 80.0127H260.256C262.826 80.0127 264.111 81.2976 264.111 83.8673V281.685C264.111 284.255 262.826 285.539 260.256 285.539H219.089Z" fill="white"/>
<path d="M119.492 285.539C117.128 285.539 115.072 284.666 113.325 282.918L82.4883 252.082C80.7409 250.437 79.8672 248.381 79.8672 245.914V155.563C79.8672 153.096 80.7409 151.04 82.4883 149.395L113.325 118.559C115.072 116.811 117.128 115.938 119.492 115.938H201.981C204.55 115.938 205.835 117.222 205.835 119.792V281.685C205.835 284.255 204.55 285.539 201.981 285.539H169.91C168.574 285.539 167.546 285.283 166.827 284.769C166.21 284.255 165.49 283.638 164.668 282.918L156.959 275.209L149.25 282.918C147.605 284.666 145.549 285.539 143.082 285.539H119.492ZM137.532 249.615H148.325C151.614 249.615 153.875 248.947 155.109 247.61C156.342 246.274 156.959 243.91 156.959 240.518V151.862H137.532C134.14 151.862 131.827 152.53 130.594 153.867C129.36 155.203 128.743 157.567 128.743 160.959V240.518C128.743 243.91 129.36 246.274 130.594 247.61C131.827 248.947 134.14 249.615 137.532 249.615Z" fill="white"/>
<path d="M44.7132 285.539C42.3491 285.539 40.2933 284.665 38.5459 282.918L12.7972 257.323C11.1526 255.576 10.3303 253.52 10.3303 251.156V151.862H3.85459C1.28486 151.862 0 150.577 0 148.007V119.792C0 117.222 1.28486 115.937 3.85459 115.937H10.3303V96.6642C10.3303 94.0944 11.6152 92.8096 14.1849 92.8096H55.1977C57.7675 92.8096 59.0523 94.0944 59.0523 96.6642V115.937H74.0081C76.5779 115.937 77.8627 117.222 77.8627 119.792V148.007C77.8627 150.577 76.5779 151.862 74.0081 151.862H59.0523V234.196C59.0523 236.149 59.6691 237.742 60.9025 238.976L76.0125 254.24C77.0404 255.165 77.5544 256.707 77.5544 258.865V281.684C77.5544 284.254 76.2695 285.539 73.6998 285.539H44.7132Z" fill="white"/>
</svg>
