<svg width="446" height="287" viewBox="0 0 446 287" fill="none" xmlns="http://www.w3.org/2000/svg">
<path d="M309.68 283.325V69.7598H326.46V209.797L402.123 130.778H422.869L366.732 189.661L428.666 283.325L408.53 283.02L354.833 203.085L326.46 232.679V283.325H309.68Z" fill="white"/>
<path d="M253.359 283.325V69.7598H270.139V283.325H253.359Z" fill="white"/>
<path d="M145.553 286.376C118.4 286.376 93.9922 269.595 93.9922 240.307C93.9922 227.188 99.4838 214.984 108.942 207.357C119.01 199.424 132.129 195.458 149.519 193.932C169.045 192.102 199.859 188.746 199.859 170.44C199.859 150.914 181.249 141.762 160.807 141.762C136.4 141.762 120.23 153.965 117.179 174.712L99.7889 175.017C103.145 145.728 126.027 127.117 160.502 127.117C196.198 127.117 216.639 147.558 216.639 177.152V283.325H199.859V259.527C189.181 273.562 173.011 286.376 145.553 286.376ZM111.382 240.001C111.382 260.748 130.298 269.901 147.078 269.901C169.35 269.901 199.859 255.561 199.859 219.865V195.153C193.452 202.17 180.333 206.441 154.706 208.577C123.891 211.323 111.382 222.916 111.382 240.001Z" fill="white"/>
<path d="M58.8829 283.325C36.9162 283.325 22.882 269.596 22.882 244.883V146.338H0V130.779H22.882V88.6758H39.662V130.779H75.0528V146.338H39.662V244.883C39.662 259.833 47.8995 266.85 58.8829 266.85H75.663V283.325H58.8829Z" fill="white"/>
</svg>
