<svg width="446" height="287" viewBox="0 0 446 287" fill="none" xmlns="http://www.w3.org/2000/svg">
<path d="M321.117 85.0127H361.251V125.147H321.117V85.0127ZM321.117 125.147H361.251V165.28H321.117V125.147ZM321.117 165.28H361.251V205.414H321.117V165.28ZM321.117 205.414H361.251V245.548H321.117V205.414ZM321.117 245.548H361.251V285.682H321.117V245.548ZM361.251 165.28H401.385V205.414H361.251V165.28ZM401.385 125.147H441.519V165.28H401.385V125.147ZM401.385 205.414H441.519V245.548H401.385V205.414ZM401.385 245.548H441.519V285.682H401.385V245.548Z" fill="white"/>
<path d="M254.172 85.0127H294.306V125.147H254.172V85.0127ZM254.172 125.147H294.306V165.28H254.172V125.147ZM254.172 165.28H294.306V205.414H254.172V165.28ZM254.172 205.414H294.306V245.548H254.172V205.414ZM254.172 245.548H294.306V285.682H254.172V245.548Z" fill="white"/>
<path d="M187.307 125.146H227.44V165.28H187.307V125.146ZM187.307 165.28H227.44V205.414H187.307V165.28ZM187.307 205.414H227.44V245.548H187.307V205.414ZM187.307 245.548H227.44V285.682H187.307V245.548ZM147.173 125.146H187.307V165.28H147.173V125.146ZM147.173 245.548H187.307V285.682H147.173V245.548ZM107.039 165.28H147.173V205.414H107.039V165.28ZM107.039 205.414H147.173V245.548H107.039V205.414Z" fill="white"/>
<path d="M0 85.0127H40.1338V125.147H0V85.0127ZM0 125.147H40.1338V165.28H0V125.147ZM0 165.28H40.1338V205.414H0V165.28ZM0 205.414H40.1338V245.548H0V205.414ZM0 245.548H40.1338V285.682H0V245.548ZM40.1338 245.548H80.2676V285.682H40.1338V245.548ZM40.1338 125.147H80.2676V165.28H40.1338V125.147Z" fill="white"/>
</svg>
