<svg width="446" height="287" viewBox="0 0 446 287" fill="none" xmlns="http://www.w3.org/2000/svg">
<path d="M385.144 210.702L426.718 283.675H395.028L364.793 225.82L347.64 238.321L342.116 283.675H315.078L342.407 58.3604H369.735L351.128 209.539L418.577 160.406L433.986 174.942L385.144 210.702Z" fill="white"/>
<path d="M306.977 58.3604L279.358 283.675H252.32L279.649 58.3604H306.977Z" fill="white"/>
<path d="M231.434 163.313L216.897 283.675H189.569L191.894 264.487C187.049 270.108 180.265 275.147 171.543 279.605C162.822 284.063 152.743 286.195 141.308 286.001C132.198 286.195 123.573 283.869 115.433 279.023C107.486 274.178 101.09 267.297 96.2448 258.382C91.3993 249.272 88.9766 239 88.9766 227.564C88.9766 216.517 91.69 205.663 97.117 195.003C102.544 184.149 110.297 175.33 120.375 168.547C130.648 161.763 142.568 158.371 156.135 158.371C177.843 158.371 193.057 166.705 201.779 183.374L206.431 163.313H231.434ZM198.29 210.702C197.128 201.98 193.057 194.809 186.08 189.188C179.102 183.568 170.671 180.757 160.786 180.757C150.902 180.757 142.664 183.083 136.075 187.735C129.679 192.386 124.93 198.104 121.829 204.888C118.728 211.477 117.177 217.97 117.177 224.366C117.177 235.996 120.763 245.493 127.934 252.858C135.299 260.223 144.7 263.906 156.135 263.906C165.051 263.906 173.094 261.289 180.265 256.056C187.437 250.823 192.573 243.651 195.674 234.542L198.29 210.702Z" fill="white"/>
<path d="M58.6395 110.4L51.9528 163.604H85.0958L82.4793 185.118H49.3362L37.4164 283.675H10.3786L22.2985 185.118H0.203125L2.81968 163.604H24.915L31.3111 110.4H58.6395Z" fill="white"/>
</svg>
