<svg width="446" height="287" viewBox="0 0 446 287" fill="none" xmlns="http://www.w3.org/2000/svg">
<path d="M349.383 70.0234V256.765C349.383 264.343 350.646 269.485 353.172 272.191C355.698 274.898 360.028 276.251 366.163 276.251V281.934C363.095 281.754 358.404 281.573 352.089 281.393C345.774 281.032 339.369 280.852 332.874 280.852C326.198 280.852 319.342 281.032 312.305 281.393C305.449 281.573 300.307 281.754 296.879 281.934V276.251C303.555 276.251 308.246 274.898 310.952 272.191C313.839 269.485 315.282 264.343 315.282 256.765V102.5C315.282 94.381 313.929 88.4269 311.223 84.638C308.697 80.6686 303.916 78.6839 296.879 78.6839V73.0005C302.653 73.5418 308.246 73.8124 313.659 73.8124C320.515 73.8124 326.92 73.5418 332.874 73.0005C338.828 72.2788 344.331 71.2864 349.383 70.0234ZM437.07 142.014V147.426C431.657 148.509 426.425 150.584 421.373 153.651C416.321 156.538 411.359 160.597 406.488 165.83L379.695 193.706L382.672 187.752L430.304 262.178C432.83 265.786 435.176 268.853 437.341 271.379C439.686 273.725 442.573 275.349 446.001 276.251V281.934C443.656 281.754 439.957 281.573 434.905 281.393C429.853 281.032 424.801 280.852 419.749 280.852C413.615 280.852 407.3 281.032 400.805 281.393C394.49 281.573 389.708 281.754 386.461 281.934V276.251C390.069 276.251 392.505 275.439 393.768 273.815C395.211 272.011 395.031 269.755 393.227 267.049L365.08 219.687C362.554 215.718 360.118 213.192 357.773 212.109C355.427 210.846 352.27 210.215 348.3 210.215V204.802C352.811 204.441 356.51 203.629 359.397 202.366C362.464 201.103 365.351 199.118 368.057 196.412L388.355 176.114C394.309 170.16 397.286 165.108 397.286 160.958C397.467 156.809 395.572 153.651 391.603 151.486C387.814 149.14 382.852 147.787 376.718 147.426V142.014C381.589 142.194 387.002 142.465 392.956 142.825C398.91 143.006 403.962 143.096 408.112 143.096C411.359 143.096 414.788 143.096 418.396 143.096C422.185 142.916 425.703 142.735 428.951 142.555C432.379 142.374 435.086 142.194 437.07 142.014Z" fill="white"/>
<path d="M274.781 70.0234V256.765C274.781 264.343 276.135 269.485 278.841 272.191C281.728 274.898 286.509 276.251 293.185 276.251V281.934C289.937 281.754 284.976 281.573 278.3 281.393C271.804 281.032 265.129 280.852 258.272 280.852C251.597 280.852 244.74 281.032 237.704 281.393C230.848 281.573 225.705 281.754 222.277 281.934V276.251C228.953 276.251 233.644 274.898 236.351 272.191C239.237 269.485 240.681 264.343 240.681 256.765V102.5C240.681 94.381 239.418 88.4269 236.892 84.638C234.366 80.6686 229.494 78.6839 222.277 78.6839V73.0005C228.051 73.5418 233.644 73.8124 239.057 73.8124C245.913 73.8124 252.318 73.5418 258.272 73.0005C264.226 72.2788 269.729 71.2864 274.781 70.0234Z" fill="white"/>
<path d="M131.413 283.829C123.655 283.829 117.069 282.385 111.656 279.498C106.244 276.431 102.184 272.372 99.4776 267.32C96.7712 262.087 95.418 256.314 95.418 249.999C95.418 242.24 97.2222 235.925 100.831 231.054C104.439 226.002 109.04 222.033 114.633 219.146C120.407 216.079 126.451 213.553 132.766 211.568C139.081 209.403 145.035 207.418 150.628 205.614C156.222 203.629 160.823 201.374 164.431 198.848C168.04 196.322 169.844 192.984 169.844 188.834V169.078C169.844 163.304 168.942 158.613 167.137 155.004C165.514 151.215 162.988 148.419 159.56 146.614C156.312 144.63 152.162 143.637 147.11 143.637C143.321 143.637 139.352 144.179 135.202 145.261C131.052 146.344 127.624 148.419 124.918 151.486C129.609 152.749 133.217 155.094 135.743 158.523C138.45 161.951 139.803 166.1 139.803 170.972C139.803 176.565 137.908 180.986 134.119 184.233C130.511 187.301 125.91 188.834 120.317 188.834C114.363 188.834 109.852 186.94 106.785 183.151C103.718 179.362 102.184 174.941 102.184 169.889C102.184 164.838 103.447 160.688 105.973 157.44C108.499 154.012 112.017 150.945 116.528 148.238C121.039 145.171 126.812 142.735 133.849 140.931C140.885 139.127 148.554 138.225 156.853 138.225C164.792 138.225 171.829 139.127 177.963 140.931C184.098 142.555 189.33 145.532 193.66 149.862C197.99 154.012 200.787 159.154 202.05 165.289C203.313 171.423 203.944 178.911 203.944 187.752V261.907C203.944 266.418 204.486 269.665 205.568 271.65C206.651 273.454 208.365 274.356 210.71 274.356C212.515 274.356 214.229 273.905 215.853 273.003C217.476 272.101 219.281 270.838 221.265 269.214L224.242 273.815C220.273 276.882 216.123 279.318 211.793 281.122C207.463 282.927 202.23 283.829 196.096 283.829C189.781 283.829 184.729 282.927 180.94 281.122C177.332 279.318 174.625 276.702 172.821 273.274C171.197 269.846 170.295 265.786 170.114 261.095C165.784 268.312 160.462 273.905 154.147 277.875C147.832 281.844 140.254 283.829 131.413 283.829ZM147.651 268.673C151.982 268.673 155.951 267.5 159.56 265.155C163.349 262.809 166.777 259.291 169.844 254.6V199.93C168.04 202.637 165.423 205.073 161.995 207.238C158.748 209.403 155.229 211.568 151.44 213.733C147.651 215.898 144.043 218.424 140.615 221.311C137.367 224.017 134.571 227.445 132.225 231.595C130.06 235.565 128.977 240.707 128.977 247.022C128.977 254.058 130.691 259.471 134.119 263.26C137.548 266.869 142.058 268.673 147.651 268.673Z" fill="white"/>
<path d="M57.9169 97.6289V142.284H92.5587V147.697H57.9169V255.412C57.9169 261.907 59.0896 266.508 61.4352 269.214C63.7807 271.921 67.1186 273.274 71.4488 273.274C75.5987 273.274 79.3876 271.74 82.8157 268.673C86.2438 265.425 89.3111 260.103 92.0175 252.705L96.889 254.87C94.1826 263.711 89.9425 271.109 84.1689 277.063C78.5757 282.837 70.6369 285.723 60.3526 285.723C54.2181 285.723 48.9858 284.911 44.6555 283.288C40.5057 281.844 36.8972 279.679 33.8299 276.792C29.8606 272.642 27.1542 267.681 25.7108 261.907C24.4478 256.133 23.8163 248.465 23.8163 238.903V147.697H0V142.284H23.8163V104.666C30.3116 104.485 36.3559 103.854 41.9491 102.771C47.5423 101.688 52.8649 99.9745 57.9169 97.6289Z" fill="white"/>
</svg>
