<svg width="446" height="287" viewBox="0 0 446 287" fill="none" xmlns="http://www.w3.org/2000/svg">
<path d="M340.88 285.722L340.589 286.012H340.298C338.554 286.012 336.906 285.818 335.356 285.431C333.999 284.849 332.739 284.171 331.576 283.396C330.413 282.427 329.347 281.361 328.378 280.198C327.603 279.035 326.925 277.775 326.343 276.418C325.956 274.868 325.762 273.22 325.762 271.476V271.185L326.052 270.894H340.88V285.722ZM339.717 285.722V270.894H354.544L354.835 271.185V271.476C354.835 273.22 354.544 274.868 353.962 276.418C353.575 277.775 352.896 279.035 351.927 280.198C351.152 281.361 350.183 282.427 349.02 283.396C347.857 284.171 346.5 284.849 344.95 285.431C343.593 285.818 342.042 286.012 340.298 286.012H340.007L339.717 285.722ZM339.717 257.23L340.007 256.939H340.298C342.042 256.939 343.593 257.23 344.95 257.812C346.5 258.199 347.857 258.878 349.02 259.847C350.183 260.622 351.152 261.591 351.927 262.754C352.896 263.917 353.575 265.274 353.962 266.824C354.544 268.181 354.835 269.731 354.835 271.476V271.767L354.544 272.057H339.717V257.23ZM340.88 257.23V272.057H326.052L325.762 271.767V271.476C325.762 269.731 325.956 268.181 326.343 266.824C326.925 265.274 327.603 263.917 328.378 262.754C329.347 261.591 330.413 260.622 331.576 259.847C332.739 258.878 333.999 258.199 335.356 257.812C336.906 257.23 338.554 256.939 340.298 256.939H340.589L340.88 257.23ZM340.88 256.649L340.589 256.939H340.298C338.554 256.939 336.906 256.746 335.356 256.358C333.999 255.776 332.739 255.098 331.576 254.323C330.413 253.354 329.347 252.288 328.378 251.125C327.603 249.962 326.925 248.702 326.343 247.345C325.956 245.795 325.762 244.147 325.762 242.403V242.112L326.052 241.822H340.88V256.649ZM339.717 256.649V241.822H354.544L354.835 242.112V242.403C354.835 244.147 354.544 245.795 353.962 247.345C353.575 248.702 352.896 249.962 351.927 251.125C351.152 252.288 350.183 253.354 349.02 254.323C347.857 255.098 346.5 255.776 344.95 256.358C343.593 256.746 342.042 256.939 340.298 256.939H340.007L339.717 256.649ZM339.717 228.157L340.007 227.867H340.298C342.042 227.867 343.593 228.157 344.95 228.739C346.5 229.126 347.857 229.805 349.02 230.774C350.183 231.549 351.152 232.518 351.927 233.681C352.896 234.844 353.575 236.201 353.962 237.751C354.544 239.108 354.835 240.659 354.835 242.403V242.694L354.544 242.984H339.717V228.157ZM340.88 228.157V242.984H326.052L325.762 242.694V242.403C325.762 240.659 325.956 239.108 326.343 237.751C326.925 236.201 327.603 234.844 328.378 233.681C329.347 232.518 330.413 231.549 331.576 230.774C332.739 229.805 333.999 229.126 335.356 228.739C336.906 228.157 338.554 227.867 340.298 227.867H340.589L340.88 228.157ZM340.88 227.576L340.589 227.867H340.298C338.554 227.867 336.906 227.673 335.356 227.285C333.999 226.704 332.739 226.025 331.576 225.25C330.413 224.281 329.347 223.215 328.378 222.052C327.603 220.889 326.925 219.629 326.343 218.273C325.956 216.722 325.762 215.075 325.762 213.33V213.039L326.052 212.749H340.88V227.576ZM339.717 227.576V212.749H354.544L354.835 213.039V213.33C354.835 215.075 354.544 216.722 353.962 218.273C353.575 219.629 352.896 220.889 351.927 222.052C351.152 223.215 350.183 224.281 349.02 225.25C347.857 226.025 346.5 226.704 344.95 227.285C343.593 227.673 342.042 227.867 340.298 227.867H340.007L339.717 227.576ZM339.717 199.084L340.007 198.794H340.298C342.042 198.794 343.593 199.084 344.95 199.666C346.5 200.054 347.857 200.732 349.02 201.701C350.183 202.476 351.152 203.445 351.927 204.608C352.896 205.771 353.575 207.128 353.962 208.678C354.544 210.035 354.835 211.586 354.835 213.33V213.621L354.544 213.912H339.717V199.084ZM340.88 199.084V213.912H326.052L325.762 213.621V213.33C325.762 211.586 325.956 210.035 326.343 208.678C326.925 207.128 327.603 205.771 328.378 204.608C329.347 203.445 330.413 202.476 331.576 201.701C332.739 200.732 333.999 200.054 335.356 199.666C336.906 199.084 338.554 198.794 340.298 198.794H340.589L340.88 199.084ZM340.88 198.503L340.589 198.794H340.298C338.554 198.794 336.906 198.6 335.356 198.212C333.999 197.631 332.739 196.952 331.576 196.177C330.413 195.208 329.347 194.142 328.378 192.979C327.603 191.816 326.925 190.556 326.343 189.2C325.956 187.649 325.762 186.002 325.762 184.257V183.967L326.052 183.676H340.88V198.503ZM339.717 198.503V183.676H354.544L354.835 183.967V184.257C354.835 186.002 354.544 187.649 353.962 189.2C353.575 190.556 352.896 191.816 351.927 192.979C351.152 194.142 350.183 195.208 349.02 196.177C347.857 196.952 346.5 197.631 344.95 198.212C343.593 198.6 342.042 198.794 340.298 198.794H340.007L339.717 198.503ZM339.717 170.012L340.007 169.721H340.298C342.042 169.721 343.593 170.012 344.95 170.593C346.5 170.981 347.857 171.659 349.02 172.628C350.183 173.403 351.152 174.373 351.927 175.535C352.896 176.698 353.575 178.055 353.962 179.606C354.544 180.962 354.835 182.513 354.835 184.257V184.548L354.544 184.839H339.717V170.012ZM340.88 170.012V184.839H326.052L325.762 184.548V184.257C325.762 182.513 325.956 180.962 326.343 179.606C326.925 178.055 327.603 176.698 328.378 175.535C329.347 174.373 330.413 173.403 331.576 172.628C332.739 171.659 333.999 170.981 335.356 170.593C336.906 170.012 338.554 169.721 340.298 169.721H340.589L340.88 170.012ZM340.88 169.43L340.589 169.721H340.298C338.554 169.721 336.906 169.527 335.356 169.139C333.999 168.558 332.739 167.88 331.576 167.104C330.413 166.135 329.347 165.069 328.378 163.906C327.603 162.743 326.925 161.484 326.343 160.127C325.956 158.576 325.762 156.929 325.762 155.184V154.894L326.052 154.603H340.88V169.43ZM339.717 169.43V154.603H354.544L354.835 154.894V155.184C354.835 156.929 354.544 158.576 353.962 160.127C353.575 161.484 352.896 162.743 351.927 163.906C351.152 165.069 350.183 166.135 349.02 167.104C347.857 167.88 346.5 168.558 344.95 169.139C343.593 169.527 342.042 169.721 340.298 169.721H340.007L339.717 169.43ZM339.717 140.939L340.007 140.648H340.298C342.042 140.648 343.593 140.939 344.95 141.52C346.5 141.908 347.857 142.586 349.02 143.555C350.183 144.331 351.152 145.3 351.927 146.463C352.896 147.626 353.575 148.982 353.962 150.533C354.544 151.89 354.835 153.44 354.835 155.184V155.475L354.544 155.766H339.717V140.939ZM340.88 140.939V155.766H326.052L325.762 155.475V155.184C325.762 153.44 325.956 151.89 326.343 150.533C326.925 148.982 327.603 147.626 328.378 146.463C329.347 145.3 330.413 144.331 331.576 143.555C332.739 142.586 333.999 141.908 335.356 141.52C336.906 140.939 338.554 140.648 340.298 140.648H340.589L340.88 140.939ZM340.88 140.357L340.589 140.648H340.298C338.554 140.648 336.906 140.454 335.356 140.067C333.999 139.485 332.739 138.807 331.576 138.031C330.413 137.062 329.347 135.996 328.378 134.833C327.603 133.671 326.925 132.411 326.343 131.054C325.956 129.503 325.762 127.856 325.762 126.112V125.821L326.052 125.53H340.88V140.357ZM339.717 140.357V125.53H354.544L354.835 125.821V126.112C354.835 127.856 354.544 129.503 353.962 131.054C353.575 132.411 352.896 133.671 351.927 134.833C351.152 135.996 350.183 137.062 349.02 138.031C347.857 138.807 346.5 139.485 344.95 140.067C343.593 140.454 342.042 140.648 340.298 140.648H340.007L339.717 140.357ZM339.717 111.866L340.007 111.575H340.298C342.042 111.575 343.593 111.866 344.95 112.447C346.5 112.835 347.857 113.513 349.02 114.482C350.183 115.258 351.152 116.227 351.927 117.39C352.896 118.553 353.575 119.909 353.962 121.46C354.544 122.817 354.835 124.367 354.835 126.112V126.402L354.544 126.693H339.717V111.866ZM340.88 111.866V126.693H326.052L325.762 126.402V126.112C325.762 124.367 325.956 122.817 326.343 121.46C326.925 119.909 327.603 118.553 328.378 117.39C329.347 116.227 330.413 115.258 331.576 114.482C332.739 113.513 333.999 112.835 335.356 112.447C336.906 111.866 338.554 111.575 340.298 111.575H340.589L340.88 111.866ZM369.952 227.576L369.662 227.867H369.371C367.627 227.867 365.979 227.673 364.429 227.285C363.072 226.704 361.812 226.025 360.649 225.25C359.486 224.281 358.42 223.215 357.451 222.052C356.676 220.889 355.997 219.629 355.416 218.273C355.028 216.722 354.835 215.075 354.835 213.33V213.039L355.125 212.749H369.952V227.576ZM368.79 227.576V212.749H383.617L383.907 213.039V213.33C383.907 215.075 383.617 216.722 383.035 218.273C382.648 219.629 381.969 220.889 381 222.052C380.225 223.215 379.256 224.281 378.093 225.25C376.93 226.025 375.573 226.704 374.023 227.285C372.666 227.673 371.115 227.867 369.371 227.867H369.08L368.79 227.576ZM368.79 199.084L369.08 198.794H369.371C371.115 198.794 372.666 199.084 374.023 199.666C375.573 200.054 376.93 200.732 378.093 201.701C379.256 202.476 380.225 203.445 381 204.608C381.969 205.771 382.648 207.128 383.035 208.678C383.617 210.035 383.907 211.586 383.907 213.33V213.621L383.617 213.912H368.79V199.084ZM369.952 199.084V213.912H355.125L354.835 213.621V213.33C354.835 211.586 355.028 210.035 355.416 208.678C355.997 207.128 356.676 205.771 357.451 204.608C358.42 203.445 359.486 202.476 360.649 201.701C361.812 200.732 363.072 200.054 364.429 199.666C365.979 199.084 367.627 198.794 369.371 198.794H369.662L369.952 199.084ZM399.025 256.649L398.735 256.939H398.444C396.699 256.939 395.052 256.746 393.501 256.358C392.145 255.776 390.885 255.098 389.722 254.323C388.559 253.354 387.493 252.288 386.524 251.125C385.749 249.962 385.07 248.702 384.489 247.345C384.101 245.795 383.907 244.147 383.907 242.403V242.112L384.198 241.822H399.025V256.649ZM397.862 256.649V241.822H412.69L412.98 242.112V242.403C412.98 244.147 412.69 245.795 412.108 247.345C411.72 248.702 411.042 249.962 410.073 251.125C409.298 252.288 408.329 253.354 407.166 254.323C406.003 255.098 404.646 255.776 403.095 256.358C401.739 256.746 400.188 256.939 398.444 256.939H398.153L397.862 256.649ZM397.862 228.157L398.153 227.867H398.444C400.188 227.867 401.739 228.157 403.095 228.739C404.646 229.126 406.003 229.805 407.166 230.774C408.329 231.549 409.298 232.518 410.073 233.681C411.042 234.844 411.72 236.201 412.108 237.751C412.69 239.108 412.98 240.659 412.98 242.403V242.694L412.69 242.984H397.862V228.157ZM399.025 228.157V242.984H384.198L383.907 242.694V242.403C383.907 240.659 384.101 239.108 384.489 237.751C385.07 236.201 385.749 234.844 386.524 233.681C387.493 232.518 388.559 231.549 389.722 230.774C390.885 229.805 392.145 229.126 393.501 228.739C395.052 228.157 396.699 227.867 398.444 227.867H398.735L399.025 228.157ZM399.025 198.503L398.735 198.794H398.444C396.699 198.794 395.052 198.6 393.501 198.212C392.145 197.631 390.885 196.952 389.722 196.177C388.559 195.208 387.493 194.142 386.524 192.979C385.749 191.816 385.07 190.556 384.489 189.2C384.101 187.649 383.907 186.002 383.907 184.257V183.967L384.198 183.676H399.025V198.503ZM397.862 198.503V183.676H412.69L412.98 183.967V184.257C412.98 186.002 412.69 187.649 412.108 189.2C411.72 190.556 411.042 191.816 410.073 192.979C409.298 194.142 408.329 195.208 407.166 196.177C406.003 196.952 404.646 197.631 403.095 198.212C401.739 198.6 400.188 198.794 398.444 198.794H398.153L397.862 198.503ZM397.862 170.012L398.153 169.721H398.444C400.188 169.721 401.739 170.012 403.095 170.593C404.646 170.981 406.003 171.659 407.166 172.628C408.329 173.403 409.298 174.373 410.073 175.535C411.042 176.698 411.72 178.055 412.108 179.606C412.69 180.962 412.98 182.513 412.98 184.257V184.548L412.69 184.839H397.862V170.012ZM399.025 170.012V184.839H384.198L383.907 184.548V184.257C383.907 182.513 384.101 180.962 384.489 179.606C385.07 178.055 385.749 176.698 386.524 175.535C387.493 174.373 388.559 173.403 389.722 172.628C390.885 171.659 392.145 170.981 393.501 170.593C395.052 170.012 396.699 169.721 398.444 169.721H398.735L399.025 170.012ZM428.098 285.722L427.807 286.012H427.517C425.772 286.012 424.125 285.818 422.574 285.431C421.218 284.849 419.958 284.171 418.795 283.396C417.632 282.427 416.566 281.361 415.597 280.198C414.822 279.035 414.143 277.775 413.562 276.418C413.174 274.868 412.98 273.22 412.98 271.476V271.185L413.271 270.894H428.098V285.722ZM426.935 285.722V270.894H441.762L442.053 271.185V271.476C442.053 273.22 441.762 274.868 441.181 276.418C440.793 277.775 440.115 279.035 439.146 280.198C438.371 281.361 437.401 282.427 436.239 283.396C435.076 284.171 433.719 284.849 432.168 285.431C430.812 285.818 429.261 286.012 427.517 286.012H427.226L426.935 285.722ZM426.935 257.23L427.226 256.939H427.517C429.261 256.939 430.812 257.23 432.168 257.812C433.719 258.199 435.076 258.878 436.239 259.847C437.401 260.622 438.371 261.591 439.146 262.754C440.115 263.917 440.793 265.274 441.181 266.824C441.762 268.181 442.053 269.731 442.053 271.476V271.767L441.762 272.057H426.935V257.23ZM428.098 257.23V272.057H413.271L412.98 271.767V271.476C412.98 269.731 413.174 268.181 413.562 266.824C414.143 265.274 414.822 263.917 415.597 262.754C416.566 261.591 417.632 260.622 418.795 259.847C419.958 258.878 421.218 258.199 422.574 257.812C424.125 257.23 425.772 256.939 427.517 256.939H427.807L428.098 257.23ZM428.098 169.43L427.807 169.721H427.517C425.772 169.721 424.125 169.527 422.574 169.139C421.218 168.558 419.958 167.88 418.795 167.104C417.632 166.135 416.566 165.069 415.597 163.906C414.822 162.743 414.143 161.484 413.562 160.127C413.174 158.576 412.98 156.929 412.98 155.184V154.894L413.271 154.603H428.098V169.43ZM426.935 169.43V154.603H441.762L442.053 154.894V155.184C442.053 156.929 441.762 158.576 441.181 160.127C440.793 161.484 440.115 162.743 439.146 163.906C438.371 165.069 437.401 166.135 436.239 167.104C435.076 167.88 433.719 168.558 432.168 169.139C430.812 169.527 429.261 169.721 427.517 169.721H427.226L426.935 169.43ZM426.935 140.939L427.226 140.648H427.517C429.261 140.648 430.812 140.939 432.168 141.52C433.719 141.908 435.076 142.586 436.239 143.555C437.401 144.331 438.371 145.3 439.146 146.463C440.115 147.626 440.793 148.982 441.181 150.533C441.762 151.89 442.053 153.44 442.053 155.184V155.475L441.762 155.766H426.935V140.939ZM428.098 140.939V155.766H413.271L412.98 155.475V155.184C412.98 153.44 413.174 151.89 413.562 150.533C414.143 148.982 414.822 147.626 415.597 146.463C416.566 145.3 417.632 144.331 418.795 143.555C419.958 142.586 421.218 141.908 422.574 141.52C424.125 140.939 425.772 140.648 427.517 140.648H427.807L428.098 140.939Z" fill="white"/>
<path d="M300.122 285.722L299.831 286.012H299.54C297.796 286.012 296.148 285.818 294.598 285.431C293.241 284.849 291.981 284.171 290.818 283.396C289.656 282.427 288.59 281.361 287.62 280.198C286.845 279.035 286.167 277.775 285.585 276.418C285.198 274.868 285.004 273.22 285.004 271.476V271.185L285.295 270.894H300.122V285.722ZM298.959 285.722V270.894H313.786L314.077 271.185V271.476C314.077 273.22 313.786 274.868 313.205 276.418C312.817 277.775 312.139 279.035 311.169 280.198C310.394 281.361 309.425 282.427 308.262 283.396C307.099 284.171 305.743 284.849 304.192 285.431C302.835 285.818 301.285 286.012 299.54 286.012H299.25L298.959 285.722ZM298.959 257.23L299.25 256.939H299.54C301.285 256.939 302.835 257.23 304.192 257.812C305.743 258.199 307.099 258.878 308.262 259.847C309.425 260.622 310.394 261.591 311.169 262.754C312.139 263.917 312.817 265.274 313.205 266.824C313.786 268.181 314.077 269.731 314.077 271.476V271.767L313.786 272.057H298.959V257.23ZM300.122 257.23V272.057H285.295L285.004 271.767V271.476C285.004 269.731 285.198 268.181 285.585 266.824C286.167 265.274 286.845 263.917 287.62 262.754C288.59 261.591 289.656 260.622 290.818 259.847C291.981 258.878 293.241 258.199 294.598 257.812C296.148 257.23 297.796 256.939 299.54 256.939H299.831L300.122 257.23ZM300.122 256.649L299.831 256.939H299.54C297.796 256.939 296.148 256.746 294.598 256.358C293.241 255.776 291.981 255.098 290.818 254.323C289.656 253.354 288.59 252.288 287.62 251.125C286.845 249.962 286.167 248.702 285.585 247.345C285.198 245.795 285.004 244.147 285.004 242.403V242.112L285.295 241.822H300.122V256.649ZM298.959 256.649V241.822H313.786L314.077 242.112V242.403C314.077 244.147 313.786 245.795 313.205 247.345C312.817 248.702 312.139 249.962 311.169 251.125C310.394 252.288 309.425 253.354 308.262 254.323C307.099 255.098 305.743 255.776 304.192 256.358C302.835 256.746 301.285 256.939 299.54 256.939H299.25L298.959 256.649ZM298.959 228.157L299.25 227.867H299.54C301.285 227.867 302.835 228.157 304.192 228.739C305.743 229.126 307.099 229.805 308.262 230.774C309.425 231.549 310.394 232.518 311.169 233.681C312.139 234.844 312.817 236.201 313.205 237.751C313.786 239.108 314.077 240.659 314.077 242.403V242.694L313.786 242.984H298.959V228.157ZM300.122 228.157V242.984H285.295L285.004 242.694V242.403C285.004 240.659 285.198 239.108 285.585 237.751C286.167 236.201 286.845 234.844 287.62 233.681C288.59 232.518 289.656 231.549 290.818 230.774C291.981 229.805 293.241 229.126 294.598 228.739C296.148 228.157 297.796 227.867 299.54 227.867H299.831L300.122 228.157ZM300.122 227.576L299.831 227.867H299.54C297.796 227.867 296.148 227.673 294.598 227.285C293.241 226.704 291.981 226.025 290.818 225.25C289.656 224.281 288.59 223.215 287.62 222.052C286.845 220.889 286.167 219.629 285.585 218.273C285.198 216.722 285.004 215.075 285.004 213.33V213.039L285.295 212.749H300.122V227.576ZM298.959 227.576V212.749H313.786L314.077 213.039V213.33C314.077 215.075 313.786 216.722 313.205 218.273C312.817 219.629 312.139 220.889 311.169 222.052C310.394 223.215 309.425 224.281 308.262 225.25C307.099 226.025 305.743 226.704 304.192 227.285C302.835 227.673 301.285 227.867 299.54 227.867H299.25L298.959 227.576ZM298.959 199.084L299.25 198.794H299.54C301.285 198.794 302.835 199.084 304.192 199.666C305.743 200.054 307.099 200.732 308.262 201.701C309.425 202.476 310.394 203.445 311.169 204.608C312.139 205.771 312.817 207.128 313.205 208.678C313.786 210.035 314.077 211.586 314.077 213.33V213.621L313.786 213.912H298.959V199.084ZM300.122 199.084V213.912H285.295L285.004 213.621V213.33C285.004 211.586 285.198 210.035 285.585 208.678C286.167 207.128 286.845 205.771 287.62 204.608C288.59 203.445 289.656 202.476 290.818 201.701C291.981 200.732 293.241 200.054 294.598 199.666C296.148 199.084 297.796 198.794 299.54 198.794H299.831L300.122 199.084ZM300.122 198.503L299.831 198.794H299.54C297.796 198.794 296.148 198.6 294.598 198.212C293.241 197.631 291.981 196.952 290.818 196.177C289.656 195.208 288.59 194.142 287.62 192.979C286.845 191.816 286.167 190.556 285.585 189.2C285.198 187.649 285.004 186.002 285.004 184.257V183.967L285.295 183.676H300.122V198.503ZM298.959 198.503V183.676H313.786L314.077 183.967V184.257C314.077 186.002 313.786 187.649 313.205 189.2C312.817 190.556 312.139 191.816 311.169 192.979C310.394 194.142 309.425 195.208 308.262 196.177C307.099 196.952 305.743 197.631 304.192 198.212C302.835 198.6 301.285 198.794 299.54 198.794H299.25L298.959 198.503ZM298.959 170.012L299.25 169.721H299.54C301.285 169.721 302.835 170.012 304.192 170.593C305.743 170.981 307.099 171.659 308.262 172.628C309.425 173.403 310.394 174.373 311.169 175.535C312.139 176.698 312.817 178.055 313.205 179.606C313.786 180.962 314.077 182.513 314.077 184.257V184.548L313.786 184.839H298.959V170.012ZM300.122 170.012V184.839H285.295L285.004 184.548V184.257C285.004 182.513 285.198 180.962 285.585 179.606C286.167 178.055 286.845 176.698 287.62 175.535C288.59 174.373 289.656 173.403 290.818 172.628C291.981 171.659 293.241 170.981 294.598 170.593C296.148 170.012 297.796 169.721 299.54 169.721H299.831L300.122 170.012ZM300.122 169.43L299.831 169.721H299.54C297.796 169.721 296.148 169.527 294.598 169.139C293.241 168.558 291.981 167.88 290.818 167.104C289.656 166.135 288.59 165.069 287.62 163.906C286.845 162.743 286.167 161.484 285.585 160.127C285.198 158.576 285.004 156.929 285.004 155.184V154.894L285.295 154.603H300.122V169.43ZM298.959 169.43V154.603H313.786L314.077 154.894V155.184C314.077 156.929 313.786 158.576 313.205 160.127C312.817 161.484 312.139 162.743 311.169 163.906C310.394 165.069 309.425 166.135 308.262 167.104C307.099 167.88 305.743 168.558 304.192 169.139C302.835 169.527 301.285 169.721 299.54 169.721H299.25L298.959 169.43ZM298.959 140.939L299.25 140.648H299.54C301.285 140.648 302.835 140.939 304.192 141.52C305.743 141.908 307.099 142.586 308.262 143.555C309.425 144.331 310.394 145.3 311.169 146.463C312.139 147.626 312.817 148.982 313.205 150.533C313.786 151.89 314.077 153.44 314.077 155.184V155.475L313.786 155.766H298.959V140.939ZM300.122 140.939V155.766H285.295L285.004 155.475V155.184C285.004 153.44 285.198 151.89 285.585 150.533C286.167 148.982 286.845 147.626 287.62 146.463C288.59 145.3 289.656 144.331 290.818 143.555C291.981 142.586 293.241 141.908 294.598 141.52C296.148 140.939 297.796 140.648 299.54 140.648H299.831L300.122 140.939ZM300.122 140.357L299.831 140.648H299.54C297.796 140.648 296.148 140.454 294.598 140.067C293.241 139.485 291.981 138.807 290.818 138.031C289.656 137.062 288.59 135.996 287.62 134.833C286.845 133.671 286.167 132.411 285.585 131.054C285.198 129.503 285.004 127.856 285.004 126.112V125.821L285.295 125.53H300.122V140.357ZM298.959 140.357V125.53H313.786L314.077 125.821V126.112C314.077 127.856 313.786 129.503 313.205 131.054C312.817 132.411 312.139 133.671 311.169 134.833C310.394 135.996 309.425 137.062 308.262 138.031C307.099 138.807 305.743 139.485 304.192 140.067C302.835 140.454 301.285 140.648 299.54 140.648H299.25L298.959 140.357ZM298.959 111.866L299.25 111.575H299.54C301.285 111.575 302.835 111.866 304.192 112.447C305.743 112.835 307.099 113.513 308.262 114.482C309.425 115.258 310.394 116.227 311.169 117.39C312.139 118.553 312.817 119.909 313.205 121.46C313.786 122.817 314.077 124.367 314.077 126.112V126.402L313.786 126.693H298.959V111.866ZM300.122 111.866V126.693H285.295L285.004 126.402V126.112C285.004 124.367 285.198 122.817 285.585 121.46C286.167 119.909 286.845 118.553 287.62 117.39C288.59 116.227 289.656 115.258 290.818 114.482C291.981 113.513 293.241 112.835 294.598 112.447C296.148 111.866 297.796 111.575 299.54 111.575H299.831L300.122 111.866Z" fill="white"/>
<path d="M143.243 256.649L142.952 256.94H142.661C140.917 256.94 139.27 256.746 137.719 256.358C136.362 255.777 135.102 255.099 133.94 254.323C132.777 253.354 131.711 252.288 130.742 251.125C129.966 249.962 129.288 248.702 128.706 247.346C128.319 245.795 128.125 244.148 128.125 242.403V242.113L128.416 241.822H143.243V256.649ZM142.08 256.649V241.822H156.907L157.198 242.113V242.403C157.198 244.148 156.907 245.795 156.326 247.346C155.938 248.702 155.26 249.962 154.291 251.125C153.515 252.288 152.546 253.354 151.383 254.323C150.22 255.099 148.864 255.777 147.313 256.358C145.956 256.746 144.406 256.94 142.661 256.94H142.371L142.08 256.649ZM142.08 228.158L142.371 227.867H142.661C144.406 227.867 145.956 228.158 147.313 228.739C148.864 229.127 150.22 229.805 151.383 230.774C152.546 231.55 153.515 232.519 154.291 233.682C155.26 234.844 155.938 236.201 156.326 237.752C156.907 239.108 157.198 240.659 157.198 242.403V242.694L156.907 242.985H142.08V228.158ZM143.243 228.158V242.985H128.416L128.125 242.694V242.403C128.125 240.659 128.319 239.108 128.706 237.752C129.288 236.201 129.966 234.844 130.742 233.682C131.711 232.519 132.777 231.55 133.94 230.774C135.102 229.805 136.362 229.127 137.719 228.739C139.27 228.158 140.917 227.867 142.661 227.867H142.952L143.243 228.158ZM172.316 285.722L172.025 286.013H171.734C169.99 286.013 168.342 285.819 166.792 285.431C165.435 284.85 164.175 284.171 163.012 283.396C161.849 282.427 160.783 281.361 159.814 280.198C159.039 279.035 158.361 277.775 157.779 276.419C157.392 274.868 157.198 273.221 157.198 271.476V271.186L157.489 270.895H172.316V285.722ZM171.153 285.722V270.895H185.98L186.271 271.186V271.476C186.271 273.221 185.98 274.868 185.399 276.419C185.011 277.775 184.333 279.035 183.363 280.198C182.588 281.361 181.619 282.427 180.456 283.396C179.293 284.171 177.936 284.85 176.386 285.431C175.029 285.819 173.479 286.013 171.734 286.013H171.444L171.153 285.722ZM171.153 257.231L171.444 256.94H171.734C173.479 256.94 175.029 257.231 176.386 257.812C177.936 258.2 179.293 258.878 180.456 259.847C181.619 260.622 182.588 261.591 183.363 262.754C184.333 263.917 185.011 265.274 185.399 266.825C185.98 268.181 186.271 269.732 186.271 271.476V271.767L185.98 272.058H171.153V257.231ZM172.316 257.231V272.058H157.489L157.198 271.767V271.476C157.198 269.732 157.392 268.181 157.779 266.825C158.361 265.274 159.039 263.917 159.814 262.754C160.783 261.591 161.849 260.622 163.012 259.847C164.175 258.878 165.435 258.2 166.792 257.812C168.342 257.231 169.99 256.94 171.734 256.94H172.025L172.316 257.231ZM172.316 227.576L172.025 227.867H171.734C169.99 227.867 168.342 227.673 166.792 227.286C165.435 226.704 164.175 226.026 163.012 225.25C161.849 224.281 160.783 223.215 159.814 222.052C159.039 220.889 158.361 219.63 157.779 218.273C157.392 216.722 157.198 215.075 157.198 213.331V213.04L157.489 212.749H172.316V227.576ZM171.153 227.576V212.749H185.98L186.271 213.04V213.331C186.271 215.075 185.98 216.722 185.399 218.273C185.011 219.63 184.333 220.889 183.363 222.052C182.588 223.215 181.619 224.281 180.456 225.25C179.293 226.026 177.936 226.704 176.386 227.286C175.029 227.673 173.479 227.867 171.734 227.867H171.444L171.153 227.576ZM171.153 199.085L171.444 198.794H171.734C173.479 198.794 175.029 199.085 176.386 199.666C177.936 200.054 179.293 200.732 180.456 201.701C181.619 202.477 182.588 203.446 183.363 204.609C184.333 205.772 185.011 207.128 185.399 208.679C185.98 210.036 186.271 211.586 186.271 213.331V213.621L185.98 213.912H171.153V199.085ZM172.316 199.085V213.912H157.489L157.198 213.621V213.331C157.198 211.586 157.392 210.036 157.779 208.679C158.361 207.128 159.039 205.772 159.814 204.609C160.783 203.446 161.849 202.477 163.012 201.701C164.175 200.732 165.435 200.054 166.792 199.666C168.342 199.085 169.99 198.794 171.734 198.794H172.025L172.316 199.085ZM172.316 169.431L172.025 169.721H171.734C169.99 169.721 168.342 169.527 166.792 169.14C165.435 168.558 164.175 167.88 163.012 167.105C161.849 166.136 160.783 165.07 159.814 163.907C159.039 162.744 158.361 161.484 157.779 160.127C157.392 158.577 157.198 156.929 157.198 155.185V154.894L157.489 154.603H172.316V169.431ZM171.153 169.431V154.603H185.98L186.271 154.894V155.185C186.271 156.929 185.98 158.577 185.399 160.127C185.011 161.484 184.333 162.744 183.363 163.907C182.588 165.07 181.619 166.136 180.456 167.105C179.293 167.88 177.936 168.558 176.386 169.14C175.029 169.527 173.479 169.721 171.734 169.721H171.444L171.153 169.431ZM171.153 140.939L171.444 140.648H171.734C173.479 140.648 175.029 140.939 176.386 141.521C177.936 141.908 179.293 142.587 180.456 143.556C181.619 144.331 182.588 145.3 183.363 146.463C184.333 147.626 185.011 148.983 185.399 150.533C185.98 151.89 186.271 153.44 186.271 155.185V155.476L185.98 155.766H171.153V140.939ZM172.316 140.939V155.766H157.489L157.198 155.476V155.185C157.198 153.44 157.392 151.89 157.779 150.533C158.361 148.983 159.039 147.626 159.814 146.463C160.783 145.3 161.849 144.331 163.012 143.556C164.175 142.587 165.435 141.908 166.792 141.521C168.342 140.939 169.99 140.648 171.734 140.648H172.025L172.316 140.939ZM201.389 285.722L201.098 286.013H200.807C199.063 286.013 197.415 285.819 195.865 285.431C194.508 284.85 193.248 284.171 192.085 283.396C190.922 282.427 189.856 281.361 188.887 280.198C188.112 279.035 187.434 277.775 186.852 276.419C186.465 274.868 186.271 273.221 186.271 271.476V271.186L186.561 270.895H201.389V285.722ZM200.226 285.722V270.895H215.053L215.344 271.186V271.476C215.344 273.221 215.053 274.868 214.471 276.419C214.084 277.775 213.405 279.035 212.436 280.198C211.661 281.361 210.692 282.427 209.529 283.396C208.366 284.171 207.009 284.85 205.459 285.431C204.102 285.819 202.551 286.013 200.807 286.013H200.516L200.226 285.722ZM200.226 257.231L200.516 256.94H200.807C202.551 256.94 204.102 257.231 205.459 257.812C207.009 258.2 208.366 258.878 209.529 259.847C210.692 260.622 211.661 261.591 212.436 262.754C213.405 263.917 214.084 265.274 214.471 266.825C215.053 268.181 215.344 269.732 215.344 271.476V271.767L215.053 272.058H200.226V257.231ZM201.389 257.231V272.058H186.561L186.271 271.767V271.476C186.271 269.732 186.465 268.181 186.852 266.825C187.434 265.274 188.112 263.917 188.887 262.754C189.856 261.591 190.922 260.622 192.085 259.847C193.248 258.878 194.508 258.2 195.865 257.812C197.415 257.231 199.063 256.94 200.807 256.94H201.098L201.389 257.231ZM201.389 227.576L201.098 227.867H200.807C199.063 227.867 197.415 227.673 195.865 227.286C194.508 226.704 193.248 226.026 192.085 225.25C190.922 224.281 189.856 223.215 188.887 222.052C188.112 220.889 187.434 219.63 186.852 218.273C186.465 216.722 186.271 215.075 186.271 213.331V213.04L186.561 212.749H201.389V227.576ZM200.226 227.576V212.749H215.053L215.344 213.04V213.331C215.344 215.075 215.053 216.722 214.471 218.273C214.084 219.63 213.405 220.889 212.436 222.052C211.661 223.215 210.692 224.281 209.529 225.25C208.366 226.026 207.009 226.704 205.459 227.286C204.102 227.673 202.551 227.867 200.807 227.867H200.516L200.226 227.576ZM200.226 199.085L200.516 198.794H200.807C202.551 198.794 204.102 199.085 205.459 199.666C207.009 200.054 208.366 200.732 209.529 201.701C210.692 202.477 211.661 203.446 212.436 204.609C213.405 205.772 214.084 207.128 214.471 208.679C215.053 210.036 215.344 211.586 215.344 213.331V213.621L215.053 213.912H200.226V199.085ZM201.389 199.085V213.912H186.561L186.271 213.621V213.331C186.271 211.586 186.465 210.036 186.852 208.679C187.434 207.128 188.112 205.772 188.887 204.609C189.856 203.446 190.922 202.477 192.085 201.701C193.248 200.732 194.508 200.054 195.865 199.666C197.415 199.085 199.063 198.794 200.807 198.794H201.098L201.389 199.085ZM201.389 169.431L201.098 169.721H200.807C199.063 169.721 197.415 169.527 195.865 169.14C194.508 168.558 193.248 167.88 192.085 167.105C190.922 166.136 189.856 165.07 188.887 163.907C188.112 162.744 187.434 161.484 186.852 160.127C186.465 158.577 186.271 156.929 186.271 155.185V154.894L186.561 154.603H201.389V169.431ZM200.226 169.431V154.603H215.053L215.344 154.894V155.185C215.344 156.929 215.053 158.577 214.471 160.127C214.084 161.484 213.405 162.744 212.436 163.907C211.661 165.07 210.692 166.136 209.529 167.105C208.366 167.88 207.009 168.558 205.459 169.14C204.102 169.527 202.551 169.721 200.807 169.721H200.516L200.226 169.431ZM200.226 140.939L200.516 140.648H200.807C202.551 140.648 204.102 140.939 205.459 141.521C207.009 141.908 208.366 142.587 209.529 143.556C210.692 144.331 211.661 145.3 212.436 146.463C213.405 147.626 214.084 148.983 214.471 150.533C215.053 151.89 215.344 153.44 215.344 155.185V155.476L215.053 155.766H200.226V140.939ZM201.389 140.939V155.766H186.561L186.271 155.476V155.185C186.271 153.44 186.465 151.89 186.852 150.533C187.434 148.983 188.112 147.626 188.887 146.463C189.856 145.3 190.922 144.331 192.085 143.556C193.248 142.587 194.508 141.908 195.865 141.521C197.415 140.939 199.063 140.648 200.807 140.648H201.098L201.389 140.939ZM230.461 227.576L230.171 227.867H229.88C228.136 227.867 226.488 227.673 224.938 227.286C223.581 226.704 222.321 226.026 221.158 225.25C219.995 224.281 218.929 223.215 217.96 222.052C217.185 220.889 216.506 219.63 215.925 218.273C215.537 216.722 215.344 215.075 215.344 213.331V213.04L215.634 212.749H230.461V227.576ZM229.299 227.576V212.749H244.126L244.416 213.04V213.331C244.416 215.075 244.126 216.722 243.544 218.273C243.157 219.63 242.478 220.889 241.509 222.052C240.734 223.215 239.765 224.281 238.602 225.25C237.439 226.026 236.082 226.704 234.532 227.286C233.175 227.673 231.624 227.867 229.88 227.867H229.589L229.299 227.576ZM229.299 199.085L229.589 198.794H229.88C231.624 198.794 233.175 199.085 234.532 199.666C236.082 200.054 237.439 200.732 238.602 201.701C239.765 202.477 240.734 203.446 241.509 204.609C242.478 205.772 243.157 207.128 243.544 208.679C244.126 210.036 244.416 211.586 244.416 213.331V213.621L244.126 213.912H229.299V199.085ZM230.461 199.085V213.912H215.634L215.344 213.621V213.331C215.344 211.586 215.537 210.036 215.925 208.679C216.506 207.128 217.185 205.772 217.96 204.609C218.929 203.446 219.995 202.477 221.158 201.701C222.321 200.732 223.581 200.054 224.938 199.666C226.488 199.085 228.136 198.794 229.88 198.794H230.171L230.461 199.085ZM230.461 169.431L230.171 169.721H229.88C228.136 169.721 226.488 169.527 224.938 169.14C223.581 168.558 222.321 167.88 221.158 167.105C219.995 166.136 218.929 165.07 217.96 163.907C217.185 162.744 216.506 161.484 215.925 160.127C215.537 158.577 215.344 156.929 215.344 155.185V154.894L215.634 154.603H230.461V169.431ZM229.299 169.431V154.603H244.126L244.416 154.894V155.185C244.416 156.929 244.126 158.577 243.544 160.127C243.157 161.484 242.478 162.744 241.509 163.907C240.734 165.07 239.765 166.136 238.602 167.105C237.439 167.88 236.082 168.558 234.532 169.14C233.175 169.527 231.624 169.721 229.88 169.721H229.589L229.299 169.431ZM229.299 140.939L229.589 140.648H229.88C231.624 140.648 233.175 140.939 234.532 141.521C236.082 141.908 237.439 142.587 238.602 143.556C239.765 144.331 240.734 145.3 241.509 146.463C242.478 147.626 243.157 148.983 243.544 150.533C244.126 151.89 244.416 153.44 244.416 155.185V155.476L244.126 155.766H229.299V140.939ZM230.461 140.939V155.766H215.634L215.344 155.476V155.185C215.344 153.44 215.537 151.89 215.925 150.533C216.506 148.983 217.185 147.626 217.96 146.463C218.929 145.3 219.995 144.331 221.158 143.556C222.321 142.587 223.581 141.908 224.938 141.521C226.488 140.939 228.136 140.648 229.88 140.648H230.171L230.461 140.939ZM259.534 285.722L259.244 286.013H258.953C257.208 286.013 255.561 285.819 254.01 285.431C252.654 284.85 251.394 284.171 250.231 283.396C249.068 282.427 248.002 281.361 247.033 280.198C246.258 279.035 245.579 277.775 244.998 276.419C244.61 274.868 244.416 273.221 244.416 271.476V271.186L244.707 270.895H259.534V285.722ZM258.371 285.722V270.895H273.198L273.489 271.186V271.476C273.489 273.221 273.198 274.868 272.617 276.419C272.229 277.775 271.551 279.035 270.582 280.198C269.807 281.361 268.838 282.427 267.675 283.396C266.512 284.171 265.155 284.85 263.604 285.431C262.248 285.819 260.697 286.013 258.953 286.013H258.662L258.371 285.722ZM258.371 257.231L258.662 256.94H258.953C260.697 256.94 262.248 257.231 263.604 257.812C265.155 258.2 266.512 258.878 267.675 259.847C268.838 260.622 269.807 261.591 270.582 262.754C271.551 263.917 272.229 265.274 272.617 266.825C273.198 268.181 273.489 269.732 273.489 271.476V271.767L273.198 272.058H258.371V257.231ZM259.534 257.231V272.058H244.707L244.416 271.767V271.476C244.416 269.732 244.61 268.181 244.998 266.825C245.579 265.274 246.258 263.917 247.033 262.754C248.002 261.591 249.068 260.622 250.231 259.847C251.394 258.878 252.654 258.2 254.01 257.812C255.561 257.231 257.208 256.94 258.953 256.94H259.244L259.534 257.231ZM259.534 256.649L259.244 256.94H258.953C257.208 256.94 255.561 256.746 254.01 256.358C252.654 255.777 251.394 255.099 250.231 254.323C249.068 253.354 248.002 252.288 247.033 251.125C246.258 249.962 245.579 248.702 244.998 247.346C244.61 245.795 244.416 244.148 244.416 242.403V242.113L244.707 241.822H259.534V256.649ZM258.371 256.649V241.822H273.198L273.489 242.113V242.403C273.489 244.148 273.198 245.795 272.617 247.346C272.229 248.702 271.551 249.962 270.582 251.125C269.807 252.288 268.838 253.354 267.675 254.323C266.512 255.099 265.155 255.777 263.604 256.358C262.248 256.746 260.697 256.94 258.953 256.94H258.662L258.371 256.649ZM258.371 228.158L258.662 227.867H258.953C260.697 227.867 262.248 228.158 263.604 228.739C265.155 229.127 266.512 229.805 267.675 230.774C268.838 231.55 269.807 232.519 270.582 233.682C271.551 234.844 272.229 236.201 272.617 237.752C273.198 239.108 273.489 240.659 273.489 242.403V242.694L273.198 242.985H258.371V228.158ZM259.534 228.158V242.985H244.707L244.416 242.694V242.403C244.416 240.659 244.61 239.108 244.998 237.752C245.579 236.201 246.258 234.844 247.033 233.682C248.002 232.519 249.068 231.55 250.231 230.774C251.394 229.805 252.654 229.127 254.01 228.739C255.561 228.158 257.208 227.867 258.953 227.867H259.244L259.534 228.158ZM259.534 227.576L259.244 227.867H258.953C257.208 227.867 255.561 227.673 254.01 227.286C252.654 226.704 251.394 226.026 250.231 225.25C249.068 224.281 248.002 223.215 247.033 222.052C246.258 220.889 245.579 219.63 244.998 218.273C244.61 216.722 244.416 215.075 244.416 213.331V213.04L244.707 212.749H259.534V227.576ZM258.371 227.576V212.749H273.198L273.489 213.04V213.331C273.489 215.075 273.198 216.722 272.617 218.273C272.229 219.63 271.551 220.889 270.582 222.052C269.807 223.215 268.838 224.281 267.675 225.25C266.512 226.026 265.155 226.704 263.604 227.286C262.248 227.673 260.697 227.867 258.953 227.867H258.662L258.371 227.576ZM258.371 199.085L258.662 198.794H258.953C260.697 198.794 262.248 199.085 263.604 199.666C265.155 200.054 266.512 200.732 267.675 201.701C268.838 202.477 269.807 203.446 270.582 204.609C271.551 205.772 272.229 207.128 272.617 208.679C273.198 210.036 273.489 211.586 273.489 213.331V213.621L273.198 213.912H258.371V199.085ZM259.534 199.085V213.912H244.707L244.416 213.621V213.331C244.416 211.586 244.61 210.036 244.998 208.679C245.579 207.128 246.258 205.772 247.033 204.609C248.002 203.446 249.068 202.477 250.231 201.701C251.394 200.732 252.654 200.054 254.01 199.666C255.561 199.085 257.208 198.794 258.953 198.794H259.244L259.534 199.085ZM259.534 198.503L259.244 198.794H258.953C257.208 198.794 255.561 198.6 254.01 198.213C252.654 197.631 251.394 196.953 250.231 196.178C249.068 195.208 248.002 194.142 247.033 192.98C246.258 191.817 245.579 190.557 244.998 189.2C244.61 187.65 244.416 186.002 244.416 184.258V183.967L244.707 183.676H259.534V198.503ZM258.371 198.503V183.676H273.198L273.489 183.967V184.258C273.489 186.002 273.198 187.65 272.617 189.2C272.229 190.557 271.551 191.817 270.582 192.98C269.807 194.142 268.838 195.208 267.675 196.178C266.512 196.953 265.155 197.631 263.604 198.213C262.248 198.6 260.697 198.794 258.953 198.794H258.662L258.371 198.503ZM258.371 170.012L258.662 169.721H258.953C260.697 169.721 262.248 170.012 263.604 170.593C265.155 170.981 266.512 171.659 267.675 172.629C268.838 173.404 269.807 174.373 270.582 175.536C271.551 176.699 272.229 178.055 272.617 179.606C273.198 180.963 273.489 182.513 273.489 184.258V184.548L273.198 184.839H258.371V170.012ZM259.534 170.012V184.839H244.707L244.416 184.548V184.258C244.416 182.513 244.61 180.963 244.998 179.606C245.579 178.055 246.258 176.699 247.033 175.536C248.002 174.373 249.068 173.404 250.231 172.629C251.394 171.659 252.654 170.981 254.01 170.593C255.561 170.012 257.208 169.721 258.953 169.721H259.244L259.534 170.012Z" fill="white"/>
<path d="M15.321 169.43L15.0303 169.721H14.7395C12.9952 169.721 11.3477 169.527 9.79716 169.139C8.44043 168.558 7.18061 167.88 6.01769 167.104C4.85478 166.135 3.78878 165.069 2.81968 163.906C2.04441 162.743 1.36604 161.484 0.784582 160.127C0.396944 158.576 0.203125 156.929 0.203125 155.184V154.894L0.493853 154.603H15.321V169.43ZM14.1581 169.43V154.603H28.9852L29.276 154.894V155.184C29.276 156.929 28.9852 158.576 28.4038 160.127C28.0161 161.484 27.3378 162.743 26.3687 163.906C25.5934 165.069 24.6243 166.135 23.4614 167.104C22.2985 167.88 20.9418 168.558 19.3912 169.139C18.0345 169.527 16.4839 169.721 14.7395 169.721H14.4488L14.1581 169.43ZM14.1581 140.939L14.4488 140.648H14.7395C16.4839 140.648 18.0345 140.939 19.3912 141.52C20.9418 141.908 22.2985 142.586 23.4614 143.555C24.6243 144.331 25.5934 145.3 26.3687 146.463C27.3378 147.626 28.0161 148.982 28.4038 150.533C28.9852 151.89 29.276 153.44 29.276 155.184V155.475L28.9852 155.766H14.1581V140.939ZM15.321 140.939V155.766H0.493853L0.203125 155.475V155.184C0.203125 153.44 0.396944 151.89 0.784582 150.533C1.36604 148.982 2.04441 147.626 2.81968 146.463C3.78878 145.3 4.85478 144.331 6.01769 143.555C7.18061 142.586 8.44043 141.908 9.79716 141.52C11.3477 140.939 12.9952 140.648 14.7395 140.648H15.0303L15.321 140.939ZM44.3938 256.649L44.1031 256.939H43.8124C42.068 256.939 40.4206 256.746 38.87 256.358C37.5133 255.776 36.2535 255.098 35.0905 254.323C33.9276 253.354 32.8616 252.288 31.8925 251.125C31.1172 249.962 30.4389 248.702 29.8574 247.345C29.4698 245.795 29.276 244.147 29.276 242.403V242.112L29.5667 241.822H44.3938V256.649ZM43.2309 256.649V241.822H58.0581L58.3488 242.112V242.403C58.3488 244.147 58.0581 245.795 57.4766 247.345C57.089 248.702 56.4106 249.962 55.4415 251.125C54.6663 252.288 53.6972 253.354 52.5342 254.323C51.3713 255.098 50.0146 255.776 48.464 256.358C47.1073 256.746 45.5568 256.939 43.8124 256.939H43.5217L43.2309 256.649ZM43.2309 228.157L43.5217 227.867H43.8124C45.5568 227.867 47.1073 228.157 48.464 228.739C50.0146 229.126 51.3713 229.805 52.5342 230.774C53.6972 231.549 54.6663 232.518 55.4415 233.681C56.4106 234.844 57.089 236.201 57.4766 237.751C58.0581 239.108 58.3488 240.659 58.3488 242.403V242.694L58.0581 242.984H43.2309V228.157ZM44.3938 228.157V242.984H29.5667L29.276 242.694V242.403C29.276 240.659 29.4698 239.108 29.8574 237.751C30.4389 236.201 31.1172 234.844 31.8925 233.681C32.8616 232.518 33.9276 231.549 35.0905 230.774C36.2535 229.805 37.5133 229.126 38.87 228.739C40.4206 228.157 42.068 227.867 43.8124 227.867H44.1031L44.3938 228.157ZM44.3938 227.576L44.1031 227.867H43.8124C42.068 227.867 40.4206 227.673 38.87 227.285C37.5133 226.704 36.2535 226.025 35.0905 225.25C33.9276 224.281 32.8616 223.215 31.8925 222.052C31.1172 220.889 30.4389 219.629 29.8574 218.273C29.4698 216.722 29.276 215.075 29.276 213.33V213.039L29.5667 212.749H44.3938V227.576ZM43.2309 227.576V212.749H58.0581L58.3488 213.039V213.33C58.3488 215.075 58.0581 216.722 57.4766 218.273C57.089 219.629 56.4106 220.889 55.4415 222.052C54.6663 223.215 53.6972 224.281 52.5342 225.25C51.3713 226.025 50.0146 226.704 48.464 227.285C47.1073 227.673 45.5568 227.867 43.8124 227.867H43.5217L43.2309 227.576ZM43.2309 199.084L43.5217 198.794H43.8124C45.5568 198.794 47.1073 199.084 48.464 199.666C50.0146 200.054 51.3713 200.732 52.5342 201.701C53.6972 202.476 54.6663 203.445 55.4415 204.608C56.4106 205.771 57.089 207.128 57.4766 208.678C58.0581 210.035 58.3488 211.586 58.3488 213.33V213.621L58.0581 213.912H43.2309V199.084ZM44.3938 199.084V213.912H29.5667L29.276 213.621V213.33C29.276 211.586 29.4698 210.035 29.8574 208.678C30.4389 207.128 31.1172 205.771 31.8925 204.608C32.8616 203.445 33.9276 202.476 35.0905 201.701C36.2535 200.732 37.5133 200.054 38.87 199.666C40.4206 199.084 42.068 198.794 43.8124 198.794H44.1031L44.3938 199.084ZM44.3938 198.503L44.1031 198.794H43.8124C42.068 198.794 40.4206 198.6 38.87 198.212C37.5133 197.631 36.2535 196.952 35.0905 196.177C33.9276 195.208 32.8616 194.142 31.8925 192.979C31.1172 191.816 30.4389 190.556 29.8574 189.2C29.4698 187.649 29.276 186.002 29.276 184.257V183.967L29.5667 183.676H44.3938V198.503ZM43.2309 198.503V183.676H58.0581L58.3488 183.967V184.257C58.3488 186.002 58.0581 187.649 57.4766 189.2C57.089 190.556 56.4106 191.816 55.4415 192.979C54.6663 194.142 53.6972 195.208 52.5342 196.177C51.3713 196.952 50.0146 197.631 48.464 198.212C47.1073 198.6 45.5568 198.794 43.8124 198.794H43.5217L43.2309 198.503ZM43.2309 170.012L43.5217 169.721H43.8124C45.5568 169.721 47.1073 170.012 48.464 170.593C50.0146 170.981 51.3713 171.659 52.5342 172.628C53.6972 173.403 54.6663 174.373 55.4415 175.535C56.4106 176.698 57.089 178.055 57.4766 179.606C58.0581 180.962 58.3488 182.513 58.3488 184.257V184.548L58.0581 184.839H43.2309V170.012ZM44.3938 170.012V184.839H29.5667L29.276 184.548V184.257C29.276 182.513 29.4698 180.962 29.8574 179.606C30.4389 178.055 31.1172 176.698 31.8925 175.535C32.8616 174.373 33.9276 173.403 35.0905 172.628C36.2535 171.659 37.5133 170.981 38.87 170.593C40.4206 170.012 42.068 169.721 43.8124 169.721H44.1031L44.3938 170.012ZM44.3938 169.43L44.1031 169.721H43.8124C42.068 169.721 40.4206 169.527 38.87 169.139C37.5133 168.558 36.2535 167.88 35.0905 167.104C33.9276 166.135 32.8616 165.069 31.8925 163.906C31.1172 162.743 30.4389 161.484 29.8574 160.127C29.4698 158.576 29.276 156.929 29.276 155.184V154.894L29.5667 154.603H44.3938V169.43ZM43.2309 169.43V154.603H58.0581L58.3488 154.894V155.184C58.3488 156.929 58.0581 158.576 57.4766 160.127C57.089 161.484 56.4106 162.743 55.4415 163.906C54.6663 165.069 53.6972 166.135 52.5342 167.104C51.3713 167.88 50.0146 168.558 48.464 169.139C47.1073 169.527 45.5568 169.721 43.8124 169.721H43.5217L43.2309 169.43ZM43.2309 140.939L43.5217 140.648H43.8124C45.5568 140.648 47.1073 140.939 48.464 141.52C50.0146 141.908 51.3713 142.586 52.5342 143.555C53.6972 144.331 54.6663 145.3 55.4415 146.463C56.4106 147.626 57.089 148.982 57.4766 150.533C58.0581 151.89 58.3488 153.44 58.3488 155.184V155.475L58.0581 155.766H43.2309V140.939ZM44.3938 140.939V155.766H29.5667L29.276 155.475V155.184C29.276 153.44 29.4698 151.89 29.8574 150.533C30.4389 148.982 31.1172 147.626 31.8925 146.463C32.8616 145.3 33.9276 144.331 35.0905 143.555C36.2535 142.586 37.5133 141.908 38.87 141.52C40.4206 140.939 42.068 140.648 43.8124 140.648H44.1031L44.3938 140.939ZM44.3938 140.357L44.1031 140.648H43.8124C42.068 140.648 40.4206 140.454 38.87 140.067C37.5133 139.485 36.2535 138.807 35.0905 138.031C33.9276 137.062 32.8616 135.996 31.8925 134.833C31.1172 133.671 30.4389 132.411 29.8574 131.054C29.4698 129.503 29.276 127.856 29.276 126.112V125.821L29.5667 125.53H44.3938V140.357ZM43.2309 140.357V125.53H58.0581L58.3488 125.821V126.112C58.3488 127.856 58.0581 129.503 57.4766 131.054C57.089 132.411 56.4106 133.671 55.4415 134.833C54.6663 135.996 53.6972 137.062 52.5342 138.031C51.3713 138.807 50.0146 139.485 48.464 140.067C47.1073 140.454 45.5568 140.648 43.8124 140.648H43.5217L43.2309 140.357ZM43.2309 111.866L43.5217 111.575H43.8124C45.5568 111.575 47.1073 111.866 48.464 112.447C50.0146 112.835 51.3713 113.513 52.5342 114.482C53.6972 115.258 54.6663 116.227 55.4415 117.39C56.4106 118.553 57.089 119.909 57.4766 121.46C58.0581 122.817 58.3488 124.367 58.3488 126.112V126.402L58.0581 126.693H43.2309V111.866ZM44.3938 111.866V126.693H29.5667L29.276 126.402V126.112C29.276 124.367 29.4698 122.817 29.8574 121.46C30.4389 119.909 31.1172 118.553 31.8925 117.39C32.8616 116.227 33.9276 115.258 35.0905 114.482C36.2535 113.513 37.5133 112.835 38.87 112.447C40.4206 111.866 42.068 111.575 43.8124 111.575H44.1031L44.3938 111.866ZM73.4667 285.722L73.176 286.012H72.8852C71.1409 286.012 69.4934 285.818 67.9428 285.431C66.5861 284.849 65.3263 284.171 64.1634 283.396C63.0005 282.427 61.9345 281.361 60.9654 280.198C60.1901 279.035 59.5117 277.775 58.9303 276.418C58.5426 274.868 58.3488 273.22 58.3488 271.476V271.185L58.6395 270.894H73.4667V285.722ZM72.3038 285.722V270.894H87.1309L87.4217 271.185V271.476C87.4217 273.22 87.1309 274.868 86.5495 276.418C86.1618 277.775 85.4835 279.035 84.5144 280.198C83.7391 281.361 82.77 282.427 81.6071 283.396C80.4442 284.171 79.0874 284.849 77.5369 285.431C76.1802 285.818 74.6296 286.012 72.8852 286.012H72.5945L72.3038 285.722ZM72.3038 257.23L72.5945 256.939H72.8852C74.6296 256.939 76.1802 257.23 77.5369 257.812C79.0874 258.199 80.4442 258.878 81.6071 259.847C82.77 260.622 83.7391 261.591 84.5144 262.754C85.4835 263.917 86.1618 265.274 86.5495 266.824C87.1309 268.181 87.4217 269.731 87.4217 271.476V271.767L87.1309 272.057H72.3038V257.23ZM73.4667 257.23V272.057H58.6395L58.3488 271.767V271.476C58.3488 269.731 58.5426 268.181 58.9303 266.824C59.5117 265.274 60.1901 263.917 60.9654 262.754C61.9345 261.591 63.0005 260.622 64.1634 259.847C65.3263 258.878 66.5861 258.199 67.9428 257.812C69.4934 257.23 71.1409 256.939 72.8852 256.939H73.176L73.4667 257.23ZM73.4667 169.43L73.176 169.721H72.8852C71.1409 169.721 69.4934 169.527 67.9428 169.139C66.5861 168.558 65.3263 167.88 64.1634 167.104C63.0005 166.135 61.9345 165.069 60.9654 163.906C60.1901 162.743 59.5117 161.484 58.9303 160.127C58.5426 158.576 58.3488 156.929 58.3488 155.184V154.894L58.6395 154.603H73.4667V169.43ZM72.3038 169.43V154.603H87.1309L87.4217 154.894V155.184C87.4217 156.929 87.1309 158.576 86.5495 160.127C86.1618 161.484 85.4835 162.743 84.5144 163.906C83.7391 165.069 82.77 166.135 81.6071 167.104C80.4442 167.88 79.0874 168.558 77.5369 169.139C76.1802 169.527 74.6296 169.721 72.8852 169.721H72.5945L72.3038 169.43ZM72.3038 140.939L72.5945 140.648H72.8852C74.6296 140.648 76.1802 140.939 77.5369 141.52C79.0874 141.908 80.4442 142.586 81.6071 143.555C82.77 144.331 83.7391 145.3 84.5144 146.463C85.4835 147.626 86.1618 148.982 86.5495 150.533C87.1309 151.89 87.4217 153.44 87.4217 155.184V155.475L87.1309 155.766H72.3038V140.939ZM73.4667 140.939V155.766H58.6395L58.3488 155.475V155.184C58.3488 153.44 58.5426 151.89 58.9303 150.533C59.5117 148.982 60.1901 147.626 60.9654 146.463C61.9345 145.3 63.0005 144.331 64.1634 143.555C65.3263 142.586 66.5861 141.908 67.9428 141.52C69.4934 140.939 71.1409 140.648 72.8852 140.648H73.176L73.4667 140.939ZM102.54 285.722L102.249 286.012H101.958C100.214 286.012 98.5662 285.818 97.0157 285.431C95.659 284.849 94.3991 284.171 93.2362 283.396C92.0733 282.427 91.0073 281.361 90.0382 280.198C89.2629 279.035 88.5846 277.775 88.0031 276.418C87.6155 274.868 87.4217 273.22 87.4217 271.476V271.185L87.7124 270.894H102.54V285.722ZM101.377 285.722V270.894H116.204L116.494 271.185V271.476C116.494 273.22 116.204 274.868 115.622 276.418C115.235 277.775 114.556 279.035 113.587 280.198C112.812 281.361 111.843 282.427 110.68 283.396C109.517 284.171 108.16 284.849 106.61 285.431C105.253 285.818 103.702 286.012 101.958 286.012H101.667L101.377 285.722ZM101.377 257.23L101.667 256.939H101.958C103.702 256.939 105.253 257.23 106.61 257.812C108.16 258.199 109.517 258.878 110.68 259.847C111.843 260.622 112.812 261.591 113.587 262.754C114.556 263.917 115.235 265.274 115.622 266.824C116.204 268.181 116.494 269.731 116.494 271.476V271.767L116.204 272.057H101.377V257.23ZM102.54 257.23V272.057H87.7124L87.4217 271.767V271.476C87.4217 269.731 87.6155 268.181 88.0031 266.824C88.5846 265.274 89.2629 263.917 90.0382 262.754C91.0073 261.591 92.0733 260.622 93.2362 259.847C94.3991 258.878 95.659 258.199 97.0157 257.812C98.5662 257.23 100.214 256.939 101.958 256.939H102.249L102.54 257.23ZM102.54 169.43L102.249 169.721H101.958C100.214 169.721 98.5662 169.527 97.0157 169.139C95.659 168.558 94.3991 167.88 93.2362 167.104C92.0733 166.135 91.0073 165.069 90.0382 163.906C89.2629 162.743 88.5846 161.484 88.0031 160.127C87.6155 158.576 87.4217 156.929 87.4217 155.184V154.894L87.7124 154.603H102.54V169.43ZM101.377 169.43V154.603H116.204L116.494 154.894V155.184C116.494 156.929 116.204 158.576 115.622 160.127C115.235 161.484 114.556 162.743 113.587 163.906C112.812 165.069 111.843 166.135 110.68 167.104C109.517 167.88 108.16 168.558 106.61 169.139C105.253 169.527 103.702 169.721 101.958 169.721H101.667L101.377 169.43ZM101.377 140.939L101.667 140.648H101.958C103.702 140.648 105.253 140.939 106.61 141.52C108.16 141.908 109.517 142.586 110.68 143.555C111.843 144.331 112.812 145.3 113.587 146.463C114.556 147.626 115.235 148.982 115.622 150.533C116.204 151.89 116.494 153.44 116.494 155.184V155.475L116.204 155.766H101.377V140.939ZM102.54 140.939V155.766H87.7124L87.4217 155.475V155.184C87.4217 153.44 87.6155 151.89 88.0031 150.533C88.5846 148.982 89.2629 147.626 90.0382 146.463C91.0073 145.3 92.0733 144.331 93.2362 143.555C94.3991 142.586 95.659 141.908 97.0157 141.52C98.5662 140.939 100.214 140.648 101.958 140.648H102.249L102.54 140.939Z" fill="white"/>
</svg>
