<svg width="446" height="287" viewBox="0 0 446 287" fill="none" xmlns="http://www.w3.org/2000/svg">
<path d="M408.296 165.363C404.639 172.858 402.08 178.343 400.618 181.816C399.338 185.289 398.698 187.94 398.698 189.768C398.698 191.413 399.247 193.79 400.344 196.897C401.623 199.822 403.177 203.204 405.005 207.043C406.833 210.699 408.844 214.812 411.038 219.383C413.414 223.953 415.425 228.249 417.07 232.271C418.716 236.109 419.812 239.126 420.361 241.319C421.092 243.33 421.641 245.341 422.006 247.352C422.372 250.825 422.189 254.756 421.458 259.143C420.909 263.53 420.726 267.095 420.909 269.837C421.275 272.397 421.366 274.773 421.183 276.967C421.183 279.16 420.818 280.988 420.087 282.451C419.355 283.731 417.162 284.462 413.506 284.645C410.032 285.01 406.742 283.822 403.634 281.08C400.709 278.338 398.15 275.139 395.956 271.483C393.945 267.644 392.209 263.896 390.746 260.24C389.467 256.584 387.73 253.567 385.536 251.191C383.343 248.815 381.423 245.341 379.778 240.771C378.315 236.201 377.036 231.813 375.939 227.609C374.842 223.404 373.654 219.748 372.374 216.641C371.094 213.533 369.266 211.796 366.89 211.431C364.696 211.065 363.234 211.613 362.503 213.076C361.954 214.538 361.68 216.549 361.68 219.108C361.863 221.485 362.137 224.227 362.503 227.335C362.868 230.26 363.051 233.55 363.051 237.206C363.234 240.68 363.051 243.97 362.503 247.078C362.137 250.186 360.674 253.202 358.115 256.127C355.739 258.869 354.093 261.702 353.179 264.627C352.448 267.552 351.808 270.386 351.26 273.128C350.712 275.87 349.98 278.246 349.066 280.257C348.152 282.268 346.598 283.274 344.405 283.274C340.017 283.456 335.996 280.988 332.339 275.87C328.683 270.751 326.581 264.079 326.033 255.853C325.484 251.1 324.113 247.992 321.919 246.529C319.909 245.25 319.269 240.223 320 231.448C320.183 229.071 320.548 226.969 321.097 225.141C322.194 219.474 322.102 211.431 320.823 201.011C319.726 190.408 318.995 184.192 318.629 182.364C318.263 180.353 317.806 178.068 317.258 175.509C316.892 172.767 316.527 169.933 316.161 167.009C315.978 163.901 315.887 160.793 315.887 157.685C315.887 154.395 316.252 151.013 316.984 147.54C317.898 143.883 318.355 140.867 318.355 138.491C318.538 136.114 318.538 134.012 318.355 132.184C317.441 126.334 317.075 121.672 317.258 118.199C317.624 114.543 317.532 110.704 316.984 106.682C316.435 102.661 316.07 98.7302 315.887 94.8913C315.704 91.0524 315.978 87.579 316.709 84.4713C317.624 81.1808 319.269 78.8043 321.645 77.3419C324.205 75.8794 326.398 75.331 328.226 75.6966C330.054 75.8794 331.974 76.245 333.985 76.7934C340.017 78.4387 344.222 79.0785 346.598 78.7129C360.492 75.2396 366.067 84.1057 363.325 105.311C362.777 108.785 362.228 111.892 361.68 114.634C360.4 121.215 360.035 126.151 360.583 129.442C360.949 131.635 361.132 134.012 361.132 136.571C361.314 139.131 361.497 141.507 361.68 143.701C362.046 148.819 363.234 151.379 365.245 151.379C368.352 151.379 372.283 146.077 377.036 135.474C378.133 133.098 378.864 131.178 379.229 129.716C379.778 128.254 380.418 126.517 381.149 124.506C382.063 122.495 383.068 120.484 384.165 118.473C387.09 113.538 390.198 110.43 393.488 109.15C391.112 104.032 390.655 99.6443 392.117 95.9881C393.763 92.1492 395.042 89.3157 395.956 87.4876C396.87 85.6596 397.876 84.1971 398.972 83.1003C400.983 81.0894 403.908 80.6324 407.747 81.7292C411.769 82.8261 415.242 82.9175 418.167 82.0034C421.092 81.0894 423.926 80.1754 426.668 79.2613C429.593 78.1645 432.426 77.4333 435.168 77.0676C437.91 76.5192 440.195 77.0676 442.023 78.7129C444.034 80.3582 445.223 82.2776 445.588 84.4713C446.137 86.4822 446.137 88.6759 445.588 91.0524C444.491 95.9881 441.749 100.833 437.362 105.585C434.803 115.64 430.598 123.592 424.748 129.442C424.017 138.034 421.275 145.255 416.522 151.104C414.694 153.115 411.952 157.868 408.296 165.363Z" fill="white"/>
<path d="M316.358 241.045C317.272 242.325 317.637 243.97 317.455 245.981C317.455 247.809 317.272 249.728 316.906 251.739C316.723 253.75 316.815 256.035 317.18 258.594C317.546 260.971 317.82 263.347 318.003 265.724C318.369 267.917 318.552 270.02 318.552 272.031C318.552 274.041 317.912 275.778 316.632 277.241C315.535 278.52 313.799 279.617 311.422 280.531C309.046 281.445 306.395 282.085 303.47 282.451C296.706 282.999 290.856 281.994 285.921 279.434C281.35 277.058 276.963 276.327 272.758 277.241C268.737 278.155 265.538 279.069 263.161 279.983C260.967 280.714 258.317 281.445 255.209 282.176C252.284 282.908 249.359 283.182 246.434 282.999C243.509 282.999 241.041 281.445 239.031 278.337C237.02 275.047 235.923 271.299 235.74 267.095C235.557 262.89 236.197 258.594 237.66 254.207C239.122 249.82 239.67 244.884 239.305 239.4C238.939 233.733 238.574 228.98 238.208 225.141C237.842 221.119 237.842 217.646 238.208 214.721C239.122 207.774 238.299 202.93 235.74 200.188C233.729 197.811 232.724 195.069 232.724 191.961C232.724 188.671 232.815 186.02 232.998 184.009C233.181 181.998 233.821 180.262 234.917 178.799C236.014 177.337 236.654 176.149 236.837 175.234C237.203 174.138 237.203 172.31 236.837 169.75C235.374 159.33 234.826 151.287 235.192 145.62C235.74 139.953 235.649 135.108 234.917 131.087C234.369 126.882 234.278 123.5 234.643 120.941C235.009 118.199 234.826 115.914 234.095 114.086C233.364 112.258 233.089 110.978 233.272 110.247C233.638 109.333 233.638 108.144 233.272 106.682C232.907 105.037 232.541 103.3 232.175 101.472C231.079 95.9878 230.713 92.2402 231.079 90.2294C231.627 88.2185 232.541 85.9334 233.821 83.3741C235.283 80.632 237.02 78.9868 239.031 78.4383C241.041 77.8899 242.23 77.4329 242.595 77.0673C242.961 76.7017 243.875 76.2447 245.337 75.6962C249.176 74.5994 252.01 74.508 253.838 75.422C255.666 76.3361 257.311 76.8845 258.774 77.0673C260.236 77.0673 261.699 77.0673 263.161 77.0673C264.806 76.8845 266.36 76.6103 267.823 76.2447L271.113 75.6962C274.952 74.5994 277.877 74.7822 279.888 76.2447C281.168 77.5243 282.082 78.5297 282.63 79.261C283.178 79.9922 283.27 81.089 282.904 82.5515C282.539 84.0139 282.721 85.2022 283.453 86.1162C284.184 87.0303 284.458 88.4013 284.275 90.2294C284.092 91.8746 284.001 93.1543 284.001 94.0683C284.184 94.7995 284.367 95.6222 284.549 96.5362C284.915 98.3643 284.732 100.558 284.001 103.117C283.27 105.677 282.813 107.413 282.63 108.327C282.447 109.058 282.356 109.79 282.356 110.521C282.356 112.897 281.99 115.182 281.259 117.376C280.711 119.387 280.345 121.124 280.162 122.586C280.162 123.866 280.162 125.42 280.162 127.248V133.28C280.162 135.474 279.979 138.216 279.614 141.507C279.431 144.797 279.157 148.728 278.791 153.298C278.608 157.685 278.425 162.164 278.243 166.734C277.511 178.799 276.597 186.477 275.501 189.768C272.576 191.413 272.119 195.252 274.129 201.284L276.049 207.043C277.877 212.527 278.791 217.92 278.791 223.221C278.791 228.523 278.334 233.641 277.42 238.577C282.721 241.502 286.469 243.056 288.663 243.239C293.964 243.97 298.717 243.239 302.922 241.045C307.309 238.851 310.417 237.937 312.245 238.303C314.256 238.668 315.627 239.582 316.358 241.045Z" fill="white"/>
<path d="M137.769 285.741C135.941 286.29 133.839 286.107 131.462 285.193C129.268 284.462 127.715 282.999 126.801 280.806C125.887 278.429 125.247 275.778 124.881 272.853C124.698 269.746 124.698 266.455 124.881 262.982C125.064 259.509 125.155 256.127 125.155 252.836C125.155 245.524 123.967 240.862 121.591 238.851C116.655 235.195 114.644 225.872 115.558 210.882C116.472 202.29 117.477 195.435 118.574 190.316C120.402 181.907 121.225 174.778 121.042 168.928C121.042 163.078 121.225 158.508 121.591 155.217C122.139 151.927 122.687 149.185 123.236 146.991C123.967 144.797 124.79 142.512 125.704 140.136C126.618 137.759 127.44 133.829 128.172 128.345C130 114.634 131.645 106.134 133.107 102.843C135.118 98.2731 137.495 93.6115 140.237 88.8586C143.162 83.9228 145.538 80.6323 147.366 78.987C151.571 75.8793 157.604 75.6051 165.464 78.1644C171.314 80.1753 176.707 80.8151 181.643 80.0838C186.761 79.3526 190.6 79.0784 193.159 79.2612C195.902 79.2612 198.918 80.2667 202.208 82.2775C205.499 84.1056 208.058 86.3907 209.886 89.1328C211.714 91.6921 212.994 94.5256 213.725 97.6333C215.005 102.935 215.096 109.699 213.999 117.925C212.903 125.968 212.446 132.549 212.628 137.668C212.994 142.604 214.091 147.357 215.919 151.927C217.93 156.314 219.209 159.879 219.758 162.621C220.489 165.18 221.037 167.831 221.403 170.573C221.951 173.132 222.317 175.966 222.5 179.074C222.865 181.999 223.414 185.38 224.145 189.219C225.059 193.058 225.516 196.166 225.516 198.543C225.699 200.736 225.699 202.564 225.516 204.027C225.333 205.489 225.059 206.86 224.694 208.14C224.511 209.237 224.602 211.065 224.968 213.624C225.516 216.001 225.516 218.651 224.968 221.576C224.602 224.501 224.145 227.335 223.597 230.077C221.586 238.486 220.763 244.427 221.129 247.9C221.86 254.116 221.86 258.595 221.129 261.337C220.398 263.896 219.666 265.998 218.935 267.643C218.387 269.289 217.655 271.574 216.741 274.499C216.01 277.424 214.365 280.074 211.806 282.451C209.246 284.827 206.779 285.559 204.402 284.645C202.208 283.73 200.746 282.451 200.015 280.806C199.466 278.978 198.918 277.149 198.369 275.321C198.004 273.493 197.455 271.848 196.724 270.386C196.176 268.923 195.079 268.101 193.434 267.918C190.509 267.552 188.955 265.907 188.772 262.982C188.589 259.874 188.589 257.224 188.772 255.03C189.138 252.653 189.046 250.277 188.498 247.9C187.949 245.524 187.035 243.239 185.756 241.045C182.465 235.378 178.626 232.27 174.239 231.722C167.658 230.808 163.088 234.007 160.528 241.319C159.98 243.147 159.523 245.615 159.157 248.723C158.975 251.648 158.243 254.299 156.964 256.675C155.867 259.052 154.587 261.062 153.125 262.708C151.845 264.353 150.565 265.907 149.286 267.369C148.189 268.649 147.458 270.294 147.092 272.305C145.63 280.166 142.522 284.645 137.769 285.741ZM162.174 170.847C158.518 180.719 158.061 188.58 160.803 194.429C162.631 197.72 165.007 199.457 167.932 199.639C173.233 200.188 176.341 199.822 177.255 198.543C178.352 197.08 179.54 195.618 180.82 194.155C182.282 192.51 182.831 190.133 182.465 187.026C182.1 183.735 181.825 180.902 181.643 178.525C181.46 175.966 180.546 173.132 178.9 170.025C177.438 166.917 176.433 163.626 175.884 160.153C175.336 156.497 174.97 153.024 174.787 149.733C174.056 142.421 172.411 138.765 169.852 138.765C168.023 138.765 166.835 139.77 166.287 141.781C165.921 143.609 165.647 146.077 165.464 149.185C165.281 158.691 164.185 165.912 162.174 170.847Z" fill="white"/>
<path d="M13.2013 81.1803C17.4058 81.5459 21.0619 81.7287 24.1697 81.7287C27.4602 81.5459 32.3046 81.5459 38.7028 81.7287C49.3056 82.2772 56.8006 81.5459 61.188 79.5351C70.1455 74.9649 77.3664 74.4165 82.8506 77.8898C85.4099 79.3523 87.8778 80.2663 90.2543 80.6319C92.6308 80.9975 96.0127 79.9007 100.4 77.3414C105.153 75.3305 109.083 74.8735 112.191 75.9703C115.299 77.0672 117.584 78.4382 119.046 80.0835C120.509 81.7287 121.423 84.6536 121.788 88.8582C122.337 92.8799 122.428 96.9017 122.063 100.923C121.88 104.945 121.514 108.693 120.966 112.166C119.869 121.489 119.412 127.613 119.595 130.538C119.96 133.463 120.326 136.479 120.692 139.587C121.24 142.695 121.423 145.711 121.24 148.636C120.874 155.765 117.949 159.787 112.465 160.701C108.444 161.25 105.519 160.336 103.691 157.959C101.862 155.4 100.309 152.658 99.029 149.733C97.9322 146.625 96.7439 143.883 95.4643 141.507C94.3674 139.13 92.7222 138.307 90.5285 139.039C88.3348 139.587 86.9638 141.964 86.4153 146.168C85.8669 150.19 85.6841 155.034 85.8669 160.701C86.0497 166.185 86.4153 171.944 86.9637 177.976C87.5122 183.826 87.8778 188.853 88.0606 193.058C88.2434 197.08 88.4262 201.193 88.609 205.397C88.9746 209.602 89.1574 213.532 89.1574 217.188C89.1574 225.049 88.0606 230.442 85.8669 233.367C84.7701 234.829 84.2216 236.566 84.2216 238.577C84.2216 240.588 84.4045 242.69 84.7701 244.884C85.3185 247.077 85.8669 249.271 86.4153 251.465C86.9638 253.658 87.238 256.309 87.238 259.417C87.238 266.729 83.9474 271.848 77.3664 274.773C74.9899 275.869 72.7962 277.697 70.7854 280.257C68.7745 282.816 67.2206 284.461 66.1238 285.193C65.2098 286.107 64.0215 286.381 62.5591 286.015C61.2794 285.832 60.274 285.193 59.5427 284.096C58.9943 283.182 58.4459 282.176 57.8975 281.079C56.8006 278.155 55.2468 276.235 53.2359 275.321C50.8594 274.773 49.397 272.762 48.8486 269.288C48.4829 265.815 48.2087 262.799 48.0259 260.239C48.0259 257.497 47.8431 254.207 47.4775 250.368C47.1119 246.529 45.9237 243.421 43.9128 241.045C41.9019 238.668 40.2566 237.206 38.977 236.657C37.6974 235.926 36.8747 234.372 36.5091 231.996C36.1435 229.437 36.1435 226.877 36.5091 224.318C37.0575 221.759 37.6973 218.925 38.4286 215.817C40.6223 206.86 41.8105 198.451 41.9933 190.59C42.5417 175.966 42.5417 166.277 41.9933 161.524C41.2621 152.018 38.7028 147.265 34.3154 147.265C32.1217 147.448 30.5679 148.453 29.6539 150.281C28.7398 151.927 27.7344 153.937 26.6375 156.314C24.0783 162.346 19.4167 163.992 12.6528 161.25C10.2763 160.153 8.72249 158.416 7.99126 156.04C7.44284 153.663 7.07723 150.921 6.89442 147.813C6.89442 144.523 6.80302 141.141 6.62021 137.668C6.62021 134.011 5.98039 130.63 4.70074 127.522C3.6039 124.231 2.50706 121.124 1.41022 118.199C0.313383 115.274 -0.143634 112.349 0.0391729 109.424C0.22198 106.499 0.861803 103.666 1.95864 100.923C3.23829 98.1813 3.6039 95.4392 3.05548 92.6971C2.68987 89.955 3.23829 87.3043 4.70074 84.7451C6.346 82.003 9.17951 80.8147 13.2013 81.1803Z" fill="white"/>
</svg>
