<svg width="14" height="11" viewBox="0 0 14 11" fill="none" xmlns="http://www.w3.org/2000/svg">
<path d="M11.7225 6.1062H0.907311C0.406112 6.1062 0 5.70009 0 5.19889C0 4.69769 0.406112 4.29158 0.907311 4.29158H11.7225C12.2237 4.29158 12.6298 4.69769 12.6298 5.19889C12.6298 5.70009 12.2237 6.1062 11.7225 6.1062Z" fill="#2A2725"/>
<path d="M7.56743 10.3978C7.32391 10.3978 7.08075 10.3002 6.90183 10.1075C6.56104 9.74018 6.58282 9.16603 6.95009 8.82525L10.8504 5.20798L6.83214 1.58092C6.46015 1.24521 6.43075 0.671427 6.76646 0.29943C7.10216 -0.0725675 7.67594 -0.101964 8.04794 0.233741L12.8022 4.52532C12.9913 4.69589 13.0998 4.93796 13.1017 5.19274C13.1035 5.44751 12.9982 5.69103 12.8113 5.86415L8.18404 10.1557C8.00947 10.3176 7.78809 10.3978 7.56743 10.3978Z" fill="#2A2725"/>
</svg>
