<svg width="30" height="30" viewBox="0 0 30 30" fill="none" xmlns="http://www.w3.org/2000/svg">
<path d="M13.4167 6.76166L13.4167 16.0417C13.4167 22.1684 9.88538 24.3537 5.09506 25.5787C4.36506 25.7654 3.60966 25.3778 3.34275 24.6732C3.02831 23.8431 3.51785 22.9437 4.37617 22.7172C7.86086 21.7979 8.97464 19.5344 8.43116 16.0417H3.13666C1.81854 16.0417 0.75 14.9731 0.75 13.655L0.75 6.76166C0.75 5.44354 1.81854 4.375 3.13666 4.375L11.03 4.375C12.3481 4.375 13.4167 5.44354 13.4167 6.76166Z" fill="#B1A696"/>
<path d="M29.25 6.76166V16.0417C29.25 22.1684 25.7188 24.3537 20.9284 25.5787C20.1984 25.7654 19.443 25.3778 19.1761 24.6732C18.8617 23.8431 19.3512 22.9437 20.2095 22.7172C23.6942 21.7979 24.808 19.5344 24.2645 16.0417H18.97C17.6519 16.0417 16.5834 14.9731 16.5834 13.655V6.76166C16.5834 5.44354 17.6519 4.375 18.97 4.375L26.8634 4.375C28.1815 4.375 29.25 5.44354 29.25 6.76166Z" fill="#B1A696"/>
</svg>
