<svg width="91" height="15" viewBox="0 0 91 15" fill="none" xmlns="http://www.w3.org/2000/svg">
<g clip-path="url(#clip0_830_1247)">
<path d="M14.9609 5.75386C14.8627 5.45012 14.5933 5.23439 14.2746 5.20567L9.94517 4.81255L8.2332 0.805532C8.10697 0.511869 7.81949 0.321777 7.50008 0.321777C7.18066 0.321777 6.89318 0.511869 6.76695 0.806218L5.05498 4.81255L0.724885 5.20567C0.406732 5.23508 0.138017 5.45012 0.0392524 5.75386C-0.0595127 6.05759 0.0316991 6.39074 0.272374 6.60074L3.5449 9.47076L2.57991 13.7216C2.50929 14.0341 2.6306 14.3572 2.88993 14.5446C3.02933 14.6453 3.19241 14.6966 3.35687 14.6966C3.49866 14.6966 3.63931 14.6584 3.76554 14.5829L7.50008 12.3509L11.2332 14.5829C11.5064 14.7472 11.8508 14.7322 12.1095 14.5446C12.369 14.3566 12.4902 14.0334 12.4196 13.7216L11.4546 9.47076L14.7271 6.60131C14.9678 6.39074 15.0597 6.05816 14.9609 5.75386Z" fill="#FFB007"/>
</g>
<g clip-path="url(#clip1_830_1247)">
<path d="M33.9609 5.75386C33.8627 5.45012 33.5933 5.23439 33.2746 5.20567L28.9452 4.81255L27.2332 0.805532C27.107 0.511869 26.8195 0.321777 26.5001 0.321777C26.1807 0.321777 25.8932 0.511869 25.7669 0.806218L24.055 4.81255L19.7249 5.20567C19.4067 5.23508 19.138 5.45012 19.0393 5.75386C18.9405 6.05759 19.0317 6.39074 19.2724 6.60074L22.5449 9.47076L21.5799 13.7216C21.5093 14.0341 21.6306 14.3572 21.8899 14.5446C22.0293 14.6453 22.1924 14.6966 22.3569 14.6966C22.4987 14.6966 22.6393 14.6584 22.7655 14.5829L26.5001 12.3509L30.2332 14.5829C30.5064 14.7472 30.8508 14.7322 31.1095 14.5446C31.369 14.3566 31.4902 14.0334 31.4196 13.7216L30.4546 9.47076L33.7271 6.60131C33.9678 6.39074 34.0597 6.05816 33.9609 5.75386Z" fill="#FFB007"/>
</g>
<g clip-path="url(#clip2_830_1247)">
<path d="M52.9609 5.75386C52.8627 5.45012 52.5933 5.23439 52.2746 5.20567L47.9452 4.81255L46.2332 0.805532C46.107 0.511869 45.8195 0.321777 45.5001 0.321777C45.1807 0.321777 44.8932 0.511869 44.7669 0.806218L43.055 4.81255L38.7249 5.20567C38.4067 5.23508 38.138 5.45012 38.0393 5.75386C37.9405 6.05759 38.0317 6.39074 38.2724 6.60074L41.5449 9.47076L40.5799 13.7216C40.5093 14.0341 40.6306 14.3572 40.8899 14.5446C41.0293 14.6453 41.1924 14.6966 41.3569 14.6966C41.4987 14.6966 41.6393 14.6584 41.7655 14.5829L45.5001 12.3509L49.2332 14.5829C49.5064 14.7472 49.8508 14.7322 50.1095 14.5446C50.369 14.3566 50.4902 14.0334 50.4196 13.7216L49.4546 9.47076L52.7271 6.60131C52.9678 6.39074 53.0597 6.05816 52.9609 5.75386Z" fill="#FFB007"/>
</g>
<g clip-path="url(#clip3_830_1247)">
<path d="M71.9609 5.75386C71.8627 5.45012 71.5933 5.23439 71.2746 5.20567L66.9452 4.81255L65.2332 0.805532C65.107 0.511869 64.8195 0.321777 64.5001 0.321777C64.1807 0.321777 63.8932 0.511869 63.7669 0.806218L62.055 4.81255L57.7249 5.20567C57.4067 5.23508 57.138 5.45012 57.0393 5.75386C56.9405 6.05759 57.0317 6.39074 57.2724 6.60074L60.5449 9.47076L59.5799 13.7216C59.5093 14.0341 59.6306 14.3572 59.8899 14.5446C60.0293 14.6453 60.1924 14.6966 60.3569 14.6966C60.4987 14.6966 60.6393 14.6584 60.7655 14.5829L64.5001 12.3509L68.2332 14.5829C68.5064 14.7472 68.8508 14.7322 69.1095 14.5446C69.369 14.3566 69.4902 14.0334 69.4196 13.7216L68.4546 9.47076L71.7271 6.60131C71.9678 6.39074 72.0597 6.05816 71.9609 5.75386Z" fill="#FFB007"/>
</g>
<g clip-path="url(#clip4_830_1247)">
<path d="M90.9609 5.75386C90.8627 5.45012 90.5933 5.23439 90.2746 5.20567L85.9452 4.81255L84.2332 0.805532C84.107 0.511869 83.8195 0.321777 83.5001 0.321777C83.1807 0.321777 82.8932 0.511869 82.7669 0.806218L81.055 4.81255L76.7249 5.20567C76.4067 5.23508 76.138 5.45012 76.0393 5.75386C75.9405 6.05759 76.0317 6.39074 76.2724 6.60074L79.5449 9.47076L78.5799 13.7216C78.5093 14.0341 78.6306 14.3572 78.8899 14.5446C79.0293 14.6453 79.1924 14.6966 79.3569 14.6966C79.4987 14.6966 79.6393 14.6584 79.7655 14.5829L83.5001 12.3509L87.2332 14.5829C87.5064 14.7472 87.8508 14.7322 88.1095 14.5446C88.369 14.3566 88.4902 14.0334 88.4196 13.7216L87.4546 9.47076L90.7271 6.60131C90.9678 6.39074 91.0597 6.05816 90.9609 5.75386Z" fill="#FFB007"/>
</g>
<defs>
<clipPath id="clip0_830_1247">
<rect width="15" height="15" fill="white"/>
</clipPath>
<clipPath id="clip1_830_1247">
<rect width="15" height="15" fill="white" transform="translate(19)"/>
</clipPath>
<clipPath id="clip2_830_1247">
<rect width="15" height="15" fill="white" transform="translate(38)"/>
</clipPath>
<clipPath id="clip3_830_1247">
<rect width="15" height="15" fill="white" transform="translate(57)"/>
</clipPath>
<clipPath id="clip4_830_1247">
<rect width="15" height="15" fill="white" transform="translate(76)"/>
</clipPath>
</defs>
</svg>
