<svg width="13" height="13" viewBox="0 0 13 13" fill="none" xmlns="http://www.w3.org/2000/svg">
<path d="M10.625 12.5H1.875C0.841065 12.5 0 11.6589 0 10.625V1.875C0 0.841065 0.841065 0 1.875 0H10.625C11.6589 0 12.5 0.841065 12.5 1.875V10.625C12.5 11.6589 11.6589 12.5 10.625 12.5ZM1.875 1.25C1.53015 1.25 1.25 1.53046 1.25 1.875V10.625C1.25 10.9695 1.53015 11.25 1.875 11.25H10.625C10.9698 11.25 11.25 10.9695 11.25 10.625V1.875C11.25 1.53046 10.9698 1.25 10.625 1.25H1.875ZM5.91065 8.2544L9.03565 5.1294C9.27979 4.88525 9.27979 4.48975 9.03565 4.24561C8.7915 4.00147 8.396 4.00147 8.15186 4.24561L5.46875 6.92871L4.34815 5.80811C4.104 5.56397 3.7085 5.56397 3.46436 5.80811C3.22022 6.05225 3.22022 6.44775 3.46436 6.6919L5.02686 8.2544C5.14893 8.37647 5.30884 8.4375 5.46875 8.4375C5.62866 8.4375 5.78857 8.37647 5.91065 8.2544Z" fill="#B1A696"/>
</svg>
