<svg width="28" height="28" viewBox="0 0 28 28" fill="none" xmlns="http://www.w3.org/2000/svg">
<path d="M8.16667 21C7.81667 21 7.58333 20.8833 7.35 20.65C6.88333 20.1833 6.88333 19.4833 7.35 19.0167L19.0167 7.35C19.4833 6.88333 20.1833 6.88333 20.65 7.35C21.1167 7.81667 21.1167 8.51667 20.65 8.98333L8.98333 20.65C8.75 20.8833 8.51667 21 8.16667 21Z" fill="black"/>
<path d="M19.8332 19.8333C19.1332 19.8333 18.6665 19.3667 18.6665 18.6667V9.33333H9.33317C8.63317 9.33333 8.1665 8.86667 8.1665 8.16667C8.1665 7.46667 8.63317 7 9.33317 7H19.8332C20.5332 7 20.9998 7.46667 20.9998 8.16667V18.6667C20.9998 19.3667 20.5332 19.8333 19.8332 19.8333Z" fill="black"/>
</svg>
