<svg width="20" height="20" viewBox="0 0 20 20" fill="none" xmlns="http://www.w3.org/2000/svg">
<path d="M10.2716 0C4.79013 0 1.875 3.51266 1.875 7.34283C1.875 9.11916 2.86755 11.3343 4.45637 12.0368C4.69763 12.1455 4.82888 12.0993 4.88264 11.8755C4.93014 11.7055 5.1389 10.8867 5.24015 10.5005C5.2714 10.3767 5.25515 10.2692 5.15515 10.153C4.62762 9.54293 4.20886 8.43163 4.20886 7.38908C4.20886 4.71771 6.3327 2.12384 9.94662 2.12384C13.0718 2.12384 15.2581 4.15394 15.2581 7.05782C15.2581 10.3392 13.5218 12.6093 11.2654 12.6093C10.0166 12.6093 9.08658 11.6293 9.38159 10.4167C9.73786 8.9729 10.4366 7.42033 10.4366 6.37903C10.4366 5.44524 9.90911 4.67271 8.83157 4.67271C7.56026 4.67271 6.52896 5.93151 6.52896 7.62159C6.52896 8.69539 6.90898 9.42042 6.90898 9.42042C6.90898 9.42042 5.65142 14.5006 5.41766 15.4494C5.02264 17.0558 5.47141 19.6571 5.51016 19.8809C5.53392 20.0046 5.67267 20.0434 5.75018 19.9421C5.87393 19.7796 7.394 17.6108 7.82027 16.0432C7.97528 15.4719 8.61156 13.1556 8.61156 13.1556C9.03032 13.9119 10.2391 14.5456 11.5267 14.5456C15.3569 14.5456 18.1245 11.1792 18.1245 7.00156C18.1107 2.99638 14.6831 0 10.2716 0Z" fill="#2A2725"/>
</svg>
