<svg width="25" height="20" viewBox="0 0 25 20" fill="none" xmlns="http://www.w3.org/2000/svg">
<path d="M21.6 11.2519H1.67183C0.748309 11.2519 0 10.5036 0 9.58005C0 8.65652 0.748309 7.9082 1.67183 7.9082H21.6C22.5235 7.9082 23.2718 8.65652 23.2718 9.58005C23.2718 10.5036 22.5235 11.2519 21.6 11.2519Z" fill="#2A2725"/>
<path d="M13.9442 19.1594C13.4955 19.1594 13.0474 18.9796 12.7177 18.6245C12.0898 17.9477 12.1299 16.8897 12.8067 16.2618L19.9935 9.59646L12.5893 2.91307C11.9039 2.29448 11.8497 1.2372 12.4683 0.551743C13.0869 -0.133716 14.1441 -0.187884 14.8296 0.430701L23.5899 8.33856C23.9383 8.65287 24.1383 9.09892 24.1416 9.56837C24.145 10.0378 23.9511 10.4866 23.6067 10.8055L15.0804 18.7134C14.7587 19.0117 14.3508 19.1594 13.9442 19.1594Z" fill="#2A2725"/>
</svg>
