<svg width="22" height="22" viewBox="0 0 22 22" fill="none" xmlns="http://www.w3.org/2000/svg">
<g clip-path="url(#clip0_888_737)">
<path d="M21.9784 6.46806C21.9269 5.29911 21.7378 4.49548 21.467 3.79911C21.1877 3.05994 20.7579 2.39816 20.1949 1.84802C19.6447 1.28931 18.9786 0.855178 18.248 0.580191C17.5476 0.309402 16.7481 0.12037 15.5792 0.0688306C14.4015 0.0129267 14.0276 0 11.0407 0C8.05381 0 7.67994 0.0129267 6.50663 0.0644657C5.33769 0.116005 4.53405 0.305205 3.83785 0.575827C3.09851 0.855178 2.43673 1.28495 1.88659 1.84802C1.32789 2.39816 0.89392 3.0643 0.618766 3.79491C0.347976 4.49548 0.158944 5.29475 0.107405 6.46369C0.0515009 7.64137 0.0385742 8.01524 0.0385742 11.0021C0.0385742 13.9891 0.0515009 14.3629 0.10304 15.5362C0.154579 16.7052 0.343779 17.5088 0.614569 18.2052C0.89392 18.9444 1.32789 19.6061 1.88659 20.1563C2.43673 20.715 3.10288 21.1491 3.83349 21.4241C4.53405 21.6949 5.33332 21.8839 6.50244 21.9355C7.67558 21.9872 8.04961 21.9999 11.0365 21.9999C14.0234 21.9999 14.3973 21.9872 15.5706 21.9355C16.7396 21.8839 17.5432 21.6949 18.2394 21.4241C19.7179 20.8525 20.8869 19.6835 21.4585 18.2052C21.7291 17.5046 21.9183 16.7052 21.9698 15.5362C22.0214 14.3629 22.0343 13.9891 22.0343 11.0021C22.0343 8.01524 22.0299 7.64137 21.9784 6.46806ZM19.9973 15.4503C19.9499 16.5247 19.7694 17.1049 19.619 17.4917C19.2494 18.4501 18.4887 19.2108 17.5303 19.5805C17.1435 19.7309 16.5591 19.9113 15.4889 19.9585C14.3285 20.0102 13.9805 20.023 11.0451 20.023C8.10972 20.023 7.75734 20.0102 6.60115 19.9585C5.52672 19.9113 4.94653 19.7309 4.55974 19.5805C4.08279 19.4042 3.64865 19.1248 3.29628 18.7595C2.93097 18.4028 2.65162 17.973 2.47534 17.4961C2.32492 17.1093 2.14445 16.5247 2.09728 15.4546C2.04557 14.2943 2.03281 13.9461 2.03281 11.0107C2.03281 8.07534 2.04557 7.72296 2.09728 6.56694C2.14445 5.49251 2.32492 4.91232 2.47534 4.52553C2.65162 4.04841 2.93097 3.61444 3.30064 3.2619C3.65722 2.89659 4.08699 2.61724 4.5641 2.44114C4.9509 2.29072 5.53545 2.11024 6.60552 2.0629C7.7659 2.01136 8.11408 1.99844 11.0493 1.99844C13.989 1.99844 14.337 2.01136 15.4932 2.0629C16.5676 2.11024 17.1478 2.29072 17.5346 2.44114C18.0116 2.61724 18.4457 2.89659 18.7981 3.2619C19.1634 3.61864 19.4428 4.04841 19.619 4.52553C19.7694 4.91232 19.9499 5.49671 19.9973 6.56694C20.0488 7.72732 20.0617 8.07534 20.0617 11.0107C20.0617 13.9461 20.0488 14.2899 19.9973 15.4503Z" fill="#2A2725"/>
<path d="M11.0407 5.35059C7.92061 5.35059 5.38916 7.88187 5.38916 11.0021C5.38916 14.1223 7.92061 16.6536 11.0407 16.6536C14.1609 16.6536 16.6921 14.1223 16.6921 11.0021C16.6921 7.88187 14.1609 5.35059 11.0407 5.35059ZM11.0407 14.6681C9.01653 14.6681 7.37467 13.0264 7.37467 11.0021C7.37467 8.97779 9.01653 7.3361 11.0407 7.3361C13.0649 7.3361 14.7066 8.97779 14.7066 11.0021C14.7066 13.0264 13.0649 14.6681 11.0407 14.6681Z" fill="#2A2725"/>
<path d="M18.2351 5.12698C18.2351 5.85558 17.6443 6.44635 16.9156 6.44635C16.187 6.44635 15.5962 5.85558 15.5962 5.12698C15.5962 4.39822 16.187 3.80762 16.9156 3.80762C17.6443 3.80762 18.2351 4.39822 18.2351 5.12698Z" fill="#2A2725"/>
</g>
<defs>
<clipPath id="clip0_888_737">
<rect width="22" height="22" fill="white"/>
</clipPath>
</defs>
</svg>
