<svg width="24" height="24" viewBox="0 0 24 24" fill="none" xmlns="http://www.w3.org/2000/svg">
<path d="M9.69641 13.2478C9.62441 13.2478 8.04041 13.2478 7.32041 13.2478C6.93641 13.2478 6.81641 13.1038 6.81641 12.7438C6.81641 11.7838 6.81641 10.7998 6.81641 9.83983C6.81641 9.45583 6.96041 9.33583 7.32041 9.33583H9.69641C9.69641 9.26383 9.69641 7.87183 9.69641 7.22383C9.69641 6.26383 9.86441 5.35183 10.3444 4.51183C10.8484 3.64783 11.5684 3.07183 12.4804 2.73583C13.0804 2.51983 13.6804 2.42383 14.3284 2.42383H16.6804C17.0164 2.42383 17.1604 2.56783 17.1604 2.90383V5.63983C17.1604 5.97583 17.0164 6.11983 16.6804 6.11983C16.0324 6.11983 15.3844 6.11983 14.7364 6.14383C14.0884 6.14383 13.7524 6.45583 13.7524 7.12783C13.7284 7.84783 13.7524 8.54383 13.7524 9.28783H16.5364C16.9204 9.28783 17.0644 9.43183 17.0644 9.81583V12.7198C17.0644 13.1038 16.9444 13.2238 16.5364 13.2238C15.6724 13.2238 13.8244 13.2238 13.7524 13.2238V21.0478C13.7524 21.4558 13.6324 21.5998 13.2004 21.5998C12.1924 21.5998 11.2084 21.5998 10.2004 21.5998C9.84041 21.5998 9.69641 21.4558 9.69641 21.0958C9.69641 18.5758 9.69641 13.3198 9.69641 13.2478Z" fill="#F4EFE7"/>
</svg>
