<svg width="209" height="40" viewBox="0 0 209 40" fill="none" xmlns="http://www.w3.org/2000/svg">
<g clip-path="url(#clip0_910_2600)">
<path d="M96.8549 4.00158C96.532 6.29416 98.0206 8.00317 100.34 8.00317C102.66 8.00317 104.63 6.29416 104.953 4.00158C105.276 1.70901 103.787 0 101.467 0C99.1476 0 97.1777 1.70901 96.8549 4.00158Z" fill="#B1A696"/>
<path d="M96.9128 9.87891L94.9233 24.0073L101.284 23.764L103.239 9.87891H96.9128Z" fill="#B1A696"/>
<path fill-rule="evenodd" clip-rule="evenodd" d="M80.2067 31.0125C85.2243 31.0125 89.4891 28.3459 91.6216 24.3067L94.8628 24.439L94.0135 30.4704H100.34L101.153 24.6957L104.507 24.8326L102.474 39.2658H108.801L110.356 28.2198C111.405 30.0538 113.379 31.0125 115.868 31.0125C119.232 31.0125 123.182 29.2789 125.543 25.6911L127.966 25.79C128.379 28.907 131.289 31.0125 135.906 31.0125C141.262 31.0125 145.204 28.1781 145.803 23.9264C146.49 19.0495 142.004 18.2575 139.068 17.8407L138.812 17.8016C137.037 17.5315 135.682 17.3254 135.85 16.1316C135.968 15.298 136.712 14.506 138.272 14.506C139.538 14.506 140.305 15.0479 140.339 16.0066H146.496C146.892 12.2968 144.104 9.3373 138.916 9.3373C133.728 9.3373 129.985 12.2551 129.398 16.4234C128.7 21.3837 133.324 22.0923 136.133 22.5092L136.288 22.5327L136.504 22.5652L136.506 22.5655C138.224 22.8231 139.52 23.0174 139.339 24.3016C139.216 25.1769 138.489 25.8438 136.549 25.8438C134.82 25.8438 134.095 25.302 134.205 24.2182L89.4311 24.2173L91.7131 24.1301C92.3275 22.9196 92.7524 21.59 92.9517 20.1749C93.8321 13.9224 89.8384 9.3373 83.259 9.3373C83.157 9.3373 83.0554 9.3384 82.954 9.34059L82.9742 9.32711L63.0296 9.32713C62.7438 9.32521 62.4725 9.3252 62.2183 9.32713H63.0296C68.1513 9.36159 77.9119 10.0099 76.6562 11.0661C73.3769 12.951 71.0693 16.2313 70.514 20.1749C69.6335 26.4274 73.6272 31.0125 80.2067 31.0125ZM81.0284 25.1769C83.8964 25.1769 86.1241 23.1344 86.5409 20.1749C86.9577 17.2154 85.3052 15.1729 82.4372 15.1729C79.5692 15.1729 77.3415 17.2154 76.9247 20.1749C76.508 23.1344 78.1605 25.1769 81.0284 25.1769Z" fill="#B1A696"/>
<path d="M121.105 20.1749C120.95 21.2812 120.541 22.2593 119.94 23.0505L126.938 22.7828C127.179 22.0476 127.363 21.2619 127.481 20.425C128.414 13.7974 124.403 9.33728 117.781 9.33728C111.413 9.33728 106.108 13.4639 105.133 20.3833L104.676 23.6343L112.007 23.3539C111.507 22.5152 111.313 21.4272 111.489 20.1749C111.906 17.2154 114.134 15.1729 117.002 15.1729C119.87 15.1729 121.522 17.2154 121.105 20.1749Z" fill="#B1A696"/>
<path d="M170.456 27.306L171.642 18.8827C172.576 12.2551 176.867 9.33728 181.928 9.33728C184.88 9.33728 187.21 10.4627 188.465 12.6303C190.331 10.4627 192.936 9.33728 195.93 9.33728C200.992 9.33728 204.461 12.2551 203.528 18.8827L201.896 30.4707H195.569L197.201 18.8827C197.589 16.1316 196.374 15.1729 194.476 15.1729C192.62 15.1729 191.136 16.1316 190.748 18.8827L189.116 30.4707H182.79L184.422 18.8827C184.809 16.1316 183.595 15.1729 181.739 15.1729C179.841 15.1729 178.356 16.1316 177.969 18.8827L176.337 30.4707H172.546L172.547 30.4731H163.683C167.361 30.1011 170.187 29.0964 170.45 27.2971L170.456 27.306Z" fill="#B1A696"/>
<path d="M156.959 31.0123C150.801 31.0123 147.161 27.5109 148.141 20.5498L149.249 12.6856C149.426 10.6542 147.823 10.4004 144.287 9.89142H149.642L149.644 9.87891H155.971L154.468 20.5498C154.01 23.8011 155.419 25.1766 157.781 25.1766C160.143 25.1766 161.939 23.8011 162.397 20.5498L163.9 9.87891H170.226L168.723 20.5498C167.749 27.4692 163.117 31.0123 156.959 31.0123Z" fill="#B1A696"/>
<path d="M49.2173 28.0335C48.7702 27.5452 48.3842 27.0051 48.0643 26.4191L43.5474 26.1736C41.2111 29.1472 37.5411 31.0125 33.3445 31.0125C26.765 31.0125 22.7713 26.4274 23.6518 20.1749C24.5323 13.9224 29.8173 9.33728 36.3968 9.33728C42.9763 9.33728 46.97 13.9224 46.0895 20.1749C45.8882 21.6041 45.4568 22.9462 44.8325 24.1663L36.6952 24.5808C38.2796 23.7686 39.396 22.1828 39.6787 20.1749C40.0955 17.2154 38.443 15.1729 35.575 15.1729C32.7071 15.1729 30.4793 17.2154 30.0626 20.1749C29.7506 22.3903 30.5982 24.0919 32.2471 24.8074L25.1072 25.1712H57.753V25.1749C60.5456 25.1023 62.7005 23.0806 63.1097 20.1749C63.5264 17.2154 61.8739 15.1729 59.0059 15.1729C56.138 15.1729 53.9103 17.2154 53.4935 20.1749C53.2928 21.6003 53.5721 22.813 54.236 23.6872L47.1888 24.0462C46.9317 22.8583 46.8881 21.5574 47.0827 20.1749C47.9632 13.9224 53.2482 9.33728 59.8277 9.33728C66.4072 9.33728 70.4009 13.9224 69.5204 20.1749C68.6699 26.2145 63.7097 30.6984 57.4429 30.9967C58.9188 31.8258 61.0625 32.4963 62.6382 32.989C63.1639 33.1535 63.6264 33.2981 63.9797 33.4222C65.4107 33.7752 66.3251 35.093 66.1038 36.6647C65.8444 38.5067 64.1232 40 62.2594 40H52.1351C48.8257 40 46.4041 37.6461 46.2654 34.5399L33.7781 33.3309H46.3248L46.325 33.3294H57.1213C54.6527 32.3859 52.0442 30.4983 50.3671 29.074C49.949 28.7608 49.5655 28.4135 49.2187 28.035L49.2173 28.0335Z" fill="#B1A696"/>
<path d="M0 3.20978L5.1678 4.03058L1.44456 30.4705H21.3095L22.19 24.218H9.15756L12.1159 3.20972L0 3.20978Z" fill="#B1A696"/>
<path d="M209 7.87685C209 9.20552 207.921 10.2826 206.589 10.2826C205.258 10.2826 204.179 9.20552 204.179 7.87685C204.179 6.54817 205.258 5.47107 206.589 5.47107C207.921 5.47107 209 6.54817 209 7.87685Z" fill="#B1A696"/>
</g>
<defs>
<clipPath id="clip0_910_2600">
<rect width="209" height="40" fill="white"/>
</clipPath>
</defs>
</svg>
