<svg width="23" height="28" viewBox="0 0 23 28" fill="none" xmlns="http://www.w3.org/2000/svg">
<path d="M21.0735 20.3059C20.652 17.1172 19.4718 14.8167 18.4695 13.3701C18.7999 12.6306 18.9839 11.8119 18.9839 10.951C18.9839 7.66962 16.3143 5 13.033 5C9.75169 5 7.08207 7.66962 7.08207 10.951C7.08207 14.2323 9.75165 16.902 13.033 16.902C13.5308 16.902 14.0145 16.8401 14.4769 16.7244L14.549 19.6C13.6797 18.9743 12.4934 18.4293 10.9093 18.2569C9.62483 18.1169 8.55547 18.2212 7.68529 18.4382C6.76964 17.2091 5.50222 16.3881 3.99747 16.0553C2.77375 15.7847 1.81409 15.933 1.77393 15.9396L1.98461 17.2706C1.99238 17.2694 2.7716 17.1552 3.75453 17.382C4.79344 17.6217 5.66115 18.1369 6.34253 18.9168C5.23116 19.4472 4.69533 20.0831 4.65436 20.1331L5.69686 20.9871L5.69318 20.9916C5.69695 20.9871 6.08108 20.5412 6.88918 20.1494C7.97854 19.6212 9.28212 19.4351 10.7634 19.5966C12.4255 19.7775 13.759 20.4454 14.727 21.5817C15.4611 22.4434 15.7057 23.2705 15.7072 23.2757L17.0054 22.9138C16.9939 22.8728 16.7282 21.9434 15.9303 20.9253L15.8122 16.2116C16.5435 15.8237 17.1848 15.288 17.6959 14.6441C19.0012 16.7312 19.5253 18.9069 19.732 20.4409C19.9243 21.8671 19.8825 22.9911 19.8491 23.468C18.6926 24.4432 17.3111 25.1594 15.7387 25.5982C14.3892 25.9748 12.8953 26.1495 11.2993 26.1193C8.54891 26.0662 6.42684 25.4108 6.40622 25.4044L6.05732 25.2944L5.77507 25.5272C4.08385 26.922 2.00541 26.6248 1.98726 26.6221L1.77397 27.9527C1.80798 27.9582 2.08339 27.9999 2.51235 27.9999C3.39543 27.9999 4.92924 27.823 6.34693 26.7886C7.08702 26.9872 8.93703 27.4172 11.2341 27.466C12.967 27.5032 14.5975 27.3132 16.0788 26.9024C17.9512 26.3832 19.5881 25.5084 20.944 24.3023L21.1339 24.1335L21.1649 23.8814C21.1724 23.8205 21.3458 22.366 21.0735 20.3059ZM13.033 15.5543C10.4947 15.5543 8.42973 13.4892 8.42973 10.951C8.42973 8.41271 10.4947 6.34766 13.033 6.34766C15.5713 6.34766 17.6363 8.41271 17.6363 10.951C17.6363 13.4892 15.5713 15.5543 13.033 15.5543Z" fill="#2A2725"/>
<path d="M13.0331 8.01465C11.414 8.01465 10.0967 9.33194 10.0967 10.9511C10.0967 12.5702 11.414 13.8875 13.0331 13.8875C14.6523 13.8875 15.9695 12.5702 15.9695 10.9511C15.9695 9.33189 14.6523 8.01465 13.0331 8.01465ZM13.0331 12.5399C12.157 12.5399 11.4443 11.8272 11.4443 10.9511C11.4443 10.075 12.157 9.36226 13.0331 9.36226C13.9092 9.36226 14.6219 10.075 14.6219 10.9511C14.6219 11.8272 13.9092 12.5399 13.0331 12.5399Z" fill="#2A2725"/>
</svg>
