<svg width="20" height="25" viewBox="0 0 20 25" fill="none" xmlns="http://www.w3.org/2000/svg">
<g clip-path="url(#clip0_912_2690)">
<path d="M17.7039 19.0341C18.1642 19.0341 18.5373 18.661 18.5373 18.2008C18.5373 17.7405 18.1642 17.3674 17.7039 17.3674C17.2437 17.3674 16.8706 17.7405 16.8706 18.2008C16.8706 18.661 17.2437 19.0341 17.7039 19.0341Z" fill="#2A2725"/>
<path d="M15.8866 21.7182C16.3468 21.7182 16.7199 21.3451 16.7199 20.8848C16.7199 20.4246 16.3468 20.0515 15.8866 20.0515C15.4263 20.0515 15.0532 20.4246 15.0532 20.8848C15.0532 21.3451 15.4263 21.7182 15.8866 21.7182Z" fill="#2A2725"/>
<path d="M18.3309 15.8366C18.7911 15.8366 19.1642 15.4635 19.1642 15.0033C19.1642 14.543 18.7911 14.1699 18.3309 14.1699C17.8707 14.1699 17.4976 14.543 17.4976 15.0033C17.4976 15.4635 17.8707 15.8366 18.3309 15.8366Z" fill="#2A2725"/>
<path d="M13.1873 23.539C13.6476 23.539 14.0207 23.1659 14.0207 22.7056C14.0207 22.2454 13.6476 21.8723 13.1873 21.8723C12.7271 21.8723 12.354 22.2454 12.354 22.7056C12.354 23.1659 12.7271 23.539 13.1873 23.539Z" fill="#2A2725"/>
<path d="M9.99986 22.4999C8.79963 22.5014 7.61657 22.2147 6.55009 21.6641C5.48361 21.1135 4.56486 20.3149 3.87101 19.3356C3.17717 18.3562 2.72851 17.2246 2.56272 16.0359C2.39693 14.8472 2.51885 13.636 2.91825 12.5042C3.31764 11.3724 3.98285 10.3529 4.85797 9.53149C5.73309 8.71007 6.79257 8.11067 7.9474 7.78366C9.10223 7.45665 10.3187 7.41157 11.4945 7.65221C12.6704 7.89286 13.7713 8.41219 14.7049 9.16659H13.3332C13.1122 9.16659 12.9002 9.25438 12.7439 9.41066C12.5877 9.56694 12.4999 9.77891 12.4999 9.99992C12.4999 10.2209 12.5877 10.4329 12.7439 10.5892C12.9002 10.7455 13.1122 10.8333 13.3332 10.8333H16.6665C16.8875 10.8333 17.0995 10.7455 17.2558 10.5892C17.4121 10.4329 17.4999 10.2209 17.4999 9.99992V6.66659C17.4999 6.44557 17.4121 6.23361 17.2558 6.07733C17.0995 5.92105 16.8875 5.83325 16.6665 5.83325C16.4455 5.83325 16.2336 5.92105 16.0773 6.07733C15.921 6.23361 15.8332 6.44557 15.8332 6.66659V7.94242C14.7 7.00554 13.3579 6.35514 11.9204 6.04617C10.4829 5.73719 8.99212 5.77871 7.57403 6.16722C6.15594 6.55573 4.85217 7.27981 3.77285 8.27831C2.69354 9.27681 1.87037 10.5204 1.37289 11.904C0.875414 13.2877 0.718229 14.7707 0.914617 16.2279C1.11101 17.6851 1.6552 19.0736 2.50123 20.2761C3.34726 21.4787 4.47027 22.46 5.77542 23.1371C7.08057 23.8143 8.52951 24.1674 9.99986 24.1666C10.2209 24.1666 10.4328 24.0788 10.5891 23.9225C10.7454 23.7662 10.8332 23.5543 10.8332 23.3333C10.8332 23.1122 10.7454 22.9003 10.5891 22.744C10.4328 22.5877 10.2209 22.4999 9.99986 22.4999Z" fill="#2A2725"/>
<path d="M13.089 18.089C13.2452 17.9327 13.333 17.7208 13.333 17.4998C13.333 17.2789 13.2452 17.0669 13.089 16.9107L10.8332 14.6548V9.99984C10.8332 9.77882 10.7454 9.56686 10.5891 9.41058C10.4328 9.2543 10.2209 9.1665 9.99984 9.1665C9.77882 9.1665 9.56686 9.2543 9.41058 9.41058C9.2543 9.56686 9.1665 9.77882 9.1665 9.99984V14.9998C9.16655 15.2208 9.25438 15.4328 9.41067 15.589L11.9107 18.089C12.0669 18.2452 12.2789 18.333 12.4998 18.333C12.7208 18.333 12.9327 18.2452 13.089 18.089Z" fill="#2A2725"/>
</g>
<defs>
<clipPath id="clip0_912_2690">
<rect width="20" height="20" fill="white" transform="translate(0 5)"/>
</clipPath>
</defs>
</svg>
