<svg width="221" height="40" viewBox="0 0 221 40" fill="none" xmlns="http://www.w3.org/2000/svg">
<g clip-path="url(#clip0_910_2537)">
<path fill-rule="evenodd" clip-rule="evenodd" d="M38.3487 0.937332C39.6391 -0.302594 41.6732 -0.308232 42.9703 0.895827L43.0932 1.01546L43.5126 1.45736C47.7614 6.0489 49.3446 11.3997 48.9385 16.6254C48.5265 21.9248 46.0924 26.9222 42.6967 30.8713C39.3031 34.8179 34.7723 37.9259 29.8748 39.2749C24.9157 40.6406 19.4919 40.2052 14.7838 36.866C10.7906 34.0336 9.27028 29.4562 9.167 25.0094C6.92619 23.9052 4.56842 22.5328 2.09457 20.8638L1.4409 20.4178L1.30165 20.3169C-0.102828 19.2389 -0.42396 17.2437 0.59965 15.779C1.62357 14.3143 3.61731 13.917 5.12456 14.848L5.26955 14.9424L5.86506 15.3493C7.34702 16.3491 8.76109 17.2159 10.1057 17.9641C10.9731 14.9059 12.4104 11.9696 14.3038 9.5492C17.1405 5.92322 21.3936 3.02347 26.604 3.45611C31.2972 3.84608 34.7649 6.27842 36.5548 9.71115C38.2879 13.0351 38.3136 17.0336 36.7989 20.4723C35.2546 23.9779 32.1196 26.8985 27.6098 28.1019C24.3643 28.9679 20.5622 28.9084 16.2722 27.7487V27.7503C14.5645 27.2885 12.7748 26.6507 10.9044 25.8224C10.4848 25.6366 10.1196 25.9205 10.9044 26.4132C13.1131 27.9882 16.2245 29.3084 17.1249 29.7515C17.5504 30.4431 18.0781 31.0104 18.6829 31.4394C21.4662 33.4135 24.7222 33.7752 28.0825 32.8497C31.5044 31.9072 34.9341 29.6346 37.5943 26.541C40.2524 23.4497 41.9662 19.7458 42.2486 16.1119C42.5151 12.683 41.5302 9.16045 38.5633 5.95943L38.2701 5.65099L38.153 5.52403C36.9855 4.19612 37.059 2.17717 38.3487 0.937332ZM26.0453 10.1002C23.8926 9.92141 21.6207 11.0599 19.602 13.6403C18.0646 15.6055 16.9013 18.159 16.3082 20.7865C20.533 22.2375 23.6815 22.2474 25.8692 21.6638C28.4018 20.988 29.9204 19.458 30.6513 17.7989C31.4116 16.0726 31.3337 14.1916 30.5964 12.7776C29.9159 11.4725 28.5459 10.308 26.0453 10.1002Z" fill="#B1A696"/>
<path d="M137.709 13.6026C135.84 13.6026 134.64 12.1927 134.9 10.3013C135.16 8.40993 136.748 7 138.618 7C140.487 7 141.687 8.40993 141.427 10.3013C141.167 12.1927 139.579 13.6026 137.709 13.6026Z" fill="#B1A696"/>
<path d="M132.61 32.1381L134.947 15.1501H140.046L137.709 32.1381H132.61Z" fill="#B1A696"/>
<path fill-rule="evenodd" clip-rule="evenodd" d="M141.573 23.8162L139.429 39.3942H144.528L145.782 30.2812C146.628 31.7943 148.219 32.5853 150.224 32.5853C154.032 32.5853 158.771 29.7654 159.584 23.8505C160.337 18.3827 157.104 14.7032 151.767 14.7032C146.634 14.7032 142.358 18.1076 141.573 23.8162ZM154.446 23.6442C154.11 26.0858 152.314 27.7708 150.003 27.7708C147.691 27.7708 146.359 26.0858 146.695 23.6442C147.031 21.2026 148.827 19.5176 151.138 19.5176C153.45 19.5176 154.782 21.2026 154.446 23.6442Z" fill="#B1A696"/>
<path d="M166.375 32.5853C162.058 32.5853 159.592 30.2468 159.973 26.9799H165.004C164.915 27.874 165.5 28.3211 166.893 28.3211C168.457 28.3211 169.043 27.7708 169.142 27.0487C169.288 25.9892 168.243 25.8289 166.858 25.6165L166.853 25.6156C166.756 25.6007 166.658 25.5856 166.558 25.57C164.294 25.2261 160.567 24.6415 161.13 20.5492C161.603 17.1104 164.62 14.7032 168.801 14.7032C172.982 14.7032 175.23 17.1448 174.911 20.2053H169.948C169.92 19.4144 169.302 18.9674 168.282 18.9674C167.025 18.9674 166.425 19.6207 166.33 20.3085C166.195 21.2934 167.287 21.4634 168.717 21.6862L168.924 21.7184C171.29 22.0623 174.905 22.7157 174.352 26.7392C173.869 30.2468 170.692 32.5853 166.375 32.5853Z" fill="#B1A696"/>
<path d="M195.178 22.5782L193.863 32.1382H198.962L200.277 22.5782C200.59 20.3085 201.786 19.5176 203.316 19.5176C204.812 19.5176 205.791 20.3085 205.478 22.5782L204.163 32.1382H209.262L210.577 22.5782C210.89 20.3085 212.086 19.5176 213.582 19.5176C215.112 19.5176 216.091 20.3085 215.779 22.5782L214.463 32.1382H219.562L220.878 22.5782C221.63 17.1104 218.834 14.7032 214.754 14.7032C212.341 14.7032 210.241 15.6317 208.738 17.4199C207.726 15.6317 205.848 14.7032 203.468 14.7032C199.389 14.7032 195.931 17.1104 195.178 22.5782Z" fill="#B1A696"/>
<path d="M176.237 23.9536C175.447 29.6965 178.381 32.5851 183.344 32.5851C188.307 32.5851 192.04 29.6621 192.826 23.9536L194.037 15.1501H188.938L187.727 23.9536C187.358 26.6359 185.91 27.7707 184.006 27.7707C182.102 27.7707 180.967 26.6359 181.336 23.9536L182.547 15.1501H177.448L176.237 23.9536Z" fill="#B1A696"/>
<path fill-rule="evenodd" clip-rule="evenodd" d="M113.669 23.6442C112.96 28.8025 116.179 32.5853 121.482 32.5853C126.785 32.5853 131.044 28.8025 131.754 23.6442C132.464 18.4859 129.245 14.7032 123.942 14.7032C118.639 14.7032 114.379 18.4859 113.669 23.6442ZM126.587 23.6442C126.251 26.0858 124.455 27.7708 122.144 27.7708C119.832 27.7708 118.5 26.0858 118.836 23.6442C119.172 21.2026 120.968 19.5176 123.279 19.5176C125.591 19.5176 126.923 21.2026 126.587 23.6442Z" fill="#B1A696"/>
<path fill-rule="evenodd" clip-rule="evenodd" d="M97.4337 30.988C95.3739 29.4099 94.3524 26.7815 94.784 23.6442C95.4936 18.4859 99.7533 14.7032 105.056 14.7032C110.359 14.7032 113.578 18.4859 112.869 23.6442C112.183 28.6268 108.185 32.3259 103.135 32.5722C104.324 33.2562 106.052 33.8093 107.322 34.2158C107.746 34.3516 108.119 34.4711 108.404 34.5736C109.557 34.8652 110.293 35.9521 110.115 37.2483C109.906 38.768 108.519 39.9999 107.016 39.9999H98.8562C95.8517 39.9999 93.7551 37.536 94.1732 34.4966H102.875C100.887 33.7187 98.7856 32.1628 97.4337 30.988ZM103.259 27.7708C105.57 27.7708 107.366 26.0858 107.702 23.6442C108.038 21.2026 106.706 19.5176 104.394 19.5176C102.083 19.5176 100.287 21.2026 99.951 23.6442C99.6151 26.0858 100.947 27.7708 103.259 27.7708Z" fill="#B1A696"/>
<path fill-rule="evenodd" clip-rule="evenodd" d="M75.8988 23.6442C75.1891 28.8025 78.408 32.5853 83.711 32.5853C89.0141 32.5853 93.2738 28.8025 93.9834 23.6442C94.6931 18.4859 91.4742 14.7032 86.1712 14.7032C80.8682 14.7032 76.6084 18.4859 75.8988 23.6442ZM88.8164 23.6442C88.4805 26.0858 86.685 27.7708 84.3734 27.7708C82.0618 27.7708 80.7299 26.0858 81.0658 23.6442C81.4017 21.2026 83.1973 19.5176 85.5088 19.5176C87.8204 19.5176 89.1523 21.2026 88.8164 23.6442Z" fill="#B1A696"/>
<path d="M58 32.1382L61.0941 9.64795H66.601L64.2166 26.9799H74.7207L74.011 32.1382H58Z" fill="#B1A696"/>
</g>
<defs>
<clipPath id="clip0_910_2537">
<rect width="221" height="40" fill="white"/>
</clipPath>
</defs>
</svg>
