<svg width="20" height="25" viewBox="0 0 20 25" fill="none" xmlns="http://www.w3.org/2000/svg">
<g clip-path="url(#clip0_912_2677)">
<path d="M14.1268 17.5608C13.9726 17.5608 13.8176 17.5042 13.6985 17.39C13.4485 17.1517 13.4351 16.7608 13.6726 16.5108L13.681 16.5025C13.766 16.4133 13.8743 16.3517 13.9935 16.3242C16.2243 15.8133 18.5885 13.0083 18.801 8.75H16.0418C15.6968 8.75 15.4168 8.47 15.4168 8.125C15.4168 7.78 15.6968 7.5 16.0418 7.5H19.4418C19.7868 7.5 20.0668 7.78 20.0668 8.125C20.0668 13.4158 17.1751 16.8558 14.3068 17.535C14.2485 17.5517 14.1876 17.5608 14.1268 17.5608Z" fill="#2A2725"/>
<path d="M5.875 17.55C5.82583 17.55 5.775 17.5442 5.725 17.5325C2.88083 16.8317 0 13.3758 0 8.125C0 7.78 0.28 7.5 0.625 7.5H3.95833C4.30333 7.5 4.58333 7.78 4.58333 8.125C4.58333 8.47 4.30333 8.75 3.95833 8.75H1.265C1.47083 13.0033 3.76083 15.7617 6.02417 16.3183C6.35917 16.4008 6.56417 16.7392 6.48167 17.075C6.41167 17.3592 6.15667 17.55 5.875 17.55Z" fill="#2A2725"/>
<path d="M11.0418 22.9166H8.9585C8.6135 22.9166 8.3335 22.6366 8.3335 22.2916V19.1333C8.3335 18.7883 8.6135 18.5083 8.9585 18.5083C9.3035 18.5083 9.5835 18.7883 9.5835 19.1333V21.6666H10.4168V19.1333C10.4168 18.7883 10.6968 18.5083 11.0418 18.5083C11.3868 18.5083 11.6668 18.7883 11.6668 19.1333V22.2916C11.6668 22.6366 11.3868 22.9166 11.0418 22.9166Z" fill="#2A2725"/>
<path d="M13.5418 25.0001H6.4585C6.1135 25.0001 5.8335 24.7201 5.8335 24.3751V23.9584C5.8335 22.6942 6.861 21.6667 8.12516 21.6667H11.8752C13.1393 21.6667 14.1668 22.6942 14.1668 23.9584V24.3751C14.1668 24.7201 13.8868 25.0001 13.5418 25.0001ZM7.10433 23.7501H12.896C12.7993 23.2751 12.3777 22.9167 11.8752 22.9167H8.12516C7.62183 22.9167 7.201 23.2751 7.10433 23.7501Z" fill="#2A2725"/>
<path d="M10.0002 20.2083C9.931 20.2083 9.86183 20.1967 9.79516 20.1733C9.53266 20.0833 3.36933 17.8842 3.3335 12.5042V6.45833C3.3335 5.65417 3.98766 5 4.79183 5H15.2085C16.0127 5 16.6668 5.65417 16.6668 6.45833V12.5C16.6668 17.8833 10.4677 20.0833 10.2043 20.1742C10.1385 20.1967 10.0693 20.2083 10.0002 20.2083ZM4.79183 6.25C4.67683 6.25 4.5835 6.34333 4.5835 6.45833V12.5C4.61016 16.5042 8.99183 18.5067 10.0002 18.9142C11.0102 18.5058 15.4168 16.4942 15.4168 12.5V6.45833C15.4168 6.34333 15.3235 6.25 15.2085 6.25H4.79183Z" fill="#2A2725"/>
</g>
<defs>
<clipPath id="clip0_912_2677">
<rect width="20" height="20" fill="white" transform="translate(0 5)"/>
</clipPath>
</defs>
</svg>
