<svg width="21" height="21" viewBox="0 0 21 21" fill="none" xmlns="http://www.w3.org/2000/svg">
<path d="M18.9044 15.0445C18.818 15.045 18.7324 15.0285 18.6524 14.9958C18.5725 14.9632 18.4998 14.9151 18.4384 14.8542L16.1613 12.5574C15.9984 12.4025 15.7822 12.3161 15.5575 12.3161C15.3328 12.3161 15.1166 12.4025 14.9538 12.5574L14.1433 13.3875C13.7693 13.7608 13.2624 13.9705 12.734 13.9705C12.2056 13.9705 11.6987 13.7608 11.3247 13.3875L7.6136 9.67641C7.42837 9.49143 7.28142 9.27175 7.18116 9.02993C7.0809 8.78811 7.0293 8.5289 7.0293 8.26712C7.0293 8.00534 7.0809 7.74613 7.18116 7.50431C7.28142 7.26249 7.42837 7.0428 7.6136 6.85782L7.97782 6.49688C8.03879 6.43591 8.11117 6.38754 8.19084 6.35455C8.2705 6.32155 8.35589 6.30457 8.44211 6.30457C8.52834 6.30457 8.61372 6.32155 8.69339 6.35455C8.77305 6.38754 8.84544 6.43591 8.90641 6.49688C8.96738 6.55786 9.01575 6.63024 9.04875 6.7099C9.08174 6.78957 9.09873 6.87495 9.09873 6.96118C9.09873 7.04741 9.08174 7.13279 9.04875 7.21246C9.01575 7.29212 8.96738 7.3645 8.90641 7.42548L8.53235 7.78641C8.46875 7.84928 8.41827 7.92414 8.38381 8.00665C8.34935 8.08917 8.33161 8.1777 8.33161 8.26712C8.33161 8.35654 8.34935 8.44507 8.38381 8.52758C8.41827 8.6101 8.46875 8.68496 8.53235 8.74782L12.2533 12.4688C12.3164 12.532 12.3913 12.5821 12.4738 12.6163C12.5563 12.6505 12.6447 12.6681 12.734 12.6681C12.8233 12.6681 12.9117 12.6505 12.9942 12.6163C13.0767 12.5821 13.1516 12.532 13.2147 12.4688L14.0252 11.6583C14.2263 11.4569 14.4652 11.2971 14.7281 11.1881C14.991 11.0791 15.2729 11.023 15.5575 11.023C15.8421 11.023 16.124 11.0791 16.3869 11.1881C16.6498 11.2971 16.8887 11.4569 17.0898 11.6583L19.3605 13.9256C19.4215 13.9866 19.4699 14.059 19.5029 14.1386C19.5359 14.2183 19.5529 14.3037 19.5529 14.3899C19.5529 14.4762 19.5359 14.5616 19.5029 14.6412C19.4699 14.7209 19.4215 14.7933 19.3605 14.8542C19.239 14.9747 19.0754 15.043 18.9044 15.0445Z" fill="#736A63"/>
<path d="M8.44028 7.61574C8.26698 7.61588 8.10067 7.54746 7.97763 7.42543C7.91661 7.36448 7.86821 7.2921 7.83518 7.21243C7.80216 7.13277 7.78516 7.04737 7.78516 6.96113C7.78516 6.87489 7.80216 6.78949 7.83518 6.70982C7.86821 6.63016 7.91661 6.55778 7.97763 6.49683L8.26638 6.20808C8.3923 6.101 8.55399 6.04538 8.71914 6.05234C8.88428 6.0593 9.04072 6.12832 9.15719 6.24562C9.27366 6.36291 9.34157 6.51984 9.34736 6.68503C9.35314 6.85022 9.29638 7.01152 9.18841 7.13668L8.90294 7.42543C8.7799 7.54746 8.61358 7.61588 8.44028 7.61574Z" fill="#736A63"/>
<path d="M14.848 19.9106C14.3402 19.9119 13.8372 19.8125 13.3681 19.6182C12.8989 19.4239 12.4729 19.1385 12.1147 18.7786L2.22178 8.88563C1.86292 8.52698 1.57825 8.10113 1.38403 7.63243C1.18981 7.16372 1.08984 6.66134 1.08984 6.15399C1.08984 5.64664 1.18981 5.14426 1.38403 4.67555C1.57825 4.20684 1.86292 3.781 2.22178 3.42235L4.01334 1.64063C4.41942 1.23488 4.96999 1.00696 5.54404 1.00696C6.1181 1.00696 6.66866 1.23488 7.07475 1.64063L9.35194 3.91782C9.41792 3.97739 9.4711 4.04975 9.50827 4.13051C9.54544 4.21126 9.56582 4.29873 9.56816 4.38759C9.57051 4.47646 9.55477 4.56488 9.52191 4.64748C9.48905 4.73008 9.43975 4.80514 9.377 4.86811C9.31425 4.93108 9.23936 4.98065 9.15688 5.0138C9.07439 5.04696 8.98603 5.063 8.89716 5.06097C8.80829 5.05895 8.72075 5.03888 8.63986 5.002C8.55898 4.96511 8.48643 4.91218 8.42662 4.84641L6.14615 2.56266C6.06692 2.48329 5.9728 2.42032 5.86921 2.37736C5.76561 2.3344 5.65456 2.31229 5.5424 2.31229C5.43025 2.31229 5.3192 2.3344 5.2156 2.37736C5.112 2.42032 5.01789 2.48329 4.93865 2.56266L3.15037 4.35094C2.91267 4.58754 2.72404 4.86876 2.59533 5.17846C2.46662 5.48817 2.40037 5.82025 2.40037 6.15563C2.40037 6.49101 2.46662 6.82309 2.59533 7.1328C2.72404 7.4425 2.91267 7.72372 3.15037 7.96032L13.0433 17.85C13.2799 18.0877 13.5612 18.2763 13.8709 18.405C14.1806 18.5338 14.5126 18.6 14.848 18.6C15.1834 18.6 15.5155 18.5338 15.8252 18.405C16.1349 18.2763 16.4161 18.0877 16.6527 17.85L18.1621 16.3406C18.2231 16.2797 18.2954 16.2313 18.3751 16.1983C18.4548 16.1653 18.5402 16.1483 18.6264 16.1483C18.7126 16.1483 18.798 16.1653 18.8777 16.1983C18.9573 16.2313 19.0297 16.2797 19.0907 16.3406C19.1517 16.4016 19.2 16.474 19.233 16.5537C19.266 16.6333 19.283 16.7187 19.283 16.8049C19.283 16.8912 19.266 16.9765 19.233 17.0562C19.2 17.1359 19.1517 17.2083 19.0907 17.2692L17.5813 18.7786C17.2232 19.1387 16.7973 19.4242 16.3281 19.6185C15.8589 19.8128 15.3559 19.9121 14.848 19.9106Z" fill="#736A63"/>
</svg>
