<svg width="20" height="20" viewBox="0 0 20 20" fill="none" xmlns="http://www.w3.org/2000/svg">
<path d="M19.2188 11.3867C19.6502 11.3867 20 11.037 20 10.6055V5.48828C20 3.76516 18.5981 2.36328 16.875 2.36328H3.125C1.40188 2.36328 0 3.76516 0 5.48828V14.5117C0 16.2348 1.40188 17.6367 3.125 17.6367H16.875C18.5981 17.6367 20 16.2348 20 14.5117C20 14.0802 19.6502 13.7305 19.2188 13.7305C18.7873 13.7305 18.4375 14.0802 18.4375 14.5117C18.4375 15.3733 17.7366 16.0742 16.875 16.0742H3.125C2.26344 16.0742 1.5625 15.3733 1.5625 14.5117V5.65383L8.3498 9.87434C8.85875 10.1908 9.42937 10.349 10 10.349C10.5706 10.349 11.1412 10.1908 11.6502 9.87434L18.4375 5.65383V10.6055C18.4375 11.037 18.7873 11.3867 19.2188 11.3867ZM10.8251 8.54742C10.3162 8.86387 9.68383 8.86391 9.17492 8.54742L2.21441 4.21922C2.47098 4.03461 2.78551 3.92578 3.125 3.92578H16.875C17.2145 3.92578 17.529 4.03465 17.7856 4.21926L10.8251 8.54742Z" fill="#736A63"/>
</svg>
