<svg width="173" height="50" viewBox="0 0 173 50" fill="none" xmlns="http://www.w3.org/2000/svg">
<path d="M12.25 14.5V23.75H28.45V30.25H12.25V43H4.15V8H30.6V14.5H12.25ZM33.5453 16.1H41.3453V43H33.5453V16.1ZM37.4453 12.35C36.012 12.35 34.8453 11.9333 33.9453 11.1C33.0453 10.2667 32.5953 9.23333 32.5953 8C32.5953 6.76666 33.0453 5.73333 33.9453 4.9C34.8453 4.06666 36.012 3.65 37.4453 3.65C38.8786 3.65 40.0453 4.05 40.9453 4.85C41.8453 5.65 42.2953 6.65 42.2953 7.85C42.2953 9.15 41.8453 10.2333 40.9453 11.1C40.0453 11.9333 38.8786 12.35 37.4453 12.35ZM64.4344 41.7C63.6677 42.2667 62.7177 42.7 61.5844 43C60.4844 43.2667 59.3177 43.4 58.0844 43.4C54.8844 43.4 52.401 42.5833 50.6344 40.95C48.901 39.3167 48.0344 36.9167 48.0344 33.75V22.7H43.8844V16.7H48.0344V10.15H55.8344V16.7H62.5344V22.7H55.8344V33.65C55.8344 34.7833 56.1177 35.6667 56.6844 36.3C57.2844 36.9 58.1177 37.2 59.1844 37.2C60.4177 37.2 61.4677 36.8667 62.3344 36.2L64.4344 41.7ZM79.4828 43.4C76.6161 43.4 74.0328 42.8167 71.7328 41.65C69.4661 40.45 67.6828 38.8 66.3828 36.7C65.1161 34.6 64.4828 32.2167 64.4828 29.55C64.4828 26.8833 65.1161 24.5 66.3828 22.4C67.6828 20.3 69.4661 18.6667 71.7328 17.5C74.0328 16.3 76.6161 15.7 79.4828 15.7C82.3161 15.7 84.7828 16.3 86.8828 17.5C89.0161 18.6667 90.5661 20.35 91.5328 22.55L85.4828 25.8C84.0828 23.3333 82.0661 22.1 79.4328 22.1C77.3995 22.1 75.7161 22.7667 74.3828 24.1C73.0495 25.4333 72.3828 27.25 72.3828 29.55C72.3828 31.85 73.0495 33.6667 74.3828 35C75.7161 36.3333 77.3995 37 79.4328 37C82.0995 37 84.1161 35.7667 85.4828 33.3L91.5328 36.6C90.5661 38.7333 89.0161 40.4 86.8828 41.6C84.7828 42.8 82.3161 43.4 79.4828 43.4ZM106.982 43.4C104.149 43.4 101.599 42.8167 99.332 41.65C97.0987 40.45 95.3487 38.8 94.082 36.7C92.8154 34.6 92.182 32.2167 92.182 29.55C92.182 26.8833 92.8154 24.5 94.082 22.4C95.3487 20.3 97.0987 18.6667 99.332 17.5C101.599 16.3 104.149 15.7 106.982 15.7C109.815 15.7 112.349 16.3 114.582 17.5C116.815 18.6667 118.565 20.3 119.832 22.4C121.099 24.5 121.732 26.8833 121.732 29.55C121.732 32.2167 121.099 34.6 119.832 36.7C118.565 38.8 116.815 40.45 114.582 41.65C112.349 42.8167 109.815 43.4 106.982 43.4ZM106.982 37C108.982 37 110.615 36.3333 111.882 35C113.182 33.6333 113.832 31.8167 113.832 29.55C113.832 27.2833 113.182 25.4833 111.882 24.15C110.615 22.7833 108.982 22.1 106.982 22.1C104.982 22.1 103.332 22.7833 102.032 24.15C100.732 25.4833 100.082 27.2833 100.082 29.55C100.082 31.8167 100.732 33.6333 102.032 35C103.332 36.3333 104.982 37 106.982 37ZM132.896 19.65C133.829 18.35 135.079 17.3667 136.646 16.7C138.246 16.0333 140.079 15.7 142.146 15.7V22.9C141.279 22.8333 140.696 22.8 140.396 22.8C138.162 22.8 136.412 23.4333 135.146 24.7C133.879 25.9333 133.246 27.8 133.246 30.3V43H125.446V16.1H132.896V19.65ZM171.389 29.65C171.389 29.75 171.339 30.45 171.239 31.75H150.889C151.256 33.4167 152.123 34.7333 153.489 35.7C154.856 36.6667 156.556 37.15 158.589 37.15C159.989 37.15 161.223 36.95 162.289 36.55C163.389 36.1167 164.406 35.45 165.339 34.55L169.489 39.05C166.956 41.95 163.256 43.4 158.389 43.4C155.356 43.4 152.673 42.8167 150.339 41.65C148.006 40.45 146.206 38.8 144.939 36.7C143.673 34.6 143.039 32.2167 143.039 29.55C143.039 26.9167 143.656 24.55 144.889 22.45C146.156 20.3167 147.873 18.6667 150.039 17.5C152.239 16.3 154.689 15.7 157.389 15.7C160.023 15.7 162.406 16.2667 164.539 17.4C166.673 18.5333 168.339 20.1667 169.539 22.3C170.773 24.4 171.389 26.85 171.389 29.65ZM157.439 21.6C155.673 21.6 154.189 22.1 152.989 23.1C151.789 24.1 151.056 25.4667 150.789 27.2H164.039C163.773 25.5 163.039 24.15 161.839 23.15C160.639 22.1167 159.173 21.6 157.439 21.6Z" fill="#F4EFE7"/>
</svg>
