<svg width="41" height="40" viewBox="0 0 41 40" fill="none" xmlns="http://www.w3.org/2000/svg">
<path d="M28.2531 25.1217C27.9448 25.1217 27.6348 25.0083 27.3964 24.78C26.8964 24.3033 26.8698 23.5217 27.3448 23.0217L27.3614 23.005C27.5314 22.8267 27.7481 22.7033 27.9864 22.6483C32.4481 21.6267 37.1764 16.0167 37.6014 7.5H32.0831C31.3931 7.5 30.8331 6.94 30.8331 6.25C30.8331 5.56 31.3931 5 32.0831 5H38.8831C39.5731 5 40.1331 5.56 40.1331 6.25C40.1331 16.8317 34.3498 23.7117 28.6131 25.07C28.4964 25.1033 28.3748 25.1217 28.2531 25.1217Z" fill="#2A2725"/>
<path d="M11.75 25.1C11.6517 25.1 11.55 25.0883 11.45 25.065C5.76167 23.6633 0 16.7517 0 6.25C0 5.56 0.56 5 1.25 5H7.91667C8.60667 5 9.16667 5.56 9.16667 6.25C9.16667 6.94 8.60667 7.5 7.91667 7.5H2.53C2.94167 16.0067 7.52167 21.5233 12.0483 22.6367C12.7183 22.8017 13.1283 23.4783 12.9633 24.15C12.8233 24.7183 12.3133 25.1 11.75 25.1Z" fill="#2A2725"/>
<path d="M22.0832 35.8333H17.9165C17.2265 35.8333 16.6665 35.2733 16.6665 34.5833V28.2666C16.6665 27.5766 17.2265 27.0166 17.9165 27.0166C18.6065 27.0166 19.1665 27.5766 19.1665 28.2666V33.3333H20.8332V28.2666C20.8332 27.5766 21.3932 27.0166 22.0832 27.0166C22.7732 27.0166 23.3332 27.5766 23.3332 28.2666V34.5833C23.3332 35.2733 22.7732 35.8333 22.0832 35.8333Z" fill="#2A2725"/>
<path d="M27.0832 39.9999H12.9165C12.2265 39.9999 11.6665 39.4399 11.6665 38.7499V37.9166C11.6665 35.3883 13.7215 33.3333 16.2498 33.3333H23.7498C26.2782 33.3333 28.3332 35.3883 28.3332 37.9166V38.7499C28.3332 39.4399 27.7732 39.9999 27.0832 39.9999ZM14.2082 37.4999H25.7915C25.5982 36.5499 24.7548 35.8333 23.7498 35.8333H16.2498C15.2432 35.8333 14.4015 36.5499 14.2082 37.4999Z" fill="#2A2725"/>
<path d="M19.9998 30.4167C19.8615 30.4167 19.7232 30.3933 19.5898 30.3467C19.0648 30.1667 6.73817 25.7683 6.6665 15.0083V2.91667C6.6665 1.30833 7.97484 0 9.58317 0H30.4165C32.0248 0 33.3332 1.30833 33.3332 2.91667V15C33.3332 25.7667 20.9348 30.1667 20.4082 30.3483C20.2765 30.3933 20.1382 30.4167 19.9998 30.4167ZM9.58317 2.5C9.35317 2.5 9.1665 2.68667 9.1665 2.91667V15C9.21984 23.0083 17.9832 27.0133 19.9998 27.8283C22.0198 27.0117 30.8332 22.9883 30.8332 15V2.91667C30.8332 2.68667 30.6465 2.5 30.4165 2.5H9.58317Z" fill="#2A2725"/>
</svg>
