<svg width="40" height="40" viewBox="0 0 40 40" fill="none" xmlns="http://www.w3.org/2000/svg">
<path d="M36.6495 26.619C35.9164 21.0734 33.8639 17.0725 32.1208 14.5567C32.6954 13.2705 33.0154 11.8468 33.0154 10.3495C33.0154 4.64281 28.3726 0 22.666 0C16.9593 0 12.3165 4.64281 12.3165 10.3495C12.3165 16.0562 16.9593 20.6991 22.666 20.6991C23.5318 20.6991 24.3729 20.5916 25.1772 20.3903L25.3025 25.3913C23.7907 24.3032 21.7275 23.3554 18.9725 23.0554C16.7387 22.812 14.8789 22.9934 13.3656 23.3708C11.7732 21.2332 9.56895 19.8054 6.95199 19.2266C4.82379 18.756 3.1548 19.014 3.08496 19.0253L3.45137 21.3402C3.46488 21.338 4.82004 21.1395 6.52949 21.5338C8.33629 21.9508 9.84535 22.8468 11.0304 24.2032C9.09754 25.1255 8.16566 26.2315 8.09441 26.3184L9.90746 27.8037L9.90106 27.8115C9.90762 27.8037 10.5757 27.0282 11.9811 26.3468C13.8756 25.4282 16.1427 25.1045 18.7189 25.3853C21.6094 25.7 23.9286 26.8616 25.6121 28.8378C26.8888 30.3363 27.3141 31.7748 27.3168 31.7839L29.5744 31.1545C29.5545 31.083 29.0924 29.4667 27.7048 27.6962L27.4993 19.4985C28.7712 18.8239 29.8865 17.8921 30.7753 16.7724C33.0454 20.402 33.957 24.1859 34.3164 26.8537C34.6507 29.3341 34.5781 31.2888 34.52 32.1182C32.5087 33.8142 30.1061 35.0598 27.3714 35.8229C25.0247 36.4779 22.4265 36.7818 19.6508 36.7292C14.8675 36.637 11.177 35.4971 11.1411 35.4859L10.5343 35.2947L10.0435 35.6995C7.10223 38.1252 3.48754 37.6084 3.45598 37.6036L3.08504 39.9177C3.14418 39.9273 3.62316 39.9998 4.36918 39.9998C5.90496 39.9998 8.57246 39.6921 11.038 37.8933C12.3251 38.2387 15.5425 38.9864 19.5374 39.0712C22.5511 39.1359 25.3868 38.8055 27.9629 38.0912C31.2193 37.1881 34.0661 35.6667 36.4243 33.5693L36.7544 33.2756L36.8085 32.8372C36.8214 32.7313 37.1231 30.2018 36.6495 26.619ZM22.666 18.3553C18.2516 18.3553 14.6603 14.7639 14.6603 10.3495C14.6603 5.93516 18.2515 2.34375 22.666 2.34375C27.0804 2.34375 30.6718 5.93516 30.6718 10.3495C30.6718 14.7639 27.0804 18.3553 22.666 18.3553Z" fill="#2A2725"/>
<path d="M22.6659 5.24268C19.85 5.24268 17.5591 7.53361 17.5591 10.3495C17.5591 13.1654 19.85 15.4563 22.6659 15.4563C25.4818 15.4563 27.7728 13.1654 27.7728 10.3495C27.7728 7.53353 25.4818 5.24268 22.6659 5.24268ZM22.6659 13.1127C21.1423 13.1127 19.9028 11.8731 19.9028 10.3495C19.9028 8.82588 21.1423 7.58635 22.6659 7.58635C24.1896 7.58635 25.4291 8.82588 25.4291 10.3495C25.429 11.8731 24.1895 13.1127 22.6659 13.1127Z" fill="#2A2725"/>
</svg>
