<svg width="40" height="40" viewBox="0 0 40 40" fill="none" xmlns="http://www.w3.org/2000/svg">
<path d="M35.4084 28.0684C36.3288 28.0684 37.075 27.3222 37.075 26.4018C37.075 25.4813 36.3288 24.7351 35.4084 24.7351C34.4879 24.7351 33.7417 25.4813 33.7417 26.4018C33.7417 27.3222 34.4879 28.0684 35.4084 28.0684Z" fill="#2A2725"/>
<path d="M31.7736 33.4368C32.6941 33.4368 33.4403 32.6907 33.4403 31.7702C33.4403 30.8497 32.6941 30.1035 31.7736 30.1035C30.8531 30.1035 30.1069 30.8497 30.1069 31.7702C30.1069 32.6907 30.8531 33.4368 31.7736 33.4368Z" fill="#2A2725"/>
<path d="M36.6618 21.6734C37.5823 21.6734 38.3285 20.9272 38.3285 20.0068C38.3285 19.0863 37.5823 18.3401 36.6618 18.3401C35.7413 18.3401 34.9951 19.0863 34.9951 20.0068C34.9951 20.9272 35.7413 21.6734 36.6618 21.6734Z" fill="#2A2725"/>
<path d="M26.3752 37.0785C27.2956 37.0785 28.0418 36.3323 28.0418 35.4118C28.0418 34.4913 27.2956 33.7451 26.3752 33.7451C25.4547 33.7451 24.7085 34.4913 24.7085 35.4118C24.7085 36.3323 25.4547 37.0785 26.3752 37.0785Z" fill="#2A2725"/>
<path d="M20.0002 35.0001C17.5997 35.003 15.2336 34.4297 13.1007 33.3285C10.9677 32.2272 9.1302 30.6301 7.74252 28.6714C6.35483 26.7127 5.45751 24.4495 5.12592 22.0721C4.79434 19.6946 5.03819 17.2723 5.83698 15.0086C6.63577 12.745 7.96618 10.7061 9.71642 9.06322C11.4667 7.42038 13.5856 6.22159 15.8953 5.56757C18.2049 4.91355 20.6378 4.82339 22.9896 5.30467C25.3413 5.78596 27.5432 6.82463 29.4102 8.33342H26.6669C26.2248 8.33342 25.8009 8.50901 25.4884 8.82157C25.1758 9.13413 25.0002 9.55805 25.0002 10.0001C25.0002 10.4421 25.1758 10.866 25.4884 11.1786C25.8009 11.4912 26.2248 11.6667 26.6669 11.6667H33.3335C33.7756 11.6667 34.1995 11.4912 34.5121 11.1786C34.8246 10.866 35.0002 10.4421 35.0002 10.0001V3.33341C35.0002 2.89139 34.8246 2.46746 34.5121 2.1549C34.1995 1.84234 33.7756 1.66675 33.3335 1.66675C32.8915 1.66675 32.4676 1.84234 32.155 2.1549C31.8425 2.46746 31.6669 2.89139 31.6669 3.33341V5.88508C29.4004 4.01132 26.7163 2.71053 23.8413 2.09258C20.9663 1.47463 17.9847 1.55767 15.1485 2.33469C12.3124 3.1117 9.70483 4.55987 7.54619 6.55687C5.38756 8.55387 3.74123 11.041 2.74628 13.8083C1.75132 16.5756 1.43695 19.5417 1.82972 22.456C2.2225 25.3704 3.31088 28.1474 5.00294 30.5525C6.695 32.9576 8.94104 34.9202 11.5513 36.2745C14.1616 37.6288 17.0595 38.335 20.0002 38.3334C20.4422 38.3334 20.8662 38.1578 21.1787 37.8453C21.4913 37.5327 21.6669 37.1088 21.6669 36.6667C21.6669 36.2247 21.4913 35.8008 21.1787 35.4882C20.8662 35.1757 20.4422 35.0001 20.0002 35.0001Z" fill="#2A2725"/>
<path d="M26.1785 26.1785C26.4909 25.8659 26.6665 25.4421 26.6665 25.0002C26.6665 24.5582 26.4909 24.1344 26.1785 23.8218L21.6668 19.3102V10.0002C21.6668 9.55814 21.4912 9.13421 21.1787 8.82165C20.8661 8.50909 20.4422 8.3335 20.0002 8.3335C19.5581 8.3335 19.1342 8.50909 18.8217 8.82165C18.5091 9.13421 18.3335 9.55814 18.3335 10.0002V20.0002C18.3336 20.4422 18.5092 20.866 18.8218 21.1785L23.8218 26.1785C24.1344 26.4909 24.5582 26.6665 25.0002 26.6665C25.4421 26.6665 25.8659 26.4909 26.1785 26.1785Z" fill="#2A2725"/>
</svg>
