<svg width="175" height="29" viewBox="0 0 175 29" fill="none" xmlns="http://www.w3.org/2000/svg">
<g clip-path="url(#clip0_1251_2892)">
<path d="M153.197 23.2924V8.85608H157.018V11.4257H157.201C157.505 10.5734 158.013 9.90199 158.726 9.41133C159.439 8.92066 160.287 8.67529 161.269 8.67529C162.269 8.67529 163.117 8.92498 163.812 9.42427C164.516 9.91494 164.985 10.5821 165.22 11.4257H165.377C165.672 10.5907 166.211 9.92357 166.994 9.42427C167.776 8.92498 168.697 8.67529 169.758 8.67529C171.114 8.67529 172.218 9.10145 173.07 9.9537C173.931 10.8059 174.361 12.0154 174.361 13.5821V23.2924H170.319V14.3827C170.319 13.5735 170.102 12.9709 169.667 12.5749C169.241 12.1789 168.706 11.9809 168.063 11.9809C167.332 11.9809 166.759 12.2134 166.342 12.6782C165.933 13.1345 165.729 13.7371 165.729 14.486V23.2924H161.817V14.2794C161.817 13.5821 161.612 13.0268 161.204 12.6136C160.795 12.1919 160.261 11.9809 159.6 11.9809C159.148 11.9809 158.744 12.0928 158.387 12.3167C158.031 12.5405 157.748 12.8504 157.539 13.2464C157.331 13.6337 157.227 14.0986 157.227 14.6409V23.2924H153.197Z" fill="#8B8989"/>
<path d="M147.448 17.1593V8.85645H151.477V23.2927H147.604V20.6715H147.448C147.118 21.5065 146.574 22.1865 145.818 22.7117C145.061 23.2282 144.136 23.4821 143.041 23.4735C142.066 23.4735 141.206 23.2583 140.458 22.8279C139.719 22.3888 139.141 21.7648 138.724 20.9555C138.316 20.1464 138.111 19.1779 138.111 18.0502V8.85645H142.141V17.353C142.141 18.1966 142.371 18.868 142.832 19.3673C143.293 19.858 143.906 20.099 144.671 20.0904C145.157 20.0904 145.609 19.9828 146.026 19.7676C146.443 19.5438 146.783 19.2123 147.043 18.7733C147.313 18.3343 147.448 17.7963 147.448 17.1593Z" fill="#8B8989"/>
<path d="M136.745 12.9752L133.054 13.1947C132.959 12.7385 132.702 12.3468 132.285 12.0197C131.868 11.6839 131.307 11.5161 130.603 11.5161C129.977 11.5161 129.451 11.6452 129.025 11.9035C128.608 12.1617 128.399 12.5061 128.399 12.9365C128.399 13.2808 128.534 13.5778 128.804 13.8275C129.081 14.0685 129.556 14.2579 130.225 14.3956L132.872 14.9121C134.289 15.1962 135.345 15.6567 136.041 16.2937C136.736 16.9307 137.084 17.7701 137.084 18.8117C137.084 19.7672 136.806 20.6023 136.249 21.3167C135.693 22.0227 134.928 22.5779 133.954 22.9825C132.981 23.3784 131.864 23.5765 130.603 23.5765C128.673 23.5765 127.134 23.1761 125.987 22.3756C124.848 21.575 124.183 20.4903 123.992 19.1216L127.943 18.915C128.074 19.5004 128.369 19.9437 128.829 20.245C129.291 20.5463 129.881 20.6969 130.603 20.6969C131.307 20.6969 131.876 20.5592 132.311 20.2837C132.754 20.0083 132.976 19.6596 132.976 19.2378C132.976 18.5233 132.351 18.0412 131.099 17.7916L128.582 17.2751C127.165 16.991 126.109 16.5047 125.413 15.816C124.718 15.1273 124.37 14.2449 124.37 13.1689C124.37 12.2392 124.626 11.4386 125.139 10.7672C125.652 10.0957 126.369 9.57917 127.291 9.21766C128.221 8.85608 129.308 8.67529 130.551 8.67529C132.394 8.67529 133.841 9.06269 134.893 9.83749C135.954 10.6036 136.571 11.6495 136.745 12.9752Z" fill="#8B8989"/>
<path d="M109.352 28.6898V8.85608H113.316V11.2966H113.498C113.681 10.9006 113.942 10.5003 114.281 10.0957C114.619 9.69114 115.063 9.35538 115.611 9.08851C116.159 8.81308 116.837 8.67529 117.645 8.67529C118.714 8.67529 119.692 8.95079 120.579 9.50172C121.474 10.044 122.192 10.8661 122.73 11.9681C123.269 13.0699 123.539 14.4473 123.539 16.1001C123.539 17.7012 123.278 19.057 122.757 20.1675C122.235 21.2694 121.527 22.1044 120.631 22.6726C119.744 23.2407 118.744 23.5248 117.632 23.5248C116.849 23.5248 116.184 23.3957 115.637 23.1375C115.089 22.8791 114.642 22.5564 114.294 22.169C113.954 21.773 113.689 21.377 113.498 20.9811H113.381V28.6898H109.352ZM116.354 20.3483C117.014 20.3483 117.571 20.1675 118.023 19.806C118.475 19.4444 118.819 18.9451 119.053 18.3081C119.288 17.6625 119.405 16.9222 119.405 16.0871C119.405 15.2521 119.288 14.5204 119.053 13.892C118.827 13.255 118.488 12.7557 118.036 12.3942C117.584 12.0326 117.023 11.8519 116.354 11.8519C115.702 11.8519 115.146 12.0283 114.685 12.3812C114.233 12.7256 113.885 13.2163 113.642 13.8533C113.407 14.4817 113.289 15.2263 113.289 16.0871C113.289 16.9394 113.412 17.684 113.654 18.321C113.898 18.9581 114.246 19.4574 114.698 19.8189C115.159 20.1718 115.711 20.3483 116.354 20.3483Z" fill="#8B8989"/>
<path d="M103.603 23.2927V8.85639H107.632V23.2927H103.603ZM105.611 7.00991C105.011 7.00991 104.498 6.81191 104.072 6.41592C103.646 6.01994 103.434 5.54217 103.434 4.98263C103.434 4.42308 103.646 3.94962 104.072 3.56224C104.498 3.16625 105.011 2.96826 105.611 2.96826C106.219 2.96826 106.736 3.16625 107.163 3.56224C107.589 3.94962 107.801 4.42308 107.801 4.98263C107.801 5.54217 107.589 6.01994 107.163 6.41592C106.736 6.81191 106.219 7.00991 105.611 7.00991Z" fill="#8B8989"/>
<path d="M95.3129 23.5765C93.8436 23.5765 92.57 23.2665 91.4922 22.6467C90.4229 22.0183 89.5972 21.1489 89.0143 20.0384C88.4407 18.9193 88.1543 17.6195 88.1543 16.1388C88.1543 14.6409 88.4407 13.3368 89.0143 12.2263C89.5972 11.1072 90.4229 10.2378 91.4922 9.61793C92.57 8.98955 93.8436 8.67529 95.3129 8.67529C96.7907 8.67529 98.0643 8.98955 99.1336 9.61793C100.211 10.2378 101.037 11.1072 101.611 12.2263C102.194 13.3368 102.485 14.6409 102.485 16.1388C102.485 17.6195 102.194 18.9193 101.611 20.0384C101.037 21.1489 100.211 22.0183 99.1336 22.6467C98.0643 23.2665 96.7907 23.5765 95.3129 23.5765ZM95.3386 20.4516C96.0086 20.4516 96.5693 20.2665 97.0207 19.8964C97.4729 19.5176 97.8122 19.0011 98.0379 18.3469C98.2729 17.6926 98.39 16.948 98.39 16.1129C98.39 15.2693 98.2729 14.5247 98.0379 13.8791C97.8122 13.2335 97.4729 12.7256 97.0207 12.3554C96.5693 11.9853 96.0086 11.8001 95.3386 11.8001C94.6607 11.8001 94.0914 11.9853 93.6307 12.3554C93.1786 12.7256 92.835 13.2335 92.6007 13.8791C92.3743 14.5247 92.2614 15.2693 92.2614 16.1129C92.2614 16.948 92.3743 17.6926 92.6007 18.3469C92.835 19.0011 93.1786 19.5176 93.6307 19.8964C94.0914 20.2665 94.6607 20.4516 95.3386 20.4516Z" fill="#8B8989"/>
<path d="M79.9286 28.9998C77.9636 28.9998 76.425 28.6124 75.3122 27.8376C74.1993 27.0715 73.5214 26.1159 73.2779 24.971L77.0079 24.4804C77.1207 24.7731 77.2986 25.0442 77.5422 25.2938C77.7857 25.5435 78.1115 25.7414 78.52 25.8878C78.9286 26.0428 79.4286 26.1202 80.02 26.1202C80.8979 26.1202 81.6236 25.9094 82.1972 25.4875C82.7715 25.0743 83.0579 24.3727 83.0579 23.3828V20.7357H82.8886C82.7143 21.1316 82.4493 21.5104 82.0929 21.872C81.7365 22.2336 81.28 22.5263 80.7236 22.7501C80.1672 22.9739 79.5022 23.0857 78.7286 23.0857C77.6336 23.0857 76.6379 22.8361 75.7429 22.3368C74.8557 21.829 74.1429 21.0542 73.6043 20.0126C73.0736 18.9709 72.8086 17.6539 72.8086 16.0613C72.8086 14.4172 73.0779 13.0484 73.6172 11.9551C74.165 10.8618 74.8865 10.044 75.7815 9.50172C76.6772 8.95079 77.6593 8.67529 78.7286 8.67529C79.5457 8.67529 80.2286 8.81308 80.7757 9.08851C81.3322 9.35538 81.7843 9.69114 82.1322 10.0957C82.48 10.5003 82.7407 10.9006 82.9143 11.2966H83.0707V8.85608H87.0479V23.4473C87.0479 24.6697 86.7436 25.6941 86.1357 26.5205C85.5272 27.3469 84.6879 27.9667 83.6186 28.3799C82.5493 28.7932 81.3193 28.9998 79.9286 28.9998ZM80.0065 20.0772C80.98 20.0772 81.7322 19.7199 82.2629 19.0054C82.8015 18.2909 83.0707 17.301 83.0707 16.0355C83.0707 15.1919 82.9493 14.4602 82.7057 13.8403C82.4715 13.212 82.1279 12.7256 81.6757 12.3812C81.2236 12.0283 80.6672 11.8519 80.0065 11.8519C79.3457 11.8519 78.785 12.0326 78.3243 12.3942C77.8722 12.7471 77.5293 13.2378 77.2943 13.8662C77.06 14.4946 76.9422 15.2177 76.9422 16.0355C76.9422 16.8619 77.06 17.5807 77.2943 18.1919C77.5293 18.7945 77.8722 19.2594 78.3243 19.5864C78.785 19.9136 79.3457 20.0772 80.0065 20.0772Z" fill="#8B8989"/>
<path d="M65.1178 23.5765C63.6487 23.5765 62.3751 23.2665 61.2972 22.6467C60.2279 22.0183 59.4021 21.1489 58.8196 20.0384C58.2459 18.9193 57.959 17.6195 57.959 16.1388C57.959 14.6409 58.2459 13.3368 58.8196 12.2263C59.4021 11.1072 60.2279 10.2378 61.2972 9.61793C62.3751 8.98955 63.6487 8.67529 65.1178 8.67529C66.5957 8.67529 67.8693 8.98955 68.9386 9.61793C70.0165 10.2378 70.8423 11.1072 71.4161 12.2263C71.9986 13.3368 72.2901 14.6409 72.2901 16.1388C72.2901 17.6195 71.9986 18.9193 71.4161 20.0384C70.8423 21.1489 70.0165 22.0183 68.9386 22.6467C67.8693 23.2665 66.5957 23.5765 65.1178 23.5765ZM65.1439 20.4516C65.8133 20.4516 66.3741 20.2665 66.8261 19.8964C67.2781 19.5176 67.6172 19.0011 67.8432 18.3469C68.0779 17.6926 68.1953 16.948 68.1953 16.1129C68.1953 15.2693 68.0779 14.5247 67.8432 13.8791C67.6172 13.2335 67.2781 12.7256 66.8261 12.3554C66.3741 11.9853 65.8133 11.8001 65.1439 11.8001C64.4659 11.8001 63.8965 11.9853 63.4357 12.3554C62.9837 12.7256 62.6403 13.2335 62.4056 13.8791C62.1796 14.5247 62.0666 15.2693 62.0666 16.1129C62.0666 16.948 62.1796 17.6926 62.4056 18.3469C62.6403 19.0011 62.9837 19.5176 63.4357 19.8964C63.8965 20.2665 64.4659 20.4516 65.1439 20.4516Z" fill="#8B8989"/>
<path d="M45 23.2925V4.05273H49.0945V19.9352H57.4269V23.2925H45Z" fill="#8B8989"/>
<path d="M26.7105 28.2927C31.3054 28.2 35 24.4783 35 19.9031C35 17.678 34.108 15.5441 32.5201 13.9708L18.4211 0V8.6838C18.4211 10.1361 19.0033 11.5289 20.0397 12.5559L23.3425 15.8286L23.3515 15.8373L28.8894 21.3249C29.0693 21.5031 29.0693 21.792 28.8894 21.9702C28.7096 22.1484 28.418 22.1484 28.2382 21.9702L26.3293 20.0787H8.67071L6.76182 21.9702C6.58197 22.1484 6.29039 22.1484 6.11054 21.9702C5.93069 21.792 5.93069 21.5031 6.11054 21.3249L11.6485 15.8373L11.6575 15.8286L14.9603 12.5559C15.9967 11.5289 16.5789 10.1361 16.5789 8.6838V0L2.47982 13.9708C0.892014 15.5441 0 17.678 0 19.9031C0 24.4783 3.69466 28.2 8.2895 28.2927H26.7105Z" fill="#8B8989"/>
</g>
<defs>
<clipPath id="clip0_1251_2892">
<rect width="175" height="29" fill="white"/>
</clipPath>
</defs>
</svg>
