<svg width="25" height="20" viewBox="0 0 25 20" fill="none" xmlns="http://www.w3.org/2000/svg">
<path d="M21.6 11.2519H1.67183C0.748309 11.2519 0 10.5036 0 9.58005C0 8.65652 0.748309 7.9082 1.67183 7.9082H21.6C22.5235 7.9082 23.2718 8.65652 23.2718 9.58005C23.2718 10.5036 22.5235 11.2519 21.6 11.2519Z" fill="#F4EFE7"/>
<path d="M13.9437 19.1594C13.495 19.1594 13.0469 18.9796 12.7172 18.6245C12.0893 17.9477 12.1294 16.8897 12.8062 16.2618L19.993 9.59646L12.5888 2.91307C11.9034 2.29448 11.8492 1.2372 12.4678 0.551743C13.0864 -0.133716 14.1436 -0.187884 14.8291 0.430701L23.5895 8.33856C23.9379 8.65287 24.1378 9.09892 24.1412 9.56837C24.1445 10.0378 23.9506 10.4866 23.6062 10.8055L15.0799 18.7134C14.7582 19.0117 14.3503 19.1594 13.9437 19.1594Z" fill="#F4EFE7"/>
</svg>
