<svg width="15" height="15" viewBox="0 0 15 15" fill="none" xmlns="http://www.w3.org/2000/svg">
<path d="M11.875 13.75H3.125C2.09106 13.75 1.25 12.9089 1.25 11.875V3.125C1.25 2.09106 2.09106 1.25 3.125 1.25H11.875C12.9089 1.25 13.75 2.09106 13.75 3.125V11.875C13.75 12.9089 12.9089 13.75 11.875 13.75ZM3.125 2.5C2.78015 2.5 2.5 2.78046 2.5 3.125V11.875C2.5 12.2195 2.78015 12.5 3.125 12.5H11.875C12.2198 12.5 12.5 12.2195 12.5 11.875V3.125C12.5 2.78046 12.2198 2.5 11.875 2.5H3.125ZM7.16065 9.5044L10.2856 6.3794C10.5298 6.13525 10.5298 5.73975 10.2856 5.49561C10.0415 5.25147 9.646 5.25147 9.40186 5.49561L6.71875 8.17871L5.59815 7.05811C5.354 6.81397 4.9585 6.81397 4.71436 7.05811C4.47022 7.30225 4.47022 7.69775 4.71436 7.9419L6.27686 9.5044C6.39893 9.62647 6.55884 9.6875 6.71875 9.6875C6.87866 9.6875 7.03857 9.62647 7.16065 9.5044Z" fill="#8B8989"/>
</svg>
