<svg width="175" height="33" viewBox="0 0 175 33" fill="none" xmlns="http://www.w3.org/2000/svg">
<g clip-path="url(#clip0_1279_3107)">
<path d="M168.639 8.44482L168.735 8.47733C169.99 8.50975 171.084 9.38615 171.405 10.587L171.438 10.7169L174.687 24.0242H170.376L168.446 16.1047L166.934 20.9408C166.483 22.2716 165.261 23.2128 163.845 23.2128C162.494 23.2128 161.272 22.3364 160.821 21.0706L160.756 20.9408L159.244 16.1047L157.314 24.0242H153.035L156.252 10.7169L156.285 10.587C156.639 9.32122 157.764 8.44482 159.084 8.44482L159.181 8.47733C160.37 8.50975 161.4 9.28872 161.819 10.3923L161.851 10.4897L163.845 16.8187L165.84 10.4897L165.872 10.3923C166.29 9.22379 167.384 8.44482 168.639 8.44482Z" fill="#8B8989"/>
<path d="M145.129 24.0242C140.85 24.0242 137.408 20.5513 137.408 16.2346V8.44482H141.558V16.2346C141.558 18.2144 143.167 19.8372 145.129 19.8372C147.059 19.8372 148.668 18.2144 148.668 16.2346V8.44482H152.851V16.2346C152.851 20.5513 149.376 24.0242 145.129 24.0242Z" fill="#8B8989"/>
<path d="M136.652 8.44482V12.6643C134.85 12.6643 133.274 13.8652 132.759 15.6179L132.019 18.0846C130.99 21.6224 127.772 24.0242 124.137 24.0242V19.8372C125.906 19.8372 127.515 18.6364 128.029 16.8837L128.737 14.4169C129.767 10.8792 132.984 8.44482 136.652 8.44482Z" fill="#8B8989"/>
<path d="M119.968 15.1959C120.643 15.1959 121.222 14.6441 121.222 13.9301C121.222 13.2485 120.643 12.6643 119.968 12.6643H115.367V15.1959H119.968ZM119.968 8.44482C122.96 8.44482 125.405 10.9116 125.405 13.9301C125.405 16.9486 122.96 19.4153 119.968 19.4153H115.367V24.0242H111.217V12.2423C111.217 10.1651 112.89 8.44482 114.949 8.44482H119.968Z" fill="#8B8989"/>
<path d="M105.033 8.44482H109.183V24.0242H105.033V8.44482Z" fill="#8B8989"/>
<path d="M95.6746 12.4694H94.8381C92.7471 12.4694 91.0739 14.1572 91.0739 16.2344C91.0739 18.3441 92.7471 20.0319 94.8381 20.0319H95.6746C97.7657 20.0319 99.4388 18.3441 99.4388 16.2344C99.4388 14.1572 97.7657 12.4694 95.6746 12.4694ZM94.8381 8.25H95.6746C100.05 8.25 103.589 11.8203 103.589 16.2344C103.589 20.681 100.05 24.2513 95.6746 24.2513H94.8381C90.4631 24.2513 86.9238 20.681 86.9238 16.2344C86.9238 11.8203 90.4631 8.25 94.8381 8.25Z" fill="#8B8989"/>
<path d="M85.1605 12.6643H77.0533C75.0908 12.6643 73.4822 14.2871 73.4822 16.2346C73.4822 18.2144 75.0908 19.8372 77.0533 19.8372H81.0748C81.4931 19.7723 81.8469 19.4153 81.8469 18.9609V18.5715H75.5734V14.3521H82.5551C84.485 14.3521 85.997 15.91 85.997 17.8249V18.9609C85.997 21.7198 83.8414 23.9593 81.107 24.0242H77.0533C72.7744 24.0242 69.332 20.5513 69.332 16.2346C69.332 11.9502 72.7744 8.44482 77.0533 8.44482H85.1605V12.6643Z" fill="#8B8989"/>
<path d="M60.6825 12.4694H59.846C57.7547 12.4694 56.0818 14.1572 56.0818 16.2344C56.0818 18.3441 57.7547 20.0319 59.846 20.0319H60.6825C62.7736 20.0319 64.4465 18.3441 64.4465 16.2344C64.4465 14.1572 62.7736 12.4694 60.6825 12.4694ZM59.846 8.25H60.6825C65.0578 8.25 68.5967 11.8203 68.5967 16.2344C68.5967 20.681 65.0578 24.2513 60.6825 24.2513H59.846C55.4706 24.2513 51.9316 20.681 51.9316 16.2344C51.9316 11.8203 55.4706 8.25 59.846 8.25Z" fill="#8B8989"/>
<path d="M38.4355 17.7276V8.44482H42.5857V17.7276C42.5857 18.896 43.5187 19.8372 44.6769 19.8372H50.9505V24.0242H44.6769C41.2345 24.0242 38.4355 21.2005 38.4355 17.7276Z" fill="#8B8989"/>
<path d="M6.22502 2.07172C9.02894 0.502374 12.2287 -0.200864 15.4256 0.0494982C18.6224 0.299871 21.6759 1.49301 24.2061 3.48002C26.7363 5.4671 28.6316 8.16133 29.6564 11.2264C30.6813 14.2916 30.7912 17.5932 29.9711 20.7205L29.8066 21.3029C28.9339 24.1968 27.2881 26.7975 25.0446 28.8158L24.5886 29.2105C22.2791 31.1393 19.4848 32.393 16.5101 32.8287L15.9143 32.9053C13.9006 33.1245 11.8711 32.9618 9.92724 32.4364L12.72 29.619C13.8188 29.7417 14.9342 29.7253 16.0397 29.5634C18.5783 29.1916 20.953 28.0751 22.8677 26.3528C24.7822 24.6305 26.1526 22.3778 26.8087 19.8761C27.4236 17.5307 27.3853 15.0625 26.7025 12.7427L26.5572 12.2811C25.7372 9.82905 24.221 7.67357 22.1969 6.08392C20.2993 4.59377 18.0337 3.66231 15.6508 3.38656L15.1724 3.33983C12.6149 3.13954 10.055 3.70214 7.81182 4.95761C6.31776 5.79388 5.00969 6.91463 3.95143 8.24713H0C1.48049 5.66185 3.62935 3.52454 6.22502 2.07172Z" fill="#8B8989"/>
<path d="M8.76175 6.31219C10.6463 5.29606 12.7755 4.83299 14.9078 4.97398C17.0399 5.11503 19.0908 5.85498 20.8277 7.1106C22.5643 8.36618 23.9183 10.0871 24.736 12.0784C25.5537 14.0698 25.8019 16.2534 25.454 18.3802C25.1058 20.5069 24.1746 22.4935 22.7658 24.1141C21.357 25.7347 19.5263 26.9254 17.4816 27.5511L17.0967 27.6623C16.1732 27.9097 15.2261 28.036 14.2777 28.0458L19.7815 22.494C19.9653 22.3185 20.1425 22.135 20.3102 21.9421C21.3171 20.7838 21.9828 19.3637 22.2316 17.8436C22.4804 16.3236 22.3025 14.7633 21.7181 13.34C21.1338 11.9167 20.1659 10.6868 18.9247 9.78947L18.6899 9.62505C17.5005 8.82711 16.1224 8.35645 14.6938 8.2619L14.4086 8.24739C14.2811 8.24347 14.1533 8.2437 14.0261 8.24578H6.15039C6.9222 7.48354 7.80013 6.83078 8.76175 6.31219Z" fill="#8B8989"/>
<path d="M6.95951 26.1138C6.60518 26.4716 6.65417 27.0653 7.06229 27.3591C7.38491 27.5913 7.82663 27.554 8.10697 27.2714L16.4661 18.8383C17.7468 17.5461 17.7468 15.451 16.4661 14.1589C15.851 13.5385 15.0166 13.1898 14.1469 13.1898H5.00901C4.6439 13.1898 4.32204 13.4329 4.21901 13.7862C4.06425 14.3177 4.45929 14.85 5.00844 14.8504L13.676 14.8578C15.3145 14.8586 16.1347 16.8573 14.9759 18.0265L6.95951 26.1138ZM10.4199 29.6048C9.00926 31.0277 6.78587 31.2142 5.16211 30.0452C3.10824 28.5665 2.86255 25.5804 4.64655 23.7803L10.2223 18.1552L5.00675 18.1506C2.27459 18.1489 0.31011 15.4991 1.08104 12.8548C1.5935 11.097 3.19285 9.89014 5.00901 9.89014H14.1469C15.8841 9.89014 17.5506 10.5861 18.779 11.8253C21.3372 14.4063 21.3372 18.5908 18.779 21.1717L10.4199 29.6048Z" fill="#8B8989"/>
</g>
<defs>
<clipPath id="clip0_1279_3107">
<rect width="175" height="33" fill="white"/>
</clipPath>
</defs>
</svg>
