<svg width="175" height="29" viewBox="0 0 175 29" fill="none" xmlns="http://www.w3.org/2000/svg">
<g clip-path="url(#clip0_1279_3120)">
<path d="M143.879 7.58154H150.339L156.352 17.8511L162.385 7.58154H168.845V21.0688H165.81V7.71639L157.968 21.0688H154.757L146.895 7.71639V21.0688H143.879V7.58154Z" fill="#8B8989"/>
<path d="M124.42 15.828C122.124 15.828 120.275 13.9976 120.275 11.7048C120.275 9.43124 122.124 7.58154 124.42 7.58154H142.03V10.5872H124.42C123.797 10.5872 123.291 11.0882 123.291 11.7048C123.291 12.3406 123.797 12.8416 124.42 12.8416H137.866C140.162 12.8416 142.03 14.672 142.03 16.9648C142.03 19.2384 140.162 21.0688 137.866 21.0688H120.275V18.0823H137.866C138.489 18.0823 138.995 17.5813 138.995 16.9648C138.995 16.329 138.489 15.828 137.866 15.828H124.42Z" fill="#8B8989"/>
<path d="M113.389 7.58154C116.308 7.58154 118.683 9.93214 118.683 12.8416C118.683 15.7317 116.308 18.0823 113.389 18.0823H99.768V21.0688H96.752V7.58154H113.389ZM113.37 15.0766C114.635 15.0766 115.647 14.0746 115.647 12.8416C115.647 11.5892 114.635 10.5872 113.37 10.5872H99.768V15.0766H113.37Z" fill="#8B8989"/>
<path d="M80.5259 10.5872C78.4245 10.5872 76.7316 12.2635 76.7316 14.3251C76.7316 16.406 78.4245 18.0823 80.5259 18.0823H91.7735V15.7317H80.2338V12.7452H94.8093V21.0688H80.5259C76.7506 21.0688 73.7148 18.063 73.7148 14.3251C73.7148 10.6065 76.7506 7.58154 80.5259 7.58154H94.8093V10.5872H80.5259Z" fill="#8B8989"/>
<path d="M54.1836 21.0688V7.58154H57.1998V18.0823H72.4364V21.0688H54.1836Z" fill="#8B8989"/>
<path d="M174.496 6.82801C174.496 7.79605 173.703 8.58086 172.726 8.58086C171.748 8.58086 170.955 7.79605 170.955 6.82801C170.955 5.85996 171.748 5.0752 172.726 5.0752C173.703 5.0752 174.496 5.85996 174.496 6.82801Z" fill="#8B8989"/>
<path d="M23.4316 7.25H30.7538C34.7977 7.25 38.076 10.496 38.076 14.5C38.076 18.504 34.7977 21.75 30.7538 21.75H26.3605V20.3H30.7538C33.989 20.3 36.6116 17.7033 36.6116 14.5C36.6116 11.2967 33.989 8.7 30.7538 8.7H23.4316V15.95H30.7538C31.5626 15.95 32.2183 15.3008 32.2183 14.5C32.2183 13.6992 31.5626 13.05 30.7538 13.05H26.3605V11.6H30.7538C32.3714 11.6 33.6827 12.8984 33.6827 14.5C33.6827 16.1016 32.3714 17.4 30.7538 17.4H23.4316V24.65H30.7538C36.4153 24.65 41.0049 20.1057 41.0049 14.5C41.0049 8.8943 36.4153 4.35 30.7538 4.35H26.3605V2.9H30.7538C37.2241 2.9 42.4693 8.09347 42.4693 14.5C42.4693 20.9065 37.2241 26.1 30.7538 26.1H23.4316V29H30.7538C38.8417 29 45.3982 22.5081 45.3982 14.5C45.3982 6.49188 38.8417 0 30.7538 0H23.4316V7.25Z" fill="#8B8989"/>
<path d="M14.6444 0C6.5565 0 0 6.49188 0 14.5C0 22.5081 6.5565 29 14.6444 29H21.9665V21.75H14.6444C10.6005 21.75 7.32218 18.504 7.32218 14.5C7.32218 10.496 10.6005 7.25 14.6444 7.25H19.0377V8.7H14.6444C11.4092 8.7 8.78661 11.2967 8.78661 14.5C8.78661 17.7033 11.4092 20.3 14.6444 20.3H21.9665V13.05H14.6444C13.8355 13.05 13.1799 13.6992 13.1799 14.5C13.1799 15.3008 13.8355 15.95 14.6444 15.95H19.0377V17.4H14.6444C13.0268 17.4 11.7155 16.1016 11.7155 14.5C11.7155 12.8984 13.0268 11.6 14.6444 11.6H21.9665V4.35H14.6444C8.98285 4.35 4.39331 8.8943 4.39331 14.5C4.39331 20.1057 8.98285 24.65 14.6444 24.65H19.0377V26.1H14.6444C8.17404 26.1 2.92887 20.9065 2.92887 14.5C2.92887 8.09347 8.17404 2.9 14.6444 2.9H21.9665V0H14.6444Z" fill="#8B8989"/>
</g>
<defs>
<clipPath id="clip0_1279_3120">
<rect width="175" height="29" fill="white"/>
</clipPath>
</defs>
</svg>
