<svg width="175" height="31" viewBox="0 0 175 31" fill="none" xmlns="http://www.w3.org/2000/svg">
<g clip-path="url(#clip0_1279_3095)">
<path fill-rule="evenodd" clip-rule="evenodd" d="M0 10.814V22.3488H3.66109C4.0457 22.3488 4.42656 22.4235 4.78194 22.5684C5.13723 22.7133 5.46017 22.9257 5.73207 23.1935C6.00406 23.4612 6.21983 23.7792 6.36704 24.129C6.51416 24.4789 6.58996 24.8539 6.58996 25.2326V28.8372H15.3766L26.3598 18.0233V6.48837H22.6987C22.3141 6.48837 21.9333 6.41379 21.5779 6.26887C21.2226 6.12395 20.8997 5.91153 20.6277 5.64375C20.3558 5.37598 20.14 5.05806 19.9928 4.7082C19.8457 4.35834 19.7699 3.98336 19.7699 3.60465V0H10.9833L0 10.814ZM12.4477 21.6279H7.32218V13.6977L13.9121 7.2093H19.0377V15.1395L12.4477 21.6279Z" fill="#8B8989"/>
<path d="M168.826 8.82812C170.676 8.82812 172.163 9.39045 173.287 10.5151C174.429 11.6219 175 13.175 175 15.1744V23.8772H171.193V15.6832C171.193 14.5228 170.893 13.6392 170.295 13.0322C169.697 12.4074 168.881 12.095 167.847 12.095C166.814 12.095 165.989 12.4074 165.372 13.0322C164.774 13.6392 164.475 14.5228 164.475 15.6832V23.8772H160.668V15.6832C160.668 14.5228 160.368 13.6392 159.77 13.0322C159.172 12.4074 158.356 12.095 157.322 12.095C156.271 12.095 155.437 12.4074 154.82 13.0322C154.222 13.6392 153.923 14.5228 153.923 15.6832V23.8772H150.115V9.04231H153.923V10.8364C154.413 10.2117 155.038 9.72071 155.799 9.3637C156.579 9.00663 157.431 8.82812 158.356 8.82812C159.534 8.82812 160.586 9.07807 161.511 9.57789C162.436 10.0599 163.152 10.7561 163.659 11.6666C164.149 10.8097 164.856 10.1223 165.78 9.60464C166.723 9.08694 167.739 8.82812 168.826 8.82812Z" fill="#8B8989"/>
<path d="M147.311 9.04248V23.8774H143.476V22.0029C142.987 22.6456 142.343 23.1543 141.545 23.5292C140.765 23.8862 139.913 24.0648 138.988 24.0648C137.81 24.0648 136.767 23.8238 135.861 23.3418C134.955 22.8419 134.238 22.1189 133.713 21.1728C133.205 20.2088 132.951 19.0663 132.951 17.7453V9.04248H136.759V17.2097C136.759 18.3879 137.057 19.2984 137.656 19.941C138.255 20.5658 139.07 20.8782 140.103 20.8782C141.156 20.8782 141.98 20.5658 142.578 19.941C143.177 19.2984 143.476 18.3879 143.476 17.2097V9.04248H147.311Z" fill="#8B8989"/>
<path d="M124.984 24.1186C123.751 24.1186 122.645 23.9044 121.666 23.4759C120.687 23.0297 119.907 22.4316 119.327 21.6818C118.765 20.9321 118.457 20.102 118.402 19.1915H122.237C122.309 19.7628 122.591 20.2359 123.08 20.6107C123.588 20.9856 124.213 21.1731 124.956 21.1731C125.682 21.1731 126.244 21.0302 126.643 20.7446C127.06 20.459 127.269 20.093 127.269 19.6468C127.269 19.1648 127.015 18.8077 126.507 18.5756C126.017 18.3258 125.229 18.0579 124.141 17.7723C123.017 17.5045 122.092 17.2278 121.367 16.9422C120.66 16.6566 120.043 16.2192 119.518 15.6301C119.009 15.041 118.756 14.2466 118.756 13.2469C118.756 12.4257 118.992 11.676 119.463 10.9976C119.952 10.3192 120.641 9.78366 121.53 9.3909C122.437 8.99814 123.497 8.80176 124.712 8.80176C126.507 8.80176 127.939 9.24809 129.009 10.1407C130.079 11.0154 130.668 12.2025 130.777 13.7021H127.133C127.078 13.113 126.824 12.6489 126.371 12.3097C125.936 11.9527 125.347 11.7741 124.603 11.7741C123.914 11.7741 123.379 11.8991 122.998 12.149C122.636 12.3989 122.454 12.747 122.454 13.1933C122.454 13.6932 122.709 14.077 123.216 14.3448C123.724 14.5947 124.513 14.8535 125.582 15.1213C126.67 15.3891 127.568 15.6658 128.275 15.9514C128.982 16.2371 129.589 16.6833 130.097 17.2903C130.623 17.8794 130.895 18.6649 130.913 19.6468C130.913 20.5036 130.668 21.2713 130.179 21.9497C129.707 22.628 129.018 23.1636 128.112 23.5563C127.223 23.9312 126.181 24.1186 124.984 24.1186Z" fill="#8B8989"/>
<path d="M105.544 11.185C106.034 10.5066 106.704 9.94429 107.557 9.49803C108.427 9.0339 109.415 8.80176 110.521 8.80176C111.808 8.80176 112.969 9.11421 114.002 9.73904C115.054 10.3638 115.878 11.2564 116.477 12.4168C117.094 13.5593 117.401 14.8892 117.401 16.4066C117.401 17.924 117.094 19.2718 116.477 20.45C115.878 21.6105 115.054 22.512 114.002 23.1546C112.969 23.7973 111.808 24.1186 110.521 24.1186C109.415 24.1186 108.436 23.8954 107.584 23.4492C106.75 23.0029 106.07 22.4405 105.544 21.7622V30.9469H101.736V9.04276H105.544V11.185ZM113.513 16.4066C113.513 15.5141 113.322 14.7464 112.941 14.1038C112.579 13.4433 112.089 12.9434 111.473 12.6042C110.874 12.265 110.222 12.0955 109.515 12.0955C108.826 12.0955 108.173 12.274 107.557 12.631C106.958 12.9702 106.469 13.47 106.088 14.1305C105.725 14.791 105.544 15.5676 105.544 16.4602C105.544 17.3528 105.725 18.1294 106.088 18.7899C106.469 19.4504 106.958 19.9592 107.557 20.3162C108.173 20.6554 108.826 20.825 109.515 20.825C110.222 20.825 110.874 20.6464 111.473 20.2894C112.089 19.9323 112.579 19.4236 112.941 18.7631C113.322 18.1026 113.513 17.3171 113.513 16.4066Z" fill="#8B8989"/>
<path d="M97.0496 7.27534C96.3789 7.27534 95.8173 7.07003 95.3641 6.65944C94.9284 6.231 94.7109 5.70437 94.7109 5.07956C94.7109 4.45475 94.9284 3.93705 95.3641 3.52646C95.8173 3.09801 96.3789 2.88379 97.0496 2.88379C97.7211 2.88379 98.2739 3.09801 98.7089 3.52646C99.1621 3.93705 99.3891 4.45475 99.3891 5.07956C99.3891 5.70437 99.1621 6.231 98.7089 6.65944C98.2739 7.07003 97.7211 7.27534 97.0496 7.27534ZM98.9263 9.04262V23.8775H95.1188V9.04262H98.9263Z" fill="#8B8989"/>
<path d="M85.4175 24.1186C83.967 24.1186 82.6622 23.8062 81.5016 23.1814C80.3411 22.5387 79.4258 21.6372 78.7544 20.4769C78.102 19.3165 77.7754 17.9776 77.7754 16.4602C77.7754 14.9428 78.1107 13.6039 78.7815 12.4435C79.4705 11.2832 80.4048 10.3906 81.5829 9.76579C82.7618 9.12315 84.0761 8.80176 85.5266 8.80176C86.9772 8.80176 88.2915 9.12315 89.4704 9.76579C90.6485 10.3906 91.5733 11.2832 92.244 12.4435C92.933 13.6039 93.2779 14.9428 93.2779 16.4602C93.2779 17.9776 92.9242 19.3165 92.2169 20.4769C91.5279 21.6372 90.5855 22.5387 89.3884 23.1814C88.2102 23.8062 86.8864 24.1186 85.4175 24.1186ZM85.4175 20.8517C86.1066 20.8517 86.7502 20.691 87.3491 20.3697C87.9657 20.0305 88.4548 19.5307 88.8172 18.8702C89.1804 18.2097 89.3613 17.4063 89.3613 16.4602C89.3613 15.0499 88.9805 13.9699 88.219 13.2201C87.4758 12.4525 86.5598 12.0687 85.4725 12.0687C84.3844 12.0687 83.4691 12.4525 82.7252 13.2201C82.0003 13.9699 81.6378 15.0499 81.6378 16.4602C81.6378 17.8705 81.9908 18.9594 82.6981 19.7271C83.4237 20.4769 84.3302 20.8517 85.4175 20.8517Z" fill="#8B8989"/>
<path d="M69.0271 24.1186C67.5765 24.1186 66.2711 23.8062 65.1107 23.1814C63.9503 22.5387 63.0347 21.6372 62.3638 20.4769C61.7111 19.3165 61.3848 17.9776 61.3848 16.4602C61.3848 14.9428 61.7202 13.6039 62.3911 12.4435C63.08 11.2832 64.0138 10.3906 65.1923 9.76579C66.3709 9.12315 67.6854 8.80176 69.1359 8.80176C70.5864 8.80176 71.9009 9.12315 73.0795 9.76579C74.2577 10.3906 75.1825 11.2832 75.8532 12.4435C76.5423 13.6039 76.8871 14.9428 76.8871 16.4602C76.8871 17.9776 76.5335 19.3165 75.8261 20.4769C75.1371 21.6372 74.1948 22.5387 72.9978 23.1814C71.8193 23.8062 70.4958 24.1186 69.0271 24.1186ZM69.0271 20.8517C69.7161 20.8517 70.3597 20.691 70.9581 20.3697C71.5745 20.0305 72.0641 19.5307 72.4267 18.8702C72.7893 18.2097 72.9706 17.4063 72.9706 16.4602C72.9706 15.0499 72.5899 13.9699 71.8284 13.2201C71.085 12.4525 70.1693 12.0687 69.0815 12.0687C67.9936 12.0687 67.078 12.4525 66.3346 13.2201C65.6094 13.9699 65.2467 15.0499 65.2467 16.4602C65.2467 17.8705 65.6003 18.9594 66.3074 19.7271C67.0327 20.4769 67.9392 20.8517 69.0271 20.8517Z" fill="#8B8989"/>
<path d="M52.6364 24.1186C51.1859 24.1186 49.8805 23.8062 48.7201 23.1814C47.5597 22.5387 46.644 21.6372 45.9732 20.4769C45.3205 19.3165 44.9941 17.9776 44.9941 16.4602C44.9941 14.9428 45.3296 13.6039 46.0004 12.4435C46.6894 11.2832 47.6232 10.3906 48.8017 9.76579C49.9802 9.12315 51.2947 8.80176 52.7452 8.80176C54.1957 8.80176 55.5103 9.12315 56.6888 9.76579C57.8673 10.3906 58.792 11.2832 59.4628 12.4435C60.1518 13.6039 60.4964 14.9428 60.4964 16.4602C60.4964 17.9776 60.1428 19.3165 59.4357 20.4769C58.7467 21.6372 57.8038 22.5387 56.6072 23.1814C55.4287 23.8062 54.1051 24.1186 52.6364 24.1186ZM52.6364 20.8517C53.3255 20.8517 53.9691 20.691 54.5674 20.3697C55.1839 20.0305 55.6735 19.5307 56.0361 18.8702C56.3986 18.2097 56.58 17.4063 56.58 16.4602C56.58 15.0499 56.1993 13.9699 55.4377 13.2201C54.6943 12.4525 53.7787 12.0687 52.6908 12.0687C51.603 12.0687 50.6874 12.4525 49.9439 13.2201C49.2187 13.9699 48.8561 15.0499 48.8561 16.4602C48.8561 17.8705 49.2097 18.9594 49.9168 19.7271C50.642 20.4769 51.5486 20.8517 52.6364 20.8517Z" fill="#8B8989"/>
<path d="M38.2216 20.9051H44.4769V23.8773H34.4141V5.18652H38.2216V20.9051Z" fill="#8B8989"/>
<path d="M62.3887 25.8699C63.3531 28.694 66.064 30.7281 69.2572 30.7281H69.6546C73.6559 30.7281 76.8996 27.5345 76.8996 23.595V23.1919H72.9717V23.595C72.9717 25.3987 71.4866 26.8609 69.6546 26.8609H69.2572C68.3236 26.8609 67.48 26.4811 66.8772 25.8699H62.3887Z" fill="#8B8989"/>
</g>
<defs>
<clipPath id="clip0_1279_3095">
<rect width="175" height="31" fill="white"/>
</clipPath>
</defs>
</svg>
